/* XPM */
static char *dummy[]={
"64 64 225 2",
"Qt c None",
".N c #feffff",
"#A c #fefefe",
".a c #feffff",
".b c #fdfffe",
"#d c #fefefe",
"#2 c #feffff",
"ak c #ffffff",
".S c #fdfefe",
"a9 c #f0ad7f",
"#p c #fdb9a0",
"bE c #ad8575",
"bu c #f4e586",
"a0 c #e4876a",
"#B c #fcb094",
"bD c #ac7062",
"bv c #f8e562",
"aT c #efda67",
"#G c #fca789",
"aZ c #9b694f",
".M c #c4644f",
".n c #ca7750",
".3 c #e86850",
".d c #ea5d50",
"#o c #ea6650",
"#Q c #eb5c50",
"bC c #ee9256",
"bw c #fce24e",
".5 c #fce3de",
"aJ c #f1dc5d",
"#R c #fc9e7c",
".w c #89513a",
"#h c #9e4c3a",
".x c #cb483b",
".r c #e84b3c",
".q c #e8553d",
".k c #ec5c4f",
"bp c #eed952",
".j c #ef463c",
"bx c #fbdf3a",
"bB c #fcdf3b",
"aB c #f0da4e",
"#3 c #f2de7e",
"by c #f9dc26",
"bA c #fbdc27",
"au c #e9d13c",
"aa c #f2dd7d",
"ac c #0a0601",
"#5 c #1e1303",
".t c #5e3913",
"aX c #643613",
".A c #6e3213",
".E c #732f13",
".g c #752e12",
"a# c #7a3815",
"aS c #7b3815",
".z c #873714",
"ai c #8b3916",
"aj c #8f3c16",
".0 c #8f3e15",
".m c #942e14",
"at c #9b6450",
".l c #9c4b16",
"bh c #a13514",
".J c #a43814",
"#9 c #a44c15",
"#1 c #a84317",
".p c #b32f15",
".O c #c52715",
"a. c #c65618",
".f c #ca5618",
".D c #d03f18",
".4 c #d43316",
"bo c #d93516",
".G c #da3416",
"ar c #dc5b19",
".W c #dd2f17",
"a4 c #dd3b17",
"aW c #dd4217",
"aV c #de3e17",
".e c #df2d16",
"a5 c #df5f1d",
"bk c #df621d",
"#f c #df9224",
".u c #e02b16",
"a2 c #e04318",
"a3 c #e04418",
"a1 c #e04518",
".V c #e12a16",
"#P c #e13617",
"ba c #e14a19",
"#n c #e22916",
".Z c #e23d17",
"ae c #e2c708",
".c c #e32816",
".C c #e32916",
".# c #e33417",
".i c #e42816",
"a7 c #e52816",
"#z c #e52a16",
"bj c #e55d1c",
"b. c #e5701f",
".L c #e62715",
"#u c #e69723",
".2 c #e73017",
"bb c #e89122",
"bg c #e92615",
".T c #ea2616",
"as c #ea3018",
"aR c #eb2115",
".v c #eb2215",
".P c #eb2a16",
".B c #ec2215",
"#c c #ec3218",
"aY c #ed2416",
"aQ c #ed2616",
"a8 c #ed2c16",
"bi c #ed7220",
"aM c #edb80c",
".o c #ee2d17",
".s c #ee2f17",
"#l c #ee3217",
"aK c #eed431",
".Q c #ef2f17",
".y c #ef3017",
".I c #ef3117",
"aI c #ef4419",
"#0 c #ef621a",
"b# c #ef7520",
"#K c #efa33d",
".K c #f05119",
".F c #f05219",
"#F c #f09e22",
"aN c #f0d513",
"al c #f0d969",
"bf c #f15319",
"#m c #f15519",
"## c #f1641a",
"#i c #f19f22",
".9 c #f29f21",
"#j c #f2a120",
"aU c #f2d00e",
"bq c #f2d114",
"aE c #f2d814",
".R c #f3631a",
".h c #f3641b",
"#w c #f39f21",
"ah c #f3a021",
"#t c #f3b411",
"ap c #f3b90a",
"#s c #f3d110",
"ag c #f3d312",
"aC c #f3d432",
"#M c #f3d914",
"#6 c #f3f3f3",
"#x c #f4711d",
"aL c #f4d110",
"#C c #f4d412",
"bz c #f4d814",
"#7 c #f4d914",
"#T c #f4f3f3",
"af c #f5da14",
"#a c #f6641b",
"#Z c #f6661c",
"av c #f6d533",
"bc c #f6db15",
"#L c #f6de39",
"ao c #f6df41",
".U c #f7671c",
"ab c #f7d534",
"br c #f7d813",
"#4 c #f7db37",
"#S c #f7dd38",
".1 c #f8681c",
".6 c #f8791e",
"bn c #f8b909",
"#E c #f8ca0c",
"#W c #f8dd17",
"bl c #f8de17",
"ay c #f8de18",
"aF c #f8df19",
"aO c #f8e01a",
"#y c #f9681b",
"#g c #f9681c",
".Y c #f99a21",
"#r c #f9a11f",
"#. c #f9a61d",
"az c #f9dc16",
"ad c #f9e01a",
".H c #fa681b",
"#H c #fa6a1b",
"#q c #fa6b23",
"aq c #fa6c1b",
".X c #fa9f1f",
".8 c #faa11e",
"#D c #fadd17",
"#v c #fadd18",
"#N c #fade18",
"aH c #fade19",
"aG c #fadf19",
"aP c #fae019",
"#V c #fae119",
"#O c #fae219",
"#I c #faf7f3",
"aw c #faf8f3",
"am c #fafdfd",
"#b c #fb681b",
"#e c #fb8459",
".7 c #fb9c1f",
"#k c #fb9c20",
"bt c #fbd813",
"be c #fbd914",
"aD c #fbda15",
"#Y c #fbdb16",
"bd c #fbdb17",
"bs c #fbdc17",
"a6 c #fbdc18",
"#X c #fbe219",
"#8 c #fbe319",
"an c #fbe447",
"#U c #fbe554",
"#J c #fbe555",
"ax c #fbe654",
"aA c #fcb70d",
"bm c #fcda15",
"QtQtQtQtQtQtQtQtQtQtQtQtQtQtQtQtQtQtQtQtQtQtQtQtQtQtQtQtQtQtQtQtQtQtQtQtQtQtQtQtQtQtQtQtQtQtQtQtQtQtQtQtQtQtQtQtQtQtQtQtQtQtQtQt",
"QtQtQtQtQtQtQtQtQtQtQtQtQtQtQtQtQtQtQtQtQtQtQtQtQtQtQtQtQtQtQtQtQtQtQtQtQtQtQtQtQtQtQtQtQtQtQtQtQtQtQtQtQtQtQtQtQtQtQtQtQtQtQtQt",
"QtQtQtQtQtQtQtQtQtQtQtQtQtQtQtQtQtQtQtQtQtQtQtQtQtQtQtQtQtQtQtQtQtQtQtQtQtQtQtQtQtQtQtQtQtQtQtQtQtQtQtQtQtQtQtQtQtQtQtQtQtQtQtQt",
"QtQtQtQtQtQtQtQtQtQtQtQtQtQtQtQtQtQtQtQtQtQtQtQtQtQtQtQtQtQtQtQtQtQtQtQtQtQtQtQtQtQtQtQtQtQtQtQtQtQtQtQtQtQtQtQtQtQtQtQtQtQtQtQt",
"QtQtQtQtQtQtQtQtQtQtQtQtQtQtQtQtQtQtQtQtQtQtQtQtQtQtQtQtQtQtQtQtQtQtQtQtQtQtQtQtQtQtQtQtQtQtQtQtQtQtQtQtQtQtQtQtQtQtQtQtQtQtQtQt",
"QtQtQtQtQtQtQtQtQtQtQtQtQtQtQtQtQtQtQtQtQtQtQtQtQtQtQtQtQtQtQtQtQtQtQtQtQtQtQtQtQtQtQtQtQtQtQtQtQtQtQtQtQtQtQtQtQtQtQtQtQtQtQtQt",
"QtQtQtQtQtQtQtQtQtQtQtQtQtQtQtQtQtQtQtQtQtQtQtQtQtQtQtQtQtQtQtQtQtQtQtQtQtQtQtQtQtQtQtQtQtQtQtQtQtQtQtQtQtQtQtQtQtQtQtQtQtQtQtQt",
"QtQtQtQtQtQtQtQtQtQtQtQtQtQtQtQtQtQtQtQtQtQtQtQtQtQtQtQtQtQtQtQtQtQtQtQtQtQtQtQtQtQtQtQtQtQtQtQtQtQtQtQtQtQtQtQtQtQtQtQtQtQtQtQt",
"QtQtQtQtQtQtQtQtQtQtQtQtQtQtQtQtQtQtQtQtQtQtQtQtQtQtQtQtQtQtQtQtQtQtQtQtQtQtQtQtQtQtQtQtQtQtQtQtQtQtQtQtQtQtQtQtQtQtQtQtQtQtQtQt",
"QtQtQtQtQtQtQtQtQtQtQtQtQtQtQtQtQtQtQtQtQtQtQtQtQtQtQtQtQtQtQtQtQtQtQtQtQtQtQtQtQtQtQtQtQtQtQtQtQtQtQtQtQtQtQtQtQtQtQtQtQtQtQtQt",
"QtQtQtQtQtQtQtQtQtQtQtQtQtQtQtQtQtQtQtQtQtQtQtQtQtQtQtQtQtQtQtQtQtQtQtQtQtQtQtQtQtQtQtQtQtQtQtQtQtQtQtQtQtQtQtQtQtQtQtQtQtQtQtQt",
"QtQtQtQtQtQtQtQtQtQtQtQtQtQtQtQtQtQtQtQtQtQtQtQtQtQtQtQtQtQtQtQtQtQtQtQtQtQtQtQtQtQtQtQtQtQtQtQtQtQtQtQtQtQtQtQtQtQtQtQtQtQtQtQt",
"QtQtQtQtQtQtQtQtQtQtQtQtQtQtQtQtQtQtQtQtQtQtQtQtQtQtQtQtQtQtQtQtQtQtQtQtQtQtQtQtQtQtQtQtQtQtQtQtQtQtQtQtQtQtQtQtQtQtQtQtQtQtQtQt",
"QtQtQtQtQtQtQtQtQtQtQtQtQtQtQtQtQtQtQtQtQtQtQtQtQtQtQtQtQtQtQtQtQtQtQtQtQtQtQtQtQtQtQtQtQtQtQtQtQtQtQtQtQtQtQtQtQtQtQtQtQtQtQtQt",
"QtQtQtQtQtQtQtQtQtQtQtQtQtQtQtQtQtQtQtQtQtQtQtQtQtQtQtQtQtQtQtQtQtQtQtQtQtQtQtQtQtQtQtQtQtQtQtQtQtQtQtQtQtQtQtQtQtQtQtQtQtQtQtQt",
"QtQtQtQtQtQtQtQtQtQtQtQtQtQtQtQtQtQtQtQtQtQtQtQtQtQtQtQtQtQtQtQtQtQtQtQtQtQtQtQtQtQtQtQtQtQtQtQtQtQtQtQtQtQtQtQtQtQtQtQtQtQtQtQt",
"QtQtQtQtQtQtQtQtQtQtQtQtQtQtQtQtQtQtQtQtQtQtQtQtQtQtQtQtQtQtQtQtQtQtQtQtQtQtQtQtQtQtQtQtQtQtQtQtQtQtQtQtQtQtQtQtQtQtQtQtQtQtQtQt",
"QtQtQtQtQtQtQtQtQtQtQtQtQtQtQtQtQtQtQtQtQtQtQtQtQtQtQtQtQtQtQtQtQtQtQtQtQtQtQtQtQtQtQtQtQtQtQtQtQtQtQtQtQtQtQtQtQtQtQtQtQtQtQtQt",
"QtQtQtQtQtQtQtQtQtQtQtQtQtQtQtQtQtQtQtQtQtQtQtQtQtQtQtQtQtQtQtQtQtQtQt.#QtQtQtQtQtQtQtQtQtQtQtQtQtQtQtQtQtQtQtQtQtQtQtQtQtQtQtQt",
"QtQtQtQtQtQtQtQtQtQtQtQtQtQtQtQtQtQtQtQtQtQtQtQtQtQtQtQtQtQtQtQtQtQtQt.#.aQtQtQtQtQtQtQtQtQtQtQtQtQtQtQtQtQtQtQtQtQtQtQtQtQtQtQt",
"QtQtQtQtQtQtQtQtQtQtQtQtQtQtQtQtQtQtQtQtQtQtQtQtQtQtQtQtQtQtQtQtQtQt.b.c.dQtQtQtQtQtQtQtQtQtQtQtQtQtQtQtQtQtQtQtQtQtQtQtQtQtQtQt",
"QtQtQtQtQtQtQtQtQtQtQtQtQtQtQtQtQtQtQtQtQtQtQtQtQtQtQtQtQtQtQtQtQtQt.e.c.cQtQtQtQtQtQtQtQtQtQtQtQtQtQtQtQtQtQtQtQtQtQtQtQtQtQtQt",
"QtQtQtQtQtQtQtQtQtQtQtQtQtQtQtQtQtQtQtQtQtQtQtQtQtQt.fQtQtQtQt.gQtQt.a.c.dQtQtQtQtQtQtQtQtQtQtQtQtQtQtQtQtQtQtQtQtQtQtQtQtQtQtQt",
"QtQtQtQtQtQtQtQtQtQtQtQtQtQtQtQtQtQtQtQtQtQtQt.cQtQt.h.aQtQt.a.iQtQtQt.cQtQtQtQtQtQtQtQtQtQtQtQtQtQtQtQtQtQtQtQtQtQtQtQtQtQtQtQt",
"QtQtQtQtQtQtQtQtQtQtQtQtQtQtQtQtQtQtQtQtQtQt.j.kQt.b.h.l.a.a.c.cQtQtQtQtQtQtQtQt.a.cQtQtQtQtQtQtQtQtQtQtQtQtQtQtQtQtQtQtQtQtQtQt",
"QtQtQtQtQtQtQtQtQtQtQtQtQtQtQtQtQtQtQtQtQtQt.mQtQt.n.h.o.p.c.c.cQtQtQtQtQtQtQt.q.c.rQtQtQtQtQtQtQtQtQtQtQtQtQtQtQtQtQtQtQtQtQtQt",
"QtQtQtQtQtQtQtQtQtQtQtQtQtQtQtQtQtQtQtQtQtQtQtQtQt.h.s.c.t.u.c.vQt.hQt.w.cQt.q.#.c.aQtQtQtQtQtQtQtQtQtQtQtQtQtQtQtQtQtQtQtQtQtQt",
"QtQtQtQtQtQtQtQtQtQtQtQtQtQtQtQtQtQtQtQtQtQt.c.xQt.c.c.c.c.y.c.c.z.h.A.B.CQt.#.D.EQtQtQtQtQtQtQtQtQtQtQtQtQtQtQtQtQtQtQtQtQtQtQt",
"QtQtQtQtQtQtQtQtQtQtQtQtQtQtQtQtQtQtQtQtQtQt.F.c.G.c.H.c.c.I.J.B.K.L.B.c.MQtQtQtQtQtQtQtQtQtQtQtQtQtQtQtQtQtQtQtQtQtQtQtQtQtQtQt",
"QtQtQtQtQtQtQtQtQtQtQtQtQtQtQtQtQtQtQtQtQt.N.h.i.c.O.H.P.i.Q.R.B.B.c.c.c.bQtQt.#QtQtQtQtQtQtQtQtQtQtQtQtQtQtQtQtQtQtQtQtQtQtQtQt",
"QtQtQtQtQtQtQtQtQtQtQtQtQtQtQtQtQtQtQtQtQt.S.h.R.T.h.h.h.h.U.H.V.c.B.h.WQtQt.#.#QtQtQtQtQtQtQtQtQtQtQtQtQtQtQtQtQtQtQtQtQtQtQtQt",
"QtQtQtQtQtQtQtQtQtQtQtQtQtQtQtQtQtQtQtQtQt.h.X.R.H.h.h.h.h.Y.y.Z.B.0.1.iQt.c.2.3Qt.4QtQtQtQtQtQtQtQtQtQtQtQtQtQtQtQtQtQtQtQtQtQt",
"QtQtQtQtQtQtQtQtQtQtQtQtQtQtQtQtQtQtQtQt.5.H.6.7.8.U.R.9.h#.###a.i.H#b.c.c.c#c#d.a.c.cQtQtQtQtQtQtQtQtQtQtQtQtQtQtQtQtQtQtQtQtQt",
"QtQtQtQtQtQtQtQtQtQtQtQtQtQtQtQtQtQtQtQt#e.H.h.8.8.9.9.9#..9#f.U.H.H#g.c.h.c.#Qt.c#hQtQtQtQtQtQtQtQtQtQtQtQtQtQtQtQtQtQtQtQtQtQt",
"QtQtQtQtQtQtQtQtQtQtQtQtQtQtQtQtQtQtQt#d#e.H.h.8.8.9#i#j.9.9.9.U#k#b#l.c#m#n#oQtQtQtQtQtQtQtQtQtQtQtQtQtQtQtQtQtQtQtQtQtQtQtQtQt",
"QtQtQtQtQtQtQtQtQtQtQtQtQtQtQtQtQtQtQt#p#q.H.8#r#s#t#u#v.9.9#w#x.8.H.c#y#z#n#AQtQt.cQtQtQtQtQtQtQtQtQtQtQtQtQtQtQtQtQtQtQtQtQtQt",
"QtQtQtQtQtQtQtQtQtQtQtQtQtQtQtQtQtQtQt#B#y.h#w.9#C#D#E#v#F#v.9.9.8.H.H.H.c#nQt#o.cQtQtQtQtQtQtQtQtQtQtQtQtQtQtQtQtQtQtQtQtQtQtQt",
"QtQtQtQtQtQtQtQtQtQtQtQtQtQtQtQtQtQtQt#G#H#I#J#K#L#v#v#M#N#O#M#v.9#f#w.H.c.c.##P#QQtQtQtQtQtQtQtQtQtQtQtQtQtQtQtQtQtQtQtQtQtQtQt",
"QtQtQtQtQtQtQtQtQtQtQtQtQtQtQtQtQtQtQt#R#S#I#T#U#L#v#V#W#X#X#Y#V.9.9#Z#0.c.o.##1#2QtQtQtQtQtQtQtQtQtQtQtQtQtQtQtQtQtQtQtQtQtQtQt",
"QtQtQtQtQtQtQtQtQtQtQtQtQtQtQtQtQtQtQt#3#4#5#6#T#J#7#v#O#O#8#O#X#C.9.h#9.oa..#a#QtQtQtQtQtQtQtQtQtQtQtQtQtQtQtQtQtQtQtQtQtQtQtQt",
"QtQtQtQtQtQtQtQtQtQtQtQtQtQtQtQtQtQtQtaaabac#6#T#U#M#v#O#8adaeafagah.H.h.ca.aiajakQtQtQtQtQtQtQtQtQtQtQtQtQtQtQtQtQtQtQtQtQtQtQt",
"QtQtQtQtQtQtQtQtQtQtQtQtQtQtQtQtQtQtQtalab#Iamanao#M#M#7#M#7afafap.9.8aq.car.#asatQtQtQtQtQtQtQtQtQtQtQtQtQtQtQtQtQtQtQtQtQtQtQt",
"QtQtQtQtQtQtQtQtQtQtQtQtQtQtQtQtQtQtQtauavawax#M#M#M#M#May#M#Oaz.9aA.8.Y.c.Q#ca#QtQtQtQtQtQtQtQtQtQtQtQtQtQtQtQtQtQtQtQtQtQtQtQt",
"QtQtQtQtQtQtQtQtQtQtQtQtQtQtQtQtQtQtQtaBaCaD#MaE#M#M#M#O#M#MaF#jaGaH.8.haI.B.2#dQtQtQtQtQtQtQtQtQtQtQtQtQtQtQtQtQtQtQtQtQtQtQtQt",
"QtQtQtQtQtQtQtQtQtQtQtQtQtQtQtQtQtQtQtaJaKaL#M#MaM#M#M#OaNaO#XaP#X.8.H.haQaRaSQtQtQtQtQtQtQtQtQtQtQtQtQtQtQtQtQtQtQtQtQtQtQtQtQt",
"QtQtQtQtQtQtQtQtQtQtQtQtQtQtQtQtQtQtQtaTaKaUaVaVaW#M#M#M#O#8#8#XaG.1.HaXaY.caZQtQtQtQtQtQtQtQtQtQtQtQtQtQtQtQtQtQtQtQtQtQtQtQtQt",
"QtQtQtQtQtQtQtQtQtQtQtQtQtQtQtQtQtQtQta0a1a2a3a3a4a5#M#V#7#O#V#va6#ya7a8.c.EQtQtQtQtQtQtQtQtQtQtQtQtQtQtQtQtQtQtQtQtQtQtQtQtQtQt",
"QtQtQtQtQtQtQtQtQtQtQtQtQtQtQtQtQtQtQta9b.b#b#baa4bb#O#Mbc#O#vbdbe.hbfbgbh.aQtQtQtQtQtQtQtQtQtQtQtQtQtQtQtQtQtQtQtQtQtQtQtQtQtQt",
"QtQtQtQtQtQtQtQtQtQtQtQtQtQtQtQtQtQtQtQtb.b#bibjbkblaGbm#X#X#vbeaPbn.cbo.EQtQtQtQtQtQtQtQtQtQtQtQtQtQtQtQtQtQtQtQtQtQtQtQtQtQtQt",
"QtQtQtQtQtQtQtQtQtQtQtQtQtQtQtQtQtQtQtQtQtbpbqbebrbs#XbsaG#X#VaPbt.c.c.aQtQtQtQtQtQtQtQtQtQtQtQtQtQtQtQtQtQtQtQtQtQtQtQtQtQtQtQt",
"QtQtQtQtQtQtQtQtQtQtQtQtQtQtQtQtQtQtQtQtQtQt.abubvbwbxbybzbAbBbCbDbEQtQtQtQtQtQtQtQtQtQtQtQtQtQtQtQtQtQtQtQtQtQtQtQtQtQtQtQtQtQt",
"QtQtQtQtQtQtQtQtQtQtQtQtQtQtQtQtQtQtQtQtQtQtQtQtQtQtQtQtQtQtQtQtQtQtQtQtQtQtQtQtQtQtQtQtQtQtQtQtQtQtQtQtQtQtQtQtQtQtQtQtQtQtQtQt",
"QtQtQtQtQtQtQtQtQtQtQtQtQtQtQtQtQtQtQtQtQtQtQtQtQtQtQtQtQtQtQtQtQtQtQtQtQtQtQtQtQtQtQtQtQtQtQtQtQtQtQtQtQtQtQtQtQtQtQtQtQtQtQtQt",
"QtQtQtQtQtQtQtQtQtQtQtQtQtQtQtQtQtQtQtQtQtQtQtQtQtQtQtQtQtQtQtQtQtQtQtQtQtQtQtQtQtQtQtQtQtQtQtQtQtQtQtQtQtQtQtQtQtQtQtQtQtQtQtQt",
"QtQtQtQtQtQtQtQtQtQtQtQtQtQtQtQtQtQtQtQtQtQtQtQtQtQtQtQtQtQtQtQtQtQtQtQtQtQtQtQtQtQtQtQtQtQtQtQtQtQtQtQtQtQtQtQtQtQtQtQtQtQtQtQt",
"QtQtQtQtQtQtQtQtQtQtQtQtQtQtQtQtQtQtQtQtQtQtQtQtQtQtQtQtQtQtQtQtQtQtQtQtQtQtQtQtQtQtQtQtQtQtQtQtQtQtQtQtQtQtQtQtQtQtQtQtQtQtQtQt",
"QtQtQtQtQtQtQtQtQtQtQtQtQtQtQtQtQtQtQtQtQtQtQtQtQtQtQtQtQtQtQtQtQtQtQtQtQtQtQtQtQtQtQtQtQtQtQtQtQtQtQtQtQtQtQtQtQtQtQtQtQtQtQtQt",
"QtQtQtQtQtQtQtQtQtQtQtQtQtQtQtQtQtQtQtQtQtQtQtQtQtQtQtQtQtQtQtQtQtQtQtQtQtQtQtQtQtQtQtQtQtQtQtQtQtQtQtQtQtQtQtQtQtQtQtQtQtQtQtQt",
"QtQtQtQtQtQtQtQtQtQtQtQtQtQtQtQtQtQtQtQtQtQtQtQtQtQtQtQtQtQtQtQtQtQtQtQtQtQtQtQtQtQtQtQtQtQtQtQtQtQtQtQtQtQtQtQtQtQtQtQtQtQtQtQt",
"QtQtQtQtQtQtQtQtQtQtQtQtQtQtQtQtQtQtQtQtQtQtQtQtQtQtQtQtQtQtQtQtQtQtQtQtQtQtQtQtQtQtQtQtQtQtQtQtQtQtQtQtQtQtQtQtQtQtQtQtQtQtQtQt",
"QtQtQtQtQtQtQtQtQtQtQtQtQtQtQtQtQtQtQtQtQtQtQtQtQtQtQtQtQtQtQtQtQtQtQtQtQtQtQtQtQtQtQtQtQtQtQtQtQtQtQtQtQtQtQtQtQtQtQtQtQtQtQtQt",
"QtQtQtQtQtQtQtQtQtQtQtQtQtQtQtQtQtQtQtQtQtQtQtQtQtQtQtQtQtQtQtQtQtQtQtQtQtQtQtQtQtQtQtQtQtQtQtQtQtQtQtQtQtQtQtQtQtQtQtQtQtQtQtQt",
"QtQtQtQtQtQtQtQtQtQtQtQtQtQtQtQtQtQtQtQtQtQtQtQtQtQtQtQtQtQtQtQtQtQtQtQtQtQtQtQtQtQtQtQtQtQtQtQtQtQtQtQtQtQtQtQtQtQtQtQtQtQtQtQt",
"QtQtQtQtQtQtQtQtQtQtQtQtQtQtQtQtQtQtQtQtQtQtQtQtQtQtQtQtQtQtQtQtQtQtQtQtQtQtQtQtQtQtQtQtQtQtQtQtQtQtQtQtQtQtQtQtQtQtQtQtQtQtQtQt"};
