/* XPM */
static char *dummy[]={
"64 64 452 2",
"Qt c None",
"#h c None",
".p c None",
".1 c None",
".x c None",
".H c None",
".n c None",
".9 c None",
".F c None",
"fb c None",
"fa c None",
".R c None",
".I c None",
".6 c None",
"eF c None",
"bd c #000000",
".Q c #99460b",
"cJ c #b02700",
".2 c #e02909",
".y c #fbffff",
".u c #fe002c",
".e c #ffffff",
"a# c #fcffff",
".b c #fdffff",
"dR c #ffffff",
"#I c #da1606",
"#0 c #fe3317",
"bw c #ff1e12",
"eq c #2f2c18",
"bU c #e32315",
"#o c #f00a12",
"dE c #4d472c",
".N c #e32815",
"dl c #4b300a",
"ef c #644215",
".7 c #6a3013",
"#Z c #a84420",
".l c #e22811",
".E c #e22815",
"#. c #e33516",
"bv c #e33b1e",
".V c #e52d13",
"b9 c #e62b1d",
"bI c #eb9389",
"#M c #000000",
"ak c #c80018",
"al c #e31e0e",
"cI c #3f1e03",
".o c #752f12",
"ap c #d33115",
".8 c #e02a16",
"bJ c #e32915",
"aa c #e33217",
".O c #e42b1b",
".5 c #f3641a",
".4 c #e22614",
".U c #e32714",
".t c #e32915",
"ao c #e43316",
".A c #7c2b12",
"ab c #e33416",
".L c #e51d09",
"#l c #9b0c10",
"bS c #dd0300",
"aF c #e12415",
"#m c #df601a",
"cL c #fafdfd",
"c5 c #b84336",
"cK c #b42e14",
".B c #ffffff",
"eZ c #faf5f5",
".# c #fafcfc",
".P c #fafdfd",
"c4 c #d5c8c5",
"eQ c #fafdfd",
".J c #fbf9fb",
"eE c #f7f5f4",
"bx c #fafcfc",
".v c #fafdfd",
".W c #fbf9fa",
"#s c #faf2f1",
"a1 c #fafcfd",
".d c #f4cbc7",
"bH c #fbf0ef",
"f# c #6a3212",
"c. c #fafdfd",
"cq c #f3f4f4",
".h c #f9fefd",
".i c #fafbfc",
"aK c #fafcfc",
"a0 c #faf5f3",
"dQ c #fef6f5",
"a. c #faf6f5",
"f. c #821711",
"e0 c #732f13",
"e1 c #832813",
"e9 c #ea721f",
"c6 c #782d12",
"bT c #e33417",
"d7 c #7a3815",
"ee c #833415",
"#N c #b03115",
"ar c #e03717",
".f c #e32816",
"bg c #e33417",
"bV c #e52716",
"e2 c #e86e1e",
".D c #e32815",
"bu c #e3381e",
"dk c #822710",
"#Y c #b33720",
"aI c #e13d22",
"b8 c #e52e1f",
"eP c #782d12",
"bf c #8e2a13",
".k c #e32512",
"#b c #e32d1c",
"e8 c #fbdb16",
"#n c #742e12",
"#p c #e33417",
"## c #e33417",
"#c c #722f13",
"a3 c #8b2913",
".Y c #e32816",
".Z c #e33417",
"e3 c #fbd914",
"b1 c #e79921",
"bX c #e79921",
"#A c #e32816",
"#g c #5e3913",
".0 c #b32f15",
"ag c #ee2f17",
"d9 c #f09820",
"eb c #f09920",
"bM c #f09e22",
"bL c #f19f22",
"dT c #f1d612",
"d3 c #f2d611",
"cR c #f2d612",
"dU c #f2d712",
"dg c #e99b21",
"d2 c #f3d913",
"cu c #ed9b21",
"dA c #f09b21",
"dN c #f09e21",
"cD c #f09f21",
"cX c #f2da13",
"cU c #f3d813",
"cC c #f3da13",
".S c #e32a18",
"cc c #e79722",
"ce c #e79821",
"bY c #e79822",
"bZ c #e79921",
"dz c #e79a21",
"cl c #e89822",
"d4 c #e89a21",
"cz c #e89c20",
"dH c #e99921",
"dL c #e99e21",
"eu c #f09820",
"em c #f09920",
"dp c #f0d410",
"dm c #f19820",
"c9 c #f19920",
"df c #f19a21",
"dF c #f2d612",
"dK c #f2d613",
"dG c #f2d713",
"dM c #f2d913",
"cv c #f3d713",
"cO c #f3d813",
"dn c #e59622",
"dy c #e69a21",
"ci c #e89b21",
"d0 c #e99c21",
"ch c #e99d21",
"cP c #efd410",
"dw c #f0d410",
"eA c #f19e21",
"ea c #f2d612",
"dc c #f4d813",
"cB c #f4d913",
"cj c #e3c906",
"b0 c #e9a122",
"#3 c #ee2f17",
"cW c #f0d410",
"cd c #e3c806",
"d. c #e3c906",
"dd c #e4ca07",
"eh c #e7cb08",
"el c #e8cb09",
"e4 c #fbd914",
"#J c #e43417",
"e7 c #fbd914",
".3 c #e32816",
"be c #e52311",
".q c #de2d16",
"#j c #e32916",
".M c #e32816",
"e6 c #f4d814",
"eS c #fade18",
"#L c #743013",
"#K c #d34118",
"a2 c #e12e1c",
"eY c #e32311",
"eK c #fbe219",
"ep c #783118",
"eO c #db331c",
"dD c #803d1f",
".C c #e32d1d",
"ah c #f76b1c",
"cT c #fbe319",
"eG c #732f13",
".j c #e32f20",
"dV c #fbe219",
"aJ c #d43416",
"aG c #e32816",
"az c #fa9b21",
"d1 c #fbe119",
"eX c #e23416",
".c c #e33215",
"am c #e33317",
"dX c #f1d613",
"bN c #f29f20",
"db c #f3d914",
"dJ c #f4d914",
"ex c #f6db15",
"du c #f8de18",
"e# c #fae119",
"#B c #e22a15",
".X c #e32d1c",
"eW c #fad813",
"d6 c #7e3515",
"#H c #e22a15",
"bm c #e32816",
"bc c #e33317",
"an c #e33417",
"bK c #f29f20",
"b2 c #f2a120",
"eV c #fade18",
"eU c #fae119",
"dt c #fae219",
"cE c #a75016",
"dh c #dd5f1a",
"ay c #df2b16",
"ax c #e22916",
"aQ c #e32816",
".s c #e32916",
"c0 c #e52f16",
".K c #e62b1c",
"dO c #ec2a16",
"ec c #ed2616",
"d5 c #ed2a16",
"cm c #ed661a",
"#i c #ee2f17",
"#S c #ef2f17",
"dB c #ef3718",
"e5 c #f0d612",
"cx c #f19e21",
"bO c #f1a021",
"b4 c #f1a120",
"bl c #f29f20",
"bD c #f29f21",
"ck c #f3a51e",
"cV c #f4da14",
"cZ c #f5681c",
"de c #f9a41d",
"a7 c #f9a51d",
"dv c #f9dc17",
"eT c #fae119",
"da c #fae219",
"dx c #fcb70c",
"#x c #6e3213",
"#t c #732f13",
".w c #752e12",
"#F c #7a2f13",
"cr c #7a3815",
"dS c #7b3815",
".z c #7d2b13",
"cH c #813515",
"#y c #873714",
"cN c #8b3916",
"#D c #8e3915",
"cM c #8f3c16",
"c2 c #8f3d17",
"au c #8f3e15",
"aC c #924115",
"c3 c #943b14",
"eD c #a1300f",
"er c #a13514",
"#Q c #a43814",
"ct c #a44c15",
"cp c #a74011",
"#T c #a83d15",
"c# c #a84317",
"cs c #c65618",
"c1 c #c95417",
"#u c #d03f18",
"aq c #d43316",
"eH c #d93516",
"c8 c #dc5b19",
"ac c #dd2f17",
"aj c #de3117",
".m c #df2d16",
"a5 c #df9224",
"b3 c #df9424",
"a9 c #df9524",
"#r c #e02912",
"#f c #e02b16",
"b7 c #e03817",
"ad c #e12a16",
"bW c #e13617",
"#9 c #e2240f",
"bG c #e22612",
"ed c #e22816",
"bh c #e22916",
"ai c #e22d16",
"cG c #e23717",
"av c #e23d17",
"#a c #e32612",
"eo c #e32716",
".T c #e32815",
".g c #e32816",
".r c #e32915",
"#v c #e32916",
"aY c #e32a16",
"#8 c #e32b16",
"b6 c #e33317",
".a c #e33417",
"#q c #e33517",
"aB c #e33e17",
"#X c #e42715",
"#7 c #e42716",
".G c #e42816",
"bs c #e42916",
"aX c #e42a16",
"bb c #e42b16",
"dP c #e42e11",
"eN c #e43216",
"#C c #e52616",
"aE c #e52a15",
"by c #e52a16",
"aU c #e52b16",
"co c #e53217",
"di c #e53317",
"#O c #e62715",
"bF c #e62b15",
"aH c #e72f17",
"as c #e73017",
"#U c #e92115",
"es c #e92615",
"#G c #ea2115",
"eC c #ea2616",
"c7 c #ea3018",
"#k c #eb2115",
"#e c #eb2215",
"aZ c #eb2a11",
"dj c #eb3118",
"#6 c #ec2015",
"#w c #ec2215",
"#5 c #ec2716",
"cF c #ec2a16",
"cn c #ec2d16",
"aL c #ec3218",
"d8 c #ed2416",
"eg c #ed2c16",
"en c #ed2e16",
"#W c #ee2416",
"ca c #ee2d17",
"bj c #ee3217",
"br c #ee3317",
"#2 c #ef2f17",
"#z c #ef3017",
"#R c #ef3117",
"dC c #ef3318",
"aA c #ef3c19",
"cb c #ef621a",
"#P c #f05119",
"eB c #f15318",
"et c #f15319",
"bt c #f15419",
"bi c #f15519",
"aO c #f1641a",
"aS c #f16d1d",
"#E c #f2611a",
"a6 c #f29f21",
"#V c #f34f19",
"#1 c #f3631a",
"ba c #f3631b",
"#d c #f3641b",
"bC c #f39f21",
"a8 c #f3a021",
"bn c #f3a121",
"ds c #f3d914",
"#4 c #f4651b",
"bB c #f4711d",
"bE c #f4741e",
"d# c #f4d914",
"cQ c #f5da14",
"aN c #f6641b",
"aT c #f6661c",
"aD c #f6681c",
"b. c #f66a1d",
"af c #f7671c",
"bo c #f7691d",
"at c #f8681c",
"eI c #f8b909",
"dI c #f8df19",
"dY c #f8e019",
"dW c #f8e01a",
"bz c #f9681b",
"a4 c #f9681c",
"bQ c #f96d1c",
"aw c #f99a21",
"aR c #f9a51d",
"aP c #f9a61d",
"eM c #f9bb08",
"dq c #f9dc16",
"cS c #f9e01a",
"ae c #fa681b",
"bR c #fa6b1b",
"b5 c #fa6c1b",
"bA c #faa11e",
"bP c #faa21d",
"ej c #fadd18",
"ey c #fade18",
"eL c #fade19",
"e. c #fadf19",
"eJ c #fae019",
"cA c #fae119",
"dr c #fae219",
"aV c #fb671b",
"aM c #fb681b",
"aW c #fb691b",
"b# c #fb6b1b",
"bq c #fb6c1b",
"cY c #fb701a",
"bp c #fb9c1f",
"bk c #fb9c20",
"eR c #fbd813",
"ev c #fbd914",
"ez c #fbdb16",
"ew c #fbdb17",
"ei c #fbdc17",
"ek c #fbdd18",
"cf c #fbe219",
"cw c #fbe319",
"cy c #fbe419",
"do c #fcb70d",
"dZ c #fce419",
"cg c #fce51a",
"QtQtQtQtQtQtQtQtQtQtQtQtQtQtQtQtQtQtQtQtQtQtQtQtQtQtQtQtQtQtQtQtQtQtQtQtQtQtQtQtQtQtQtQtQtQtQtQtQtQtQtQtQtQtQtQtQtQtQtQtQtQtQtQt",
"QtQtQtQtQtQtQtQtQtQtQtQtQtQtQtQtQtQtQtQtQtQtQtQtQtQtQtQtQtQtQtQtQtQtQtQtQtQtQtQtQtQtQtQtQtQtQtQtQtQtQtQtQtQtQtQtQtQtQtQtQtQtQtQt",
"QtQtQtQtQtQtQtQtQtQtQtQtQtQtQtQtQtQtQtQtQtQtQtQtQtQtQtQtQtQtQtQtQtQtQtQtQtQtQtQtQtQtQtQtQtQtQtQtQtQtQtQtQtQtQtQtQtQtQtQtQtQtQtQt",
"QtQtQtQtQtQtQtQtQtQtQtQtQtQtQtQtQtQtQtQtQtQtQtQtQtQtQtQtQtQtQtQtQtQtQtQtQtQtQtQtQtQtQtQtQtQtQtQtQtQtQtQtQtQtQtQtQtQtQtQtQtQtQtQt",
"QtQtQtQtQtQtQtQtQtQtQtQtQtQtQtQtQtQtQtQtQtQtQtQtQtQtQtQtQtQtQtQtQtQtQtQtQtQtQtQtQtQtQtQtQtQtQtQtQtQtQtQtQtQtQtQtQtQtQtQtQtQtQtQt",
"QtQtQtQtQtQtQtQtQtQtQtQtQtQtQtQtQtQtQtQtQtQtQtQtQtQtQtQtQtQtQtQtQtQtQtQtQtQtQtQtQtQtQtQtQtQtQtQtQtQtQtQtQtQtQtQtQtQtQtQtQtQtQtQt",
"QtQtQtQtQtQtQtQtQtQtQtQtQtQtQtQtQtQtQtQtQtQtQtQtQtQtQtQtQtQtQtQtQtQtQtQtQtQtQtQtQtQtQtQtQtQtQtQtQtQtQtQtQtQtQtQtQtQtQtQtQtQtQtQt",
"QtQtQtQtQtQtQtQtQtQtQtQtQtQtQtQtQtQtQtQtQtQtQtQtQtQtQtQtQtQtQtQtQtQtQtQtQtQtQtQtQtQtQtQtQtQtQtQtQtQtQtQtQtQtQtQtQtQtQtQtQtQtQtQt",
"QtQtQtQtQtQtQtQtQtQtQtQtQtQtQtQtQtQtQtQtQtQtQtQtQtQtQtQtQtQtQtQtQtQtQtQtQtQtQtQtQtQtQtQtQtQtQtQtQtQtQtQtQtQtQtQtQtQtQtQtQtQtQtQt",
"QtQtQtQtQtQtQtQtQtQtQtQtQtQtQtQtQtQtQtQtQtQtQtQtQtQtQtQtQtQtQtQtQtQtQtQtQtQtQtQtQtQtQtQtQtQtQtQtQtQtQtQtQtQtQtQtQtQtQtQtQtQtQtQt",
"QtQtQtQtQtQtQtQtQtQtQtQtQtQtQtQtQtQtQtQtQtQtQtQtQtQtQtQtQtQtQtQtQtQtQtQtQtQtQtQtQtQtQtQtQtQtQtQtQtQtQtQtQtQtQtQtQtQtQtQtQtQtQtQt",
"QtQtQtQtQtQtQtQtQtQtQtQtQtQtQtQtQtQtQtQtQtQtQtQtQtQtQtQtQtQtQtQtQtQtQtQtQtQtQtQtQtQtQtQtQtQtQtQtQtQtQtQtQtQtQtQtQtQtQtQtQtQtQtQt",
"QtQtQtQtQtQtQtQtQtQtQtQtQtQtQtQtQtQtQtQtQtQtQtQtQtQtQtQtQtQtQtQtQtQtQtQtQtQtQtQtQtQtQtQtQtQtQtQtQtQtQtQtQtQtQtQtQtQtQtQtQtQtQtQt",
"QtQtQtQtQtQtQtQtQtQtQtQtQtQtQtQtQtQtQtQtQtQtQtQtQtQtQtQtQtQtQtQtQtQtQtQtQtQtQtQtQtQtQtQtQtQtQtQtQtQtQtQtQtQtQtQtQtQtQtQtQtQtQtQt",
"QtQtQtQtQtQtQtQtQtQtQtQtQtQtQtQtQtQtQtQtQtQtQtQtQtQtQtQtQtQtQtQtQtQtQtQtQtQtQtQtQtQtQtQtQtQtQtQtQtQtQtQtQtQtQtQtQtQtQtQtQtQtQtQt",
"QtQtQtQtQtQtQtQtQtQtQtQtQtQtQtQtQtQtQtQtQtQtQtQtQtQtQtQtQtQtQtQtQtQtQtQtQtQtQtQtQtQtQtQtQtQtQtQtQtQtQtQtQtQtQtQtQtQtQtQtQtQtQtQt",
"QtQtQtQtQtQtQtQtQtQtQtQtQtQtQtQtQtQtQtQtQtQtQtQtQtQtQtQtQtQtQtQtQtQtQtQtQtQtQtQtQtQtQtQtQtQtQtQtQtQtQtQtQtQtQtQtQtQtQtQtQtQtQtQt",
"QtQtQtQtQtQtQtQtQtQtQtQtQtQtQtQtQtQtQtQtQtQtQtQtQtQtQtQtQtQtQtQtQtQtQtQtQtQtQtQtQtQtQtQtQtQtQtQtQtQtQtQtQtQtQtQtQtQtQtQtQtQtQtQt",
"QtQtQtQtQtQtQtQtQtQtQtQtQtQtQtQtQtQtQtQtQtQtQt.#.aQtQtQtQtQtQtQtQtQtQtQtQtQt.b.c.d.eQtQtQtQtQtQtQtQtQtQtQtQtQtQtQtQtQtQtQtQtQtQt",
"QtQtQtQtQtQtQtQtQtQtQtQtQtQtQtQtQtQtQtQtQtQtQt.f.g.hQtQtQtQtQtQtQtQtQtQtQtQt.i.j.k.lQtQtQtQtQtQtQtQtQtQtQtQtQtQtQtQtQtQtQtQtQtQt",
"QtQtQtQtQtQtQtQtQtQtQtQtQtQtQtQtQtQtQtQtQtQtQt.g.g.mQtQtQtQtQtQtQtQt.n.o.pQt.q.r.s.tQt.uQtQtQtQtQtQtQtQtQtQtQtQtQtQtQtQtQtQtQtQt",
"QtQtQtQtQtQtQtQtQtQtQtQtQtQtQtQtQtQtQtQtQtQtQt.f.g.vQtQt.wQtQtQtQt.x.y.z.AQt.B.C.D.EQt.FQtQtQtQtQtQtQtQtQtQtQtQtQtQtQtQtQtQtQtQt",
"QtQtQtQtQtQtQtQtQtQtQtQtQtQtQtQtQtQtQtQtQtQtQtQt.gQtQtQt.G.vQtQt.H.I.J.K.LQtQt.M.NQtQtQt.y.OQtQtQtQtQtQtQtQtQtQtQtQtQtQtQtQtQtQt",
"QtQtQtQtQtQtQtQtQtQtQtQtQtQtQtQtQtQt.g.vQtQtQtQtQtQtQtQt.g.g.v.P.Q.R.S.T.UQtQtQtQtQtQt.V.W.XQtQtQtQtQtQtQtQtQtQtQtQtQtQtQtQtQtQt",
"QtQtQtQtQtQtQtQtQtQtQtQtQtQtQtQtQtQt.Y.g.ZQtQtQtQtQtQtQt.g.g.g.0.1.2.3.g.4.5.6.7.8.9#.###a#bQtQtQtQtQtQtQtQtQtQtQtQtQtQtQtQtQtQt",
"QtQtQtQtQtQtQtQtQtQtQtQtQtQtQtQtQtQt.v.g.a.ZQt.g#cQt#dQt#e.g#f#g#h#i#j#k#l#d#m#n#f#o#p#q#r#sQtQtQtQtQtQtQtQtQtQtQtQtQtQtQtQtQtQt",
"QtQtQtQtQtQtQtQtQtQtQtQtQtQtQtQtQtQtQt#t#u.aQt#v#w#x#d#y.g.g#z#A#i#i#B#C#D#E#F#G#H#I#J#K#L#MQtQtQtQtQtQtQtQtQtQtQtQtQtQtQtQtQtQt",
"QtQtQtQtQtQtQtQtQtQtQtQtQtQtQtQtQtQtQtQtQtQtQt#N.g#w#O#P#w#Q#R.Y#S#i#T#U#V#O#W#X#Y#ZQt#0QtQtQtQtQtQtQtQtQtQtQtQtQtQtQtQtQtQtQtQt",
"QtQtQtQtQtQtQtQtQtQtQtQtQtQtQtQtQtQtQtQt.aQtQt.h.g.g.g#w#w#1#2#i#S#3#4#5#6#7#8#9a.a#aa.aabQtQtQtQtQtQtQtQtQtQtQtQtQtQtQtQtQtQtQt",
"QtQtQtQtQtQtQtQtQtQtQtQtQtQtQtQtQtQtQtQt.a.aQtQtac#d#w.gadaeafag#Sahaeai.g#U#4ajakalamanaoapQtQtQtQtQtQtQtQtQtQtQtQtQtQtQtQtQtQt",
"QtQtQtQtQtQtQtQtQtQtQtQtQtQtQtQtQtQtaqQtaras.gQt.Gatau#wav#zawaxayazaAaB#WaCaDaEaFaGaHaI.eaJQtQtQtQtQtQtQtQtQtQtQtQtQtQtQtQtQtQt",
"QtQtQtQtQtQtQtQtQtQtQtQtQtQtQtQtQt.g.g.vaKaL.g.g.gaMae.GaNaOaPaQaQaRaSaTaUaVaWaXaY.gaZa0a1a2QtQtQtQtQtQtQtQtQtQtQtQtQtQtQtQtQtQt",
"QtQtQtQtQtQtQtQtQtQtQtQtQtQtQtQtQtQta3.gQt.a.g#d.ga4aeaeafa5a6a7aQa8a9b.b#aea4#vbabbbcbdbebfQtQtQtQtQtQtQtQtQtQtQtQtQtQtQtQtQtQt",
"QtQtQtQtQtQtQtQtQtQtQtQtQtQtQtQtQtQtQtQtQtbgbhbi.gbjaMbkafa6a6blbma6bnbobpbqbrbsbtaYbubvQtbwQtQtQtQtQtQtQtQtQtQtQtQtQtQtQtQtQtQt",
"QtQtQtQtQtQtQtQtQtQtQtQtQtQtQtQtQtQt.gQtQtbxbhbybz.gaebAbBbCa6blblbDbnbEbAbqaXaebFbGbHbIbJ.MQtQtQtQtQtQtQtQtQtQtQtQtQtQtQtQtQtQt",
"QtQtQtQtQtQtQtQtQtQtQtQtQtQtQtQtQtQtQt.gbgQtbh.gaeaeaebAa6bKbLblblbMbNbObPbQbRaWaXbhbSbT#vbUQtQtQtQtQtQtQtQtQtQtQtQtQtQtQtQtQtQt",
"QtQtQtQtQtQtQtQtQtQtQtQtQtQtQtQtQtQtQtbVbW.a.g.gaebCa5a6bXbYbZblblb0bYb1b2b3b4b5aX.gb6b7b8b9QtQtQtQtQtQtQtQtQtQtQtQtQtQtQtQtQtQt",
"QtQtQtQtQtQtQtQtQtQtQtQtQtQtQtQtQtQtQtc.c#.aca.gcbcca6cdbZcecfblblcgchcicjckclcmaXcncocpcq.eQtQtQtQtQtQtQtQtQtQtQtQtQtQtQtQtQtQt",
"QtQtQtQtQtQtQtQtQtQtQtQtQtQtQtQtQtQtQtQtcr.acscactcucvcvcfcecwblcxcyczcAcBcCcDcEcFcscGcHcIcJQtQtQtQtQtQtQtQtQtQtQtQtQtQtQtQtQtQt",
"QtQtQtQtQtQtQtQtQtQtQtQtQtQtQtQtQtQtcKcLcMcNcs.g#daecOcPcQcRcSblcTcScUcVcWcXcYcZc0c1c2c3c4c5QtQtQtQtQtQtQtQtQtQtQtQtQtQtQtQtQtQt",
"QtQtQtQtQtQtQtQtQtQtQtQtQtQtQtQtQtQtQtc6c7.ac8clc9bAd.cOcQcQd#dadbd#cQcQdcdddedfdgdhdidjdkdlQtQtQtQtQtQtQtQtQtQtQtQtQtQtQtQtQtQt",
"QtQtQtQtQtQtQtQtQtQtQtQtQtQtQtQtQtQtQtQtcraL#2dmccdndodpdqdrdsdtdudsdrdvdwdxdydzdAdBdCdDdEQtQtQtQtQtQtQtQtQtQtQtQtQtQtQtQtQtQtQt",
"QtQtQtQtQtQtQtQtQtQtQtQtQtQtQtQtQtQtQtQtaKas#wdmdFdGbLdHdGdIdsdtdJd#dIdKdLbMdFdMdNdOdPdQdRQtQtQtQtQtQtQtQtQtQtQtQtQtQtQtQtQtQtQt",
"QtQtQtQtQtQtQtQtQtQtQtQtQtQtQtQtQtQtQtQtQtdS#kbYdTdFdUdVbZcfdWdadXdYdZd0d1d2dFd3d4d5d6#MQtQtQtQtQtQtQtQtQtQtQtQtQtQtQtQtQtQtQtQt",
"QtQtQtQtQtQtQtQtQtQtQtQtQtQtQtQtQtQtQtQtQtd7.gd8d9dFdFe.cfcwcwdae#cwcwcye.eadFebecedeeefQtQtQtQtQtQtQtQtQtQtQtQtQtQtQtQtQtQtQtQt",
"QtQtQtQtQtQtQtQtQtQtQtQtQtQtQtQtQtQtQtQtQtQt#t.gegdmeheiejcAdrdadJdrcAejekelemeneoepeqQtQtQtQtQtQtQtQtQtQtQtQtQtQtQtQtQtQtQtQtQt",
"QtQtQtQtQtQtQtQtQtQtQtQtQtQtQtQtQtQtQtQtQtQt.vereseteuevewejdrdaexdreyewezeAeBeCeDeEeFQtQtQtQtQtQtQtQtQtQtQtQtQtQtQtQtQtQtQtQtQt",
"QtQtQtQtQtQtQtQtQtQtQtQtQtQtQtQtQtQtQtQtQtQtQteGeH.geIeJevejcfdaeKcweLevcAeMeNeOePbdQtQtQtQtQtQtQtQtQtQtQtQtQtQtQtQtQtQtQtQtQtQt",
"QtQtQtQtQtQtQtQtQtQtQtQtQtQtQtQtQtQtQtQtQtQtQtQteQ.g.geReJcAcfdaeSeTeUeVeWeXeYeZQtQtQtQtQtQtQtQtQtQtQtQtQtQtQtQtQtQtQtQtQtQtQtQt",
"QtQtQtQtQtQtQtQtQtQtQtQtQtQtQtQtQtQtQtQtQtQtQtQtQtQte0e1e2e3e4e5e6e7e8e9f.f#fafbQtQtQtQtQtQtQtQtQtQtQtQtQtQtQtQtQtQtQtQtQtQtQtQt",
"QtQtQtQtQtQtQtQtQtQtQtQtQtQtQtQtQtQtQtQtQtQtQtQtQtQtQtQtQtQtQtQtQtQtQtQtQtQtQtQtQtQtQtQtQtQtQtQtQtQtQtQtQtQtQtQtQtQtQtQtQtQtQtQt",
"QtQtQtQtQtQtQtQtQtQtQtQtQtQtQtQtQtQtQtQtQtQtQtQtQtQtQtQtQtQtQtQtQtQtQtQtQtQtQtQtQtQtQtQtQtQtQtQtQtQtQtQtQtQtQtQtQtQtQtQtQtQtQtQt",
"QtQtQtQtQtQtQtQtQtQtQtQtQtQtQtQtQtQtQtQtQtQtQtQtQtQtQtQtQtQtQtQtQtQtQtQtQtQtQtQtQtQtQtQtQtQtQtQtQtQtQtQtQtQtQtQtQtQtQtQtQtQtQtQt",
"QtQtQtQtQtQtQtQtQtQtQtQtQtQtQtQtQtQtQtQtQtQtQtQtQtQtQtQtQtQtQtQtQtQtQtQtQtQtQtQtQtQtQtQtQtQtQtQtQtQtQtQtQtQtQtQtQtQtQtQtQtQtQtQt",
"QtQtQtQtQtQtQtQtQtQtQtQtQtQtQtQtQtQtQtQtQtQtQtQtQtQtQtQtQtQtQtQtQtQtQtQtQtQtQtQtQtQtQtQtQtQtQtQtQtQtQtQtQtQtQtQtQtQtQtQtQtQtQtQt",
"QtQtQtQtQtQtQtQtQtQtQtQtQtQtQtQtQtQtQtQtQtQtQtQtQtQtQtQtQtQtQtQtQtQtQtQtQtQtQtQtQtQtQtQtQtQtQtQtQtQtQtQtQtQtQtQtQtQtQtQtQtQtQtQt",
"QtQtQtQtQtQtQtQtQtQtQtQtQtQtQtQtQtQtQtQtQtQtQtQtQtQtQtQtQtQtQtQtQtQtQtQtQtQtQtQtQtQtQtQtQtQtQtQtQtQtQtQtQtQtQtQtQtQtQtQtQtQtQtQt",
"QtQtQtQtQtQtQtQtQtQtQtQtQtQtQtQtQtQtQtQtQtQtQtQtQtQtQtQtQtQtQtQtQtQtQtQtQtQtQtQtQtQtQtQtQtQtQtQtQtQtQtQtQtQtQtQtQtQtQtQtQtQtQtQt",
"QtQtQtQtQtQtQtQtQtQtQtQtQtQtQtQtQtQtQtQtQtQtQtQtQtQtQtQtQtQtQtQtQtQtQtQtQtQtQtQtQtQtQtQtQtQtQtQtQtQtQtQtQtQtQtQtQtQtQtQtQtQtQtQt",
"QtQtQtQtQtQtQtQtQtQtQtQtQtQtQtQtQtQtQtQtQtQtQtQtQtQtQtQtQtQtQtQtQtQtQtQtQtQtQtQtQtQtQtQtQtQtQtQtQtQtQtQtQtQtQtQtQtQtQtQtQtQtQtQt",
"QtQtQtQtQtQtQtQtQtQtQtQtQtQtQtQtQtQtQtQtQtQtQtQtQtQtQtQtQtQtQtQtQtQtQtQtQtQtQtQtQtQtQtQtQtQtQtQtQtQtQtQtQtQtQtQtQtQtQtQtQtQtQtQt",
"QtQtQtQtQtQtQtQtQtQtQtQtQtQtQtQtQtQtQtQtQtQtQtQtQtQtQtQtQtQtQtQtQtQtQtQtQtQtQtQtQtQtQtQtQtQtQtQtQtQtQtQtQtQtQtQtQtQtQtQtQtQtQtQt",
"QtQtQtQtQtQtQtQtQtQtQtQtQtQtQtQtQtQtQtQtQtQtQtQtQtQtQtQtQtQtQtQtQtQtQtQtQtQtQtQtQtQtQtQtQtQtQtQtQtQtQtQtQtQtQtQtQtQtQtQtQtQtQtQt",
"QtQtQtQtQtQtQtQtQtQtQtQtQtQtQtQtQtQtQtQtQtQtQtQtQtQtQtQtQtQtQtQtQtQtQtQtQtQtQtQtQtQtQtQtQtQtQtQtQtQtQtQtQtQtQtQtQtQtQtQtQtQtQtQt"};
