/* XPM */
static char *dummy[]={
"64 64 458 2",
".N c #191b1c",
"eU c #3d3333",
"#6 c #a98b78",
"ai c #ad8e7b",
"fg c #4e3f3d",
"aP c #ae8e7b",
"e9 c #715851",
"a1 c #b08f7d",
"fe c #423736",
"#M c #a98b79",
"bd c #b59481",
"#7 c #b79883",
"e8 c #4b3c3b",
"eZ c #4d3e3d",
"fh c #725952",
"dB c #765c55",
"aj c #b2937f",
"#N c #b79782",
"bo c #b89783",
"e6 c #443837",
"eX c #4b3d3c",
"dG c #775c55",
"dO c #795e56",
"aA c #ad8e7b",
"ds c #785d56",
"dS c #7c6058",
"aQ c #ab8d7a",
"a2 c #ad8f7b",
"be c #af907c",
"by c #b69782",
"e5 c #1b1c1d",
".j c #1f2021",
".B c #242424",
"fd c #463938",
"eV c #4b3c3b",
"e7 c #4c3d3c",
"f. c #735a52",
"e1 c #7c6057",
"fb c #7c6058",
"dX c #7d6159",
".M c #181b1c",
".G c #191b1c",
"fa c #1a1c1c",
"f# c #1a1c1d",
".K c #1c1d1f",
".l c #1d1e1f",
"ei c #1e1f20",
"bW c #202121",
"eW c #4c3d3c",
"e4 c #795e55",
"dp c #7b5f57",
"e0 c #7b6057",
"e2 c #7d6158",
"bp c #af917e",
"#8 c #b79883",
".H c #191b1c",
".I c #1a1b1c",
".F c #1a1b1d",
".D c #1a1c1d",
"fc c #1b1d1d",
"ed c #1c1d1e",
"ec c #1d1e1e",
".E c #1d1e1f",
".C c #1e1f20",
"Qt c #202021",
"dt c #212121",
"#A c #222222",
"ff c #4b3d3c",
"eY c #4c3d3c",
"eA c #7b5f57",
"e3 c #7c6057",
"dn c #7c6058",
"#d c #a78b78",
"#o c #b1927f",
"ak c #b2937f",
"#C c #b29380",
"bE c #b59581",
"#O c #b79682",
"#9 c #b79783",
"c# c #17191b",
".h c #181a1b",
".L c #181b1c",
".i c #191a1c",
".g c #191b1c",
"eb c #191c1c",
"bY c #1a1b1c",
"cd c #1a1c1c",
"bv c #1a1c1d",
".J c #1b1c1d",
"a9 c #1b1d1d",
"bT c #1b1d1e",
"ef c #1c1d1d",
".k c #1c1d1e",
"bQ c #1c1e1e",
".f c #1c1e1f",
"cs c #1d1d1e",
".c c #1d1e1e",
".b c #1d1e1f",
"bC c #1d1f1f",
"bZ c #1d1f20",
"eh c #1e1e1e",
".e c #1e1e1f",
"bU c #1e1f1f",
".a c #1e1f20",
"eF c #1e201f",
"eo c #1e2020",
"dl c #1f1f1f",
".d c #1f1f20",
"#H c #1f2020",
".# c #1f2021",
"bV c #1f2121",
"ee c #201f20",
"bX c #202020",
".m c #202021",
".y c #202121",
"aC c #202122",
"d1 c #212020",
"cN c #212021",
"eE c #212120",
".x c #212121",
".w c #212122",
".A c #212222",
"bu c #222121",
"c3 c #222122",
".v c #222222",
".o c #222223",
".n c #222323",
"dm c #232122",
".6 c #232222",
"#s c #232223",
"ea c #232322",
".q c #232323",
".p c #232324",
"dI c #242222",
"#4 c #242323",
".r c #242423",
"aw c #242424",
"b0 c #252323",
"cX c #252324",
".s c #252424",
"dH c #262424",
"dJ c #262425",
"aL c #262524",
".t c #262525",
"dY c #272625",
".z c #272626",
"dq c #282626",
"aW c #282726",
"ex c #292626",
"d3 c #2b2827",
".u c #2b2928",
"dK c #302c2b",
"d5 c #3a3231",
"cc c #3e3433",
"dz c #3f3434",
"d7 c #413534",
"eG c #413535",
"et c #413635",
"d9 c #413636",
"d8 c #423635",
"d6 c #423636",
"do c #423736",
"dg c #433736",
"dr c #433837",
"c4 c #443837",
"dy c #443838",
"dA c #443938",
"cl c #453837",
"b4 c #453838",
"cQ c #453938",
"dh c #453939",
"ew c #453a39",
"c8 c #463938",
"cU c #463939",
"dQ c #463a39",
"dc c #473938",
"c0 c #473939",
"b1 c #473a39",
"cS c #473a3a",
"dk c #473b3a",
"dM c #483939",
"c7 c #483a39",
"cR c #483a3a",
"cJ c #483a3b",
"du c #483b39",
"cI c #483b3a",
"cH c #483b3b",
"dv c #483c3b",
"eg c #493a3a",
"ca c #493b3a",
"cn c #493b3b",
"cm c #493c3b",
"c1 c #493d3c",
"dV c #4a3b3a",
"cV c #4a3b3b",
"b3 c #4a3c3b",
"cC c #4a3c3c",
"cT c #4a3d3c",
"b2 c #4b3c3b",
"c5 c #4b3c3c",
"dN c #4b3d3b",
"cb c #4b3d3c",
"b5 c #4c3d3c",
"eQ c #4c3e3d",
"es c #4c3f3d",
"db c #4d3d3c",
"dF c #4d3e3c",
"cw c #4d3e3d",
"el c #4d3f3c",
"ct c #4e3e3d",
"en c #4e3e3e",
"d# c #4e3f3d",
"cA c #4e3f3e",
"da c #4f3f3d",
"cy c #4f3f3e",
"eK c #4f403e",
"eO c #4f403f",
"c2 c #50403e",
"di c #50403f",
"eJ c #50413e",
"dR c #50413f",
"cE c #51403f",
"cY c #51413f",
"eD c #514140",
"eu c #51423f",
"eI c #52413e",
"dd c #52413f",
"ey c #524140",
"cD c #524240",
"dZ c #524340",
"cW c #534240",
"eC c #534340",
"ez c #534341",
"d2 c #534441",
"dT c #544340",
"ek c #554341",
"cK c #554442",
"cr c #564441",
"dL c #564542",
"cZ c #5b4943",
"co c #5e4b46",
"c6 c #634f48",
"e. c #6a534d",
"c. c #6b544d",
"eR c #6d554f",
"e# c #6d564f",
"dW c #6e564f",
"cM c #6e574f",
"eT c #6f5750",
"eN c #6f5751",
"c9 c #705750",
"eP c #705751",
"cz c #705850",
"eL c #705851",
"eM c #715851",
"cg c #715951",
"eH c #725951",
"cB c #725952",
"ej c #725a52",
"df c #735952",
"d4 c #735a52",
"eq c #735a53",
"dD c #735b52",
"dP c #735b53",
"cL c #745a53",
"cP c #745b53",
"dC c #745b55",
"ck c #755b53",
"ev c #755b54",
"dU c #755c53",
"eB c #765b54",
"cF c #765c54",
"dw c #765c55",
"dj c #775b55",
"d0 c #775c54",
"cu c #775c55",
"ch c #775d54",
"b6 c #775d55",
"cq c #785d55",
"eS c #785d56",
"cG c #785e55",
"d. c #785e56",
"de c #795d56",
"cj c #795e55",
"ce c #795e56",
"cx c #795f56",
"dE c #7a5e56",
"b8 c #7a5f56",
"cO c #7a5f57",
"cp c #7b5f57",
"cf c #7b6057",
"dx c #7b6058",
"er c #7c5f57",
"b7 c #7c6057",
"cv c #7c6058",
"ci c #7c6158",
"em c #7d6058",
"b9 c #7d6158",
"ep c #806159",
"bA c #9a8070",
".R c #9b8171",
".Q c #9f8473",
".S c #9f8474",
".W c #9f8574",
".T c #a28675",
".5 c #a28676",
".V c #a28776",
".P c #a38776",
".O c #a48876",
".U c #a48877",
"br c #a88b79",
"bJ c #a88c79",
"#G c #a98d7a",
"#3 c #aa8c7a",
"aR c #aa8d7a",
"aH c #aa8e7b",
"aF c #ab8d79",
"aE c #ab8d7a",
"#k c #ab8d7b",
"aI c #ab8e7a",
"aG c #ab8e7b",
"#r c #ac8e7b",
".0 c #ac8e7c",
".1 c #ac8f7c",
"aB c #ad8e7b",
"a3 c #ad8f7b",
"aJ c #ad8f7c",
"a4 c #ad907c",
"aO c #ae907c",
"#m c #ae907d",
"a5 c #ae917d",
"as c #ae917e",
"aq c #af907c",
"ar c #af907d",
"bF c #af907e",
"at c #af917d",
".Z c #af917e",
"ap c #b0907d",
"a6 c #b0917d",
".X c #b0917e",
"#p c #b0927e",
"#K c #b0927f",
"#X c #b1917d",
"#Y c #b1917e",
"#Z c #b1927e",
"#D c #b1927f",
"#0 c #b19280",
"al c #b1937e",
"#5 c #b1937f",
"#W c #b2917e",
"az c #b2927f",
"#J c #b2937f",
"#l c #b29380",
"ac c #b3937f",
"bP c #b39380",
"#n c #b39480",
"#v c #b39481",
"ad c #b39482",
"ao c #b39581",
"bO c #b39683",
"ab c #b4937f",
"#V c #b49380",
"bz c #b49480",
"aT c #b49481",
"#E c #b49580",
".Y c #b49581",
"aa c #b59480",
"bt c #b59481",
"bj c #b59580",
".2 c #b59581",
"#x c #b59582",
"#F c #b59681",
"#q c #b59682",
"bc c #b59782",
"#Q c #b69681",
".3 c #b69682",
"#c c #b69683",
"a. c #b69782",
"#b c #b69783",
"bx c #b69883",
"#P c #b79782",
".4 c #b79783",
"#U c #b79784",
"au c #b79884",
"bf c #b89782",
"am c #b89783",
"#R c #b89883",
"## c #b89884",
"aS c #b89885",
"a# c #b89983",
"bD c #b89985",
"#j c #b89a87",
"aV c #b99884",
"aK c #b99984",
"ah c #b99985",
"bb c #b99a86",
"bS c #b99b87",
"aU c #ba9984",
"bq c #ba9985",
"bg c #ba9a85",
"ay c #ba9b87",
"#a c #ba9b88",
"aN c #ba9c88",
"ae c #bb9a86",
"a8 c #bb9b85",
"#S c #bb9b86",
"a0 c #bb9e89",
"#2 c #bc9b86",
"#1 c #bd9b86",
"av c #bd9c87",
"bN c #bda996",
"ag c #bf9d88",
"a7 c #c09f88",
"b. c #c0ad99",
"af c #c19f89",
"bk c #c2af9b",
"bM c #c4b09c",
"bK c #c5b19d",
"#e c #c7b39e",
"bR c #c7b39f",
"aX c #c8b49f",
"bH c #c8b4a0",
"b# c #c8b5a1",
"#h c #c9b49f",
"aM c #c9b59f",
"#T c #c9b5a0",
".7 c #cab5a0",
"#f c #cab5a1",
"#. c #cab6a1",
"bB c #cab6a2",
"aZ c #cab7a0",
"bs c #cab7a1",
"aD c #cbb5a0",
"bw c #cbb7a1",
"bL c #cbb7a2",
"ax c #ccb7a2",
"aY c #ccb8a2",
"bl c #ccb8a3",
"bm c #ccbaa5",
"an c #cdb6a1",
"#L c #cdb8a3",
"#B c #cdb9a3",
"#I c #ceb8a3",
"#g c #ceb9a3",
"#y c #ceb9a4",
"#z c #cebaa4",
"bI c #cfb9a3",
"#w c #cfbaa4",
".9 c #cfbaa5",
"bh c #cfbba5",
"#i c #d0bba5",
"#u c #d0bba6",
"#t c #d0bca6",
"bG c #d1b8a4",
".8 c #d1bca6",
"bi c #d2bca6",
"ba c #d3bda6",
"bn c #d8c3ab",
"Qt.#.#.#.#.a.a.a.a.a.b.b.b.c.b.a.a.a.a.a.a.d.a.e.a.a.a.a.a.f.g.h.h.i.a.a.a.a.a.a.a.a.a.a.a.a.a.a.a.j.k.k.k.k.k.k.k.k.f.a.b.k.k.l",
".#.#.#.#.#.m.n.o.#.p.q.q.q.q.r.s.t.u.v.w.x.y.m.m.#.a.z.w.a.#.#.a.a.a.A.q.p.A.w.n.w.A.o.t.A.m.w.q.B.C.f.D.E.F.G.H.I.c.J.C.K.L.M.N",
".O.P.Q.R.S.T.U.V.W.X.Y.Z.0.0.1.2.3.4.5.m.6.7.8.8.9#.##.4#a#b.4.4.3.3#c.4#b.4.4.3.3.3.3.4.4.3.4.4#d.a.w#e#f#g#h#i#j.2#k#l#m#n.3#o",
"#c.4.4.4.4.4.3#n#p#c.4.4.4#q.4.4.4.4#r.y#s.8.8#t#u.8.4.4##.4.4.4.4.4.4.4.4.4.4.4.4.4.4.4#b#v.4.4#lQt.y#w.8.8.8.8.4.4.4.4.4.4.4.4",
"#c#c#b#b#b#b.3.4.4.4.4#b.3#n#l#n#x.4.Q.#.n#i.8#y#z.8.4.4.4.4#b.4.4.4.4.4.4.4.4.4.4.4.4.4#l.4.4.4.Z#A.a#B.8.8#i.8.4.4.4.3#n#c.3#C",
".4.4.4.4.3#D#n#q.3.3.4.4.4.3#E#F.3.4#G#H.#.9.8.8.8#I.4.4##.3.4.4.4.4.3.2#n#J#J#D.X#m#K.4#c.Y.4.4.P.v.d#L.8.8.8.8##.4.4.4#c.4#D#M",
"#N#O.4.4.4#P.3.3.3#Q.3.4.4.4#R#S.4.4.1.#.##T.8.8.8.8.4.4#U#R#P#Q#V#W#X#Y#Z#Z#Z.X.X.X#0###1#2.4.4#3#4.d#y.8.8.8#i##.4.4.4#5.2#J#6",
"#7#8#9.4.4.4.4.4.4a.a.a..4.4.4.4.4.4.Z.y.##T.8.8.8.8.4.4.4##a##Qaaabacac#n#n#n#l#l#ladaeafag.4.4.0#4.d#u.8.8.8#wah.4.4.4#n.Y.2ai",
"aj#Jak#J#J#J#J#J#Jalalal#E.4.4am.4.4#n.y.##i.8.8.8an.4.4.4.4ao#5#Yapaqar.Z.Z.Z.Zasat#Kauav#2.4.4#maw.d#w.8#i#iaxay.4.4.4#laz.3ai",
"aAaBaBaBaBaBaBaBaB#r#r#r#m.4.4.4.4.4.Z.maC#u.8.8.8aD.4.4###qas.1#raEaFaEaGaGaGaGaHaIaJ#EaKaK.4.4#maL.##L.8.8#waMaN.4.4.4.ZaO.2aP",
"aQaEaEaEaEaEaEaEaEaRaRaR#r.3#R.4.3.4#p.#.y#u.8.8.8#i.4.4aS#qas.1#raEaEaEaGaGaGaGaH.ZaT#EaUaV.4.4#paWaCaX.8.8aYaZa0.4.4.4#Kaq.2a1",
"a2a3aJaJaJaJaOaOaOa4a4a5.Y.4ah##.3.4#m.a.a#w.8.8.8.8##.4##.4#v#D#Ya6a6a6#Z#Z#Z#Z#p#J.3#Ra7a8.4.4#l.xa9b..8#zb#babb.4.4.4bc#E.3bd",
"beaOatat#p#p#Daz#J#5#n.3.3bf##bg.4.4#l.m.yaY.8.8bhbi.4.4####.4.2bjbjbjbjbjbjbjbjbj#Qam#R#1ag.4.4#l.x.Jbk#iblbmbn##.4.4.4bgaK.4bo",
"bp#D#x.3.3.3#c.4.4.4.4.3.3#c#Rbq.2.4br#4#4#i.8.8bs.8.4.4ah.4aT#l#J#Z#Z#Z#Z#Z#Z#J#Z#JbtaU##aK.4.4.3bubvbw#i#ibh.8bb.4.4.4bxa.a.by",
".4.4.4.4.3.3.2.Y.2#xbzaT.2#q.4.4.3.4bA.#.y#u.8.8bB.9##.4.4#b.4.4.3.3.2#n#naT#q.4.4.3.2.2.3.4.4.4#c.xbC.7#y.8.8.8bD.4.4.3#n.2.3bE",
".4.4.4.4.4.4.4.4.4.4.4.4.4.4.4.4.4.4bF.#.w.8.8#i.8bGbD.4.4.4.4.4.4.4.4.4.4.4.4.4.4.4.4.4.4.4.4.4#q.daCbH.8#i.8bI.4.4.4.4.4.4.4.4",
"#m#v.3.2#x.3#v#l#D.0aJ#na5aT#v#m.3.4bJ.m.#bKbLbM#BbNbO.4.4#q#lbP.4.3#q.3.Y.Y.3.3#q.4.4.4.4.4.4.4aJ.dbQbR.8#t.8#ibS#c#c#l#l.Y.2#v",
".J.b.m.w.w.w.#.b.bbTbTbQbU#H.y.m.k.kbUbv.g.gbvaC.a.a.#.a.q.b.b.b.v.m.m.xbvbT.#.a.a.a.#.a.a.a.#.b.c.k.a.AbV.aaC.#.kbUbQ.a.a.a.abW",
".g.f.a.a.a.a.#.m.bbQbU.6.b.dbXbY.g.g.J.b.c.k.k.kbv.k.b.a.a.a.b.b.a.b.f.b.f.k.a.a.#.d.a.a.a.abZb0.e.gbT.kbvbvbv.JbT.k.d.a.a.a.fbv",
".gbvb1b2b3b4b2b5b5b1b6b7b8b8b9c.c#bYcacbb5b5cc.g.g.gcdcecfcgchcicg.g.gb3b5cbb2cab2cbcbb1cjcfcib9ckbT.dclcmcnb3b5b5b2b2cacocpb9cq",
".g.kb5b5b5b5b5b5b5b5cib7b7b8b9ci.JbTb5b5b2b5b5cd.g.g.bb9b9b8b8cicf.gcdb5b5b5b5b5b5b5b5b5b7b9b9b9cf.b.wcbb5b5b2b5b5cbb5b5crb8b9b9",
".gcsb5b5b5b5b5b5b5ctb7b7b7cfb9ch.cbXb5b5b3b5b5.J.g.g.Jb9b9cucfcvb7.kbUb5b5b3b3b3b5b2b5cwcqb9b6b9cx.fbTcab5b5cbb5b5b5b5b5b5cfb9b9",
".g.kb5b5b5b5b5b5b5cyb9b9b9b9b9cz.e.xb2b5cbb5b3.k.g.kbZb7b9cicib9cpbUbUb5b5b2b5cbb5b5b5cAceb9cvb9cB.J.gb5b5b5cab3b5b5b5cCcDcpb9b9",
".g.kb5b5b5b5b5b5b5cEb9b9b9b9b9cF.e.vb2b5b5b5ca.k.gbZ.wb8cib9b7b9cG#H.bb5b5b1cacHb2b5b5cyceb9b9b9cG.J.gcbb5b5cacIcJb3b5b2cKcLb9b9",
".g.eb5b5b5b5b5cbb5cEb9b9b9cib9cMa9cNb2b5b5b5b3b3b2b2b5cucOb9b9b9cP#HbQb5b5cQcRcScbb5b5cAceb9cvb9b9.J.gcacbb2cIcTcmcUcVb5cWcqb9b9",
".gcXb5b5b5b3cbcbb5cYb9b9b9cib9cZ.g.ab2b5b5b5b3b1b3cbcwb6cib9b9b9cB.#bTb5b5clc0c0cbb5b5cycOb9cfb9b9bY.kb5b5b5cbc1cmc0b3b5c2b9b9b9",
".gc3b5b5b3c4cIc5b5cEb9b9b9b9b9c6.g.eb5b5b2b5cbc7b5b5cwceb9b9b9b9cg.abQb3b5c8c0c0b5b5b5cYcvb9cpb9b9.gcNb5b5b5b5cbcbb2cab5cyb9b9b9",
".g.eb5b5b2cIcIb5b5cyb9b9cicib9c9.g.ecbb5b2b5b5b5b5b5cwd.b9b9b9b9cg#H.fcbb5c8c0c0b5cbb5d#cvb9cfb7b9.g.kcQb5cacacncIcUcIb5dab9b9b9",
".gbUb5b5b5b5b5b5b5cyb9b7b7cib9cp.gbUb5b5b2b5cbb2b5b5dbcqcib9b9b9cP.a.mb5b5c4dcc0b5b2b5cwb8b9cvcfb9.k.gbv.gbvbvbY.g.bb1b5d#b9b9b9",
".gbUb5b5b5b5b5b5b5ddcOdeb7b9b9ci.gcsb5b5cbcbb2b5b5b5b5dfcvb9b9b9cq.aaCb5b2dgdcb1b5b2b5b5b8cicicvb7.d.g.g.g.g.g.g.g.gdhb5ctb9b9b9",
".gbv.b.b.c.kcXc5b5dib8djcvb9b9ci.g.Jb5b5b2cIdkb5b5b5b5cucib9b9b9cjdldmb5cbdgdcb1b5b2b5b5cpb7cfb7d..k.g.g.g.g.gbv.g.gb4b5ctcvb9dn",
".g.g.g.g.gbYdmb1b5dicpcub9b9b9b9.e.Jb5b5c8c7b1b5b5b5dbcub9b9b9cvcFbv.eb5b5dodcb1b5b3b5b5b8cvcpb9b7bv.g.g.g.g.g.g.gbvcQb5ctcpb9dp",
"bYa9bvbvbv.g.vc8b5ddcpcub9b9b9b9dq.kb2b5c7cacIb5b5b5dbcFcvb9b9b7ckcdbvcbb5drdccIb5b3b5dbb7b9b9b9b9bv.g.Jbv.J.JbY.JcXcUb5cwcfb9ds",
"dt#HbQa9bvcd#Hdhb5ddcpceb9b9b9b9c3.kcbb5dub3dvcbb5b5dbdwcvdxb7cfcP.Jbvb2cbdyc7cab5b3b5ctcvcib7b9b9bv.gdzcab3cIcQdAc8cRb5cwb7cvdB",
"a9.c.g.g.g.g.cc4b5cWb8cOb9b9b9cv.vbUb3b5cbb2cbb5b5b5b5cPcxdCcxcfdD.abCb3b2dyb1cIb5b3b5cycpb7dEb9b9cd.gcbb5b5b5cbcbb5b5b5dFb7cvdG",
".g.ydHdHdIdJdKcIb5dLceb7b9b9b9cjdlbUcIb2b5b5cbb5b5b5b5chb9cvb9b9cF.a.ddMcacQb1cIb5b3b5b5cOcpdeb9b9bv.gb2b5b5b5dNb3cIcIb5dFb7b9dO",
".gbub5b5b5b5b3cab5cKb8b9b9b9b9dPcd.bcbb5b5b5b2b3b5b5b2cqb9b9b9b9cF.a.acRcadQcIcab5cVb5b5cicvcpb9b9bv.gb2b5b5b5b5b5cncIb5dRcqb9dS",
".g.vb5b5b2b2b3cIb5dTcpcvb9b9b9dU.g.bc0dVb5cbcac4c4cac8cFcfb9cib9dWbTbTb5b2b1cIcIcacSb5b5cib9b9cib9.g.gb5b5b5b5b5b5b3cIb5cKcqb9dX",
".gdYb5b5cVb3cVb3b5dZd0d0b7cucich.g.g.g.g.g.gbvbv.J.k.J.k.g.Jbv.ad1.gbvb5b2b1cIcIcac5b5dbb9b9b9b7b9cd.gb3b5b5cmcbcbcIcIb5d2cfcib9",
".gd3b5b5b5b5b5b5b5dNd4cvb9b8b9cfbv.g.d.Jcd.Jbv.k.b.bbv.dcs.g.g.gbv.ga9b5b2b1cIcIcbb5b5dbb9b9b9cGb9.g.kb3b5b5b5b5b5b5b5b5b5cib9b9",
".g.sd5d6d7d8d9drcIc8e.b9b9b9b9b8bvbvb2cac8b3cab1cab5b1cFe#.g.g.g.g.g.eb5b3c7cIcRb5b5b5b5cib9b9cjb9bv.bb3b5b5b5b5b5b5b5b5b1b6cfcv",
".g.g.gcdbvbv.J.J.k.e.mdH.6bvbvea.ga9b5b5cbb5b5cbb5b5b5b9b9bv.geb.g.g.kb5cacacIcRb5b5b5b5b9b9b9dEb9.m.gbv.e.b.d.dbXbXbX.d.k.g.kec",
"ed.c.c.c.b.ecNeebX.k.k.d.kcdcdbT.gefb5b5cmb5cbb5b5b5b5b9b9.g.g.g.g.Jc3b5cadVcIegb5b5b5b5b9b9b9cpb9.b.gbU.bbT.k.k.k.k.k.keh.x.xei",
".gbUb1b2cbb5cbb2b5c4b8b9b8cfb9ejbT.db5b5b2b5cwctb5b5ekcici.k.g.g.k.bcNb5b2b3dvcnb5b5b5b5b9cvb9b9b9.k.dcab3b2b2cab1c4c4cRdrcib9b8",
".g.kc7b5b2b2b5cbb5cab7b9b9b9b9b9bZ.bb5cbc5b5cwb5b5b5elb9b9b7b7b9cF.a.Jb5b5b2cTc5b5cbb5cwb9b7emb9b9.k.gb5b5b5b5b5b5b5b5b5b2b9b9b9",
".gbTc4b5cab5b5cbcbcbb9b9cvcjb9cibU.kcbb5cbb5b5b5b5b5encOb9b9b9b9cjeobTb2b5b2cbc5b5b2b5cyb9cvepb9b9.b.gb3b5b2cbb5b5b2b1cbcIcib9b7",
".g.kdAb5b5b5b5b3b5cwcib9b9ceb9cf#H.kc5b5cbcbcbb5b5b5dieqcOb9b7b9cGbU.fb3cbb3cTb5b5cIb3ctcib7erb9b9.e.gb3b5b5b5b5b5b5cbcmescfb9b9",
".g.ketb5b5b5b5cIb5cwb6b9b9b7b9cebX.kb2b5cbc5b5b5b5b5euevcfb9cvb9cpbU.fb2b5b2cbcbb5ewcacwb9b9b9b9b9.kbvb5b5b5b5b5b5b5b5cmdZcfb9b9",
".g.gbva9.k.bexcab5cwd.b9b9cib9cqbXbTcab5cbc5b5b5b5b5eyckcfb9cib9b7bUbTb2b5b5b5b5b5b5b5b3b7b9b9b7b9.k.JcQb3cmcQdAcQb2b5cmezcfb9eA",
".g.g.g.g.g.gbXb5b5cycub9b9b9b9cG.defb3b5b2b2b5cbb5b5cWcFb8b9b7b9cv.J.gdgb5b5b5b5cbb5b5docFb9b9cib8bY.gbYbv.J.J.g.dc5b5cmezb7b9cv",
"bQbvbvef.J.g.xb5b5cyeBb9b9b9b9cG.b.kb3b5c7b2b5b2b5cbeCevdecvcib9b9bv.gbT.JbUbXbubX.aeobUdH#4bX.b.m.g.g.g.g.g.g.g.gc5b5caezb7b9b9",
".g.g.g.g.g.gdmb2b5eDevb9b9cib9cj.c.ccab5dQdVcbcbb5cbcWckcqdecOb9b9.J.gbv.gbv.g.ga9.k.dc3bT.bdIeEeF.g.g.g.g.d.dbv.bb2b5cIeCcfb9b9",
"bvbveGb5b5b5b3cbc5cYckb9b9b9b9cx.k.cc7b5c8cab3cbcbcbcWcLcqcud.b9b7bU.gbv.gbv.g.gb3b5b5b2eHcib9cicF.gbvcUb5b5b5b2b3b3cnb1eCb8b9b9",
".g.cc7b5b5b5b5b5cbcEcLb9b9b9b9cz.Jcsc0b5b4cab3cbc5c5cDckcqcvb7b9b8ee.gbv.g.g.g.gb3b5b5b5b8b9b9b9b8.g.Jcab5b5b5b5b5b3drb1cDcxb9b9",
".g.db5b5b5b5c5c0cbdieqb9b9b9b9eHbQa9b1b5c8cab2cbc5c5eIckcjb9b9b9b8.xbv.g.g.g.g.gb5cbb5b5b9b9cvb9b8.gbTcab3cacadcdQcQcQcIcYceb9b9",
".g.db5b5b5b5b5cIb5dicBb9b9b9b9ck.c.cc7b5c0cacbcbc5c5eJcLcOb9b9b9cGbU.b.a.a.a.abvb5b5b5cwb9b9b9b9b8.g.kb2b5cab2cab3dkcQcRcYceb9b9",
".g.db5b5b5b5b5b5b5eKeLb9b9b9b9ej.c.cb3b5b1cab5b3cbb2eJeMcicvb9b9d0bv.J.a.#.a.b.wb5b5b5d#b9b9b9b9cF.e.xb2b5b3b5b2cbcIcUcIcEceb9b9",
".g.ab5b5b5b5b5b5b5eKeLb9b9cvb9d4.e.kb2b5c7cab5b3cbcaddcFb9b7b9b9d4bv.ccab5b5b5dhb5b5b5cwb9b9b9b9b6.J.JcUb5b5b5cbb2dkcUcSdiceb9b9",
".g.eb5b5b5b5b5b5b5d#eLb9b9b7b9cF.a.kb2b5c7b3b5cab5cbddcqb9cfb9b9cPbvbXb5b5b5b5b5cbb5b5cwcfb9cvb7b8bY.gc4b5b3b5b2b2dkcUcSdicqb9b9",
".g.bb5b5b5b5b5b5b5d#eNb9b9cvb9cq.m.Jb2b5cab5b5cab5b5c2ceb9dEb9b9b8.k.gb5b5b2b5cbb5b5b5dFb7b9cvcvb8.g.gcab5cab5b5b5cIcUcSeOeLb9b9",
".g.bcbb5b5b5b5b5b5cwePb9b9b9b9ce.va9b2b5b3b5cbb5b5b5cwb8b9cqb9b9b8.mbYcab5cab5eQb5b5b5dFcvcicvb9cjcd.eb5b5cbb5b5b5b3c0cSeOeRb9b9",
".g.bb3b5b5b5b5b5b5dFeqb9b9b9b9b8.xa9b2b5b3b5b5b5b5b5dFcfb9eScib9cv.dbvb5b5cab5b5b5b5b5ddb9b9b9b9ce.g.dcbb5b2b5b5cbc5c0cRdieTb9b9",
".g.kcab5b5b5b5b5b5cwcqb9b9cib9cp#H.Jb2b5b2b5b5cbb5b5b5cpb9b9b9b9cebv.gb5b5b5b5b5b5b5b5dFcib9b9b9b7bv.gcab5cab5cbb2b5cRc5daeMb9b9",
".g.DeUeVb5eWeXeYb5eZe0e1e2e1e3e4e5.He6b5eYb5e7e8b5b5eWe9dnb9b9b9f.f#fab5b5b5eYeWb5b5b5eZb9b9fbb9eAfc.Dfdb5feffeWeYb5eYb5fgfhb9b9"};
