/* XPM */
static char *dummy[]={
"64 64 517 2",
"eM c #a78b78",
"eH c #a88a78",
"ey c #a98b79",
"eN c #a78978",
"eu c #ab8d7a",
"en c #ac8e7b",
"eV c #ac8d7b",
"d5 c #ac8e7b",
"f. c #b99985",
"eQ c #a88b79",
"dW c #ac8e7b",
"eZ c #af907e",
"e4 c #b59682",
"e7 c #b79783",
"dL c #ac8e7b",
"e2 c #b2937f",
"e3 c #b39481",
"dC c #ad8e7b",
"dx c #ae8e7b",
"dn c #ae8e7b",
"ff c #bc9a86",
"db c #af8e7c",
"c3 c #b08f7d",
"cR c #b1907e",
"cF c #b2917f",
"cx c #b49380",
"cj c #b69581",
"b8 c #b79682",
"bP c #b89783",
"bC c #b79783",
"bo c #b79782",
"bf c #b69782",
"a4 c #b59681",
"aQ c #b59581",
"gc c #1e1f20",
"aK c #b69682",
"aA c #b79682",
"aq c #b79783",
"ag c #b99984",
"#Y c #bf9d89",
"Qt c #1e1f20",
"gb c #1e1f20",
"ga c #1e1f20",
"g# c #1e1f20",
"fw c #b79783",
".d c #1e1f20",
".c c #1e1f20",
".e c #1e1f20",
"#u c #b99984",
".f c #1e1f20",
".b c #1e1f20",
".g c #1e1f20",
"fZ c #212122",
"fY c #222222",
"eb c #b59682",
"fE c #b69683",
"em c #b79883",
".a c #1e1f20",
".G c #1f1f20",
"f0 c #202122",
"fX c #212222",
".F c #262525",
".E c #282727",
".z c #2b2929",
".D c #2d2b2a",
".C c #2f2c2b",
".A c #322f2d",
"dV c #b1927e",
"d4 c #b39480",
"ea c #b59682",
"fG c #b69682",
"eF c #b79682",
"el c #b79783",
".# c #1e1f20",
".x c #1f1f20",
".q c #1f2020",
".p c #1f2021",
"at c #202021",
"#q c #202121",
".y c #202122",
".o c #212122",
".2 c #212222",
"bU c #212223",
".l c #222222",
".k c #222223",
"ax c #222323",
".j c #232323",
"cW c #232324",
"#S c #232424",
"fv c #242323",
"g. c #242324",
".v c #242424",
"fl c #242425",
"fD c #242526",
".t c #252425",
"am c #252525",
"aw c #252626",
".m c #262525",
"f1 c #262625",
"ew c #262626",
"fu c #262627",
"eT c #272625",
"eP c #272626",
"aH c #272627",
"eW c #272727",
"eL c #282626",
"#E c #282726",
".n c #282727",
"aU c #282827",
"eI c #282828",
".u c #292727",
"ek c #292827",
"e# c #292828",
"aT c #292928",
"ej c #292929",
".w c #2a2827",
"dT c #2a2927",
"dK c #2a2928",
"#d c #2a2a29",
".i c #2b2928",
"f9 c #2b2929",
"dm c #2b2a28",
"aO c #2b2a29",
"dA c #2b2a2a",
"dl c #2b2b2a",
"da c #2c2a28",
".s c #2c2a29",
"a0 c #2c2b2a",
"d# c #2c2b2b",
"ct c #2d2a29",
"a1 c #2d2a2a",
"c1 c #2d2b2b",
"bX c #2d2c2b",
"bL c #2d2c2c",
"bz c #2d2d2c",
".B c #2e2b2a",
"bl c #2e2c2a",
"f8 c #2e2c2b",
"bd c #2e2d2c",
".h c #2f2c2b",
"bA c #2f2d2b",
".r c #302d2b",
"f7 c #302d2c",
"f6 c #312e2c",
"f5 c #332f2d",
"f3 c #34302e",
"f4 c #35312f",
".Q c #3a3836",
"f2 c #3b3533",
"d7 c #967d6e",
".4 c #977e6e",
"dG c #987e6f",
".3 c #987f6f",
"dy c #997f70",
"dZ c #9b8171",
"eq c #9c8171",
"ex c #9c8172",
"de c #9c8272",
"dP c #9d8372",
"dq c #9e8373",
".1 c #a09181",
".X c #a28979",
"aE c #a38776",
"bj c #a48877",
"ez c #a58877",
"aX c #a58977",
".P c #a59585",
"au c #a68978",
"aj c #a68a78",
"ca c #a78a79",
".U c #a88c79",
".9 c #a88c7a",
"fV c #a98c7a",
"#. c #a98d7b",
"dg c #a98e7b",
"eJ c #aa8c7a",
"dh c #aa8d79",
"c2 c #aa8d7a",
"fO c #aa8d7b",
"cP c #aa8e7b",
"dt c #ab8d79",
"cQ c #ab8d7a",
"dv c #ab8d7b",
"ds c #ab8e7a",
"cD c #ab8e7b",
"fz c #ab8e7c",
"di c #ab8f7c",
"cY c #ac8d7a",
"dw c #ac8d7b",
"cX c #ac8e7b",
".W c #ac8e7c",
"df c #ac8f7b",
"cE c #ac8f7c",
"cC c #ac907b",
"cu c #ac907c",
"dj c #ac917e",
"fI c #ac9c8b",
"dH c #ad8e7a",
"cK c #ad8e7b",
"ch c #ad8f7b",
"cw c #ad8f7c",
"cg c #ad8f7d",
"ci c #ad907b",
"cv c #ad907c",
"dQ c #ad907d",
"#s c #ad917e",
"dI c #ae8e7b",
"dB c #ae8f7b",
"cL c #ae8f7c",
"fR c #ae8f7d",
"b1 c #ae907c",
"bn c #ae907d",
"c8 c #ae907e",
"bN c #ae917c",
"ce c #ae917d",
"c9 c #ae917e",
"dJ c #af8f7c",
"b2 c #af907c",
"bO c #af907d",
".8 c #af907e",
"cf c #af917c",
"b0 c #af917d",
"#4 c #af917e",
"cd c #af927d",
".O c #af9e8c",
".0 c #af9e8d",
"d0 c #b0907c",
"dR c #b0907d",
"cO c #b0907e",
"cS c #b0917c",
"cr c #b0917d",
"bm c #b0917e",
"dU c #b0927d",
"bM c #b0927e",
".5 c #b0927f",
"fS c #b09380",
"d1 c #b1907d",
"d9 c #b1917d",
"bZ c #b1917e",
"b. c #b1927e",
".T c #b1927f",
"dN c #b19280",
"b# c #b1937f",
"cB c #b19380",
".Z c #b19f8e",
"dM c #b2917e",
"eh c #b2927e",
"a8 c #b2927f",
"c7 c #b29280",
"bv c #b2937e",
"## c #b2937f",
"#r c #b29380",
"eK c #b29381",
"cc c #b2947f",
"a9 c #b29480",
"ba c #b29481",
"e. c #b3927f",
"bx c #b3937e",
"bw c #b3937f",
"aZ c #b39380",
"bu c #b3947f",
".S c #b39480",
"#j c #b39481",
"eA c #b39482",
"eX c #b39580",
"aV c #b39581",
"eg c #b39582",
"#p c #b39784",
"es c #b4937f",
"ei c #b49380",
"bJ c #b4947f",
"aP c #b49480",
".6 c #b49481",
"b7 c #b49580",
".7 c #b49581",
"#h c #b49582",
"er c #b49583",
"eU c #b49680",
"d2 c #b49681",
"cZ c #b49682",
"fT c #b49985",
"fH c #b4a18f",
".Y c #b4a390",
"bK c #b5947f",
"ec c #b59480",
"aY c #b59481",
"bI c #b59580",
".H c #b59581",
".V c #b59582",
"a3 c #b59583",
"dr c #b59680",
"a5 c #b59681",
"#g c #b59682",
"be c #b59683",
"a2 c #b59783",
"fK c #b5a491",
"bb c #b69581",
"aL c #b69582",
"bW c #b69681",
".I c #b69682",
".K c #b69683",
"ay c #b69782",
".J c #b69783",
"ck c #b69882",
"bg c #b69883",
"cN c #b79582",
"aB c #b79682",
"bB c #b79683",
"aI c #b79781",
"az c #b79782",
".R c #b79783",
"eC c #b79784",
"eG c #b79882",
"bp c #b79883",
"ap c #b79884",
"bq c #b79984",
"bi c #b7a692",
"bY c #b89782",
"aJ c #b89783",
"ao c #b89784",
"eB c #b89882",
"#W c #b89883",
"#V c #b89884",
"cM c #b89885",
"b3 c #b89983",
"an c #b89984",
"cy c #b89985",
"fP c #b89d89",
"a7 c #b99883",
"#X c #b99884",
"cq c #b99983",
"ak c #b99984",
"#x c #b99985",
"bD c #b99a85",
"dD c #b99a86",
"cG c #b99a87",
"fU c #b9a795",
"fd c #ba9884",
"#v c #ba9984",
"#w c #ba9985",
"#M c #ba9a85",
"d8 c #ba9a86",
".L c #ba9b87",
"cT c #ba9b88",
"fJ c #ba9c88",
"#e c #ba9c89",
"fc c #bb9985",
"#L c #bb9a85",
"#y c #bb9a86",
"co c #bb9b85",
"af c #bb9b86",
"ef c #bb9b87",
"a6 c #bba996",
"bH c #bc9a85",
"#U c #bc9a86",
"fA c #bc9b85",
"#z c #bc9b86",
"#T c #bc9b87",
"#N c #bc9c86",
"#H c #bc9c87",
"bt c #bca996",
".N c #bcaa96",
"bV c #bd9b86",
"ad c #bd9b87",
"#J c #bd9c86",
"#I c #bd9c87",
"ae c #bd9c88",
"#P c #bd9e89",
"#a c #bda08c",
"#m c #bda18c",
"b6 c #bdaa97",
"aW c #bdaa98",
"#K c #be9c87",
"#G c #be9c88",
"ac c #be9d87",
"#F c #be9d88",
"fg c #be9d89",
"fr c #be9e88",
"fB c #be9e8a",
"fQ c #bea18d",
"bT c #beab98",
"ab c #bf9c88",
"#O c #bf9d88",
"cb c #bf9e87",
"#8 c #bf9e88",
"#i c #bfa48f",
"aR c #bfad99",
"#5 c #c09d89",
"#9 c #c09e88",
"#Z c #c09e89",
"#0 c #c09e8a",
"cp c #c09f88",
"ee c #c09f89",
"#1 c #c09f8a",
"fL c #c0a490",
"fF c #c0ac99",
"dd c #c0ad99",
"bG c #c0ad9a",
"#7 c #c19e89",
"fo c #c19e8a",
"#6 c #c19f89",
"fm c #c19f8a",
"#A c #c1a08a",
"fN c #c1ae9a",
"fn c #c29f8a",
"fp c #c2a08a",
"cJ c #c2ae9a",
"dF c #c2af9b",
"c# c #c3b09b",
"fq c #c4a38e",
".M c #c4b09b",
"c6 c #c4b09c",
"dp c #c4b19d",
"cV c #c5b29d",
"dY c #c6b29e",
"ep c #c6b39e",
"fW c #c7b29e",
"ev c #c7b39f",
"ai c #c7b49f",
"do c #c8b39d",
"dE c #c8b39e",
"dc c #c8b49d",
"aN c #c8b49f",
"c4 c #c8b59e",
"cA c #c8b5a1",
"dz c #c9b19c",
"dO c #c9b39e",
"as c #c9b5a0",
"cm c #c9b5a1",
"cU c #c9b69f",
"dS c #cab19c",
"du c #cab29d",
"dX c #cab49f",
"#k c #cab5a1",
"cI c #cab6a1",
"c. c #cab7a2",
"dk c #cbb39e",
"eS c #cbb49f",
"d6 c #cbb5a0",
"#Q c #cbb6a0",
"#3 c #cbb6a1",
"aD c #cbb7a2",
"d3 c #ccb39e",
"eO c #ccb4a0",
"fy c #ccb5a1",
"ed c #ccb6a0",
"cH c #ccb7a0",
"#D c #ccb7a2",
"#l c #ccb8a2",
"bS c #ccb8a3",
"b5 c #ccbaa5",
"d. c #cdb5a0",
"e1 c #cdb6a0",
"eo c #cdb6a1",
"ar c #cdb7a1",
"c5 c #cdb8a2",
"#f c #cdb8a3",
"fk c #cdb9a2",
"#o c #cdb9a3",
"aS c #cdb9a4",
"cn c #cdbaa4",
"bR c #cdbba5",
"c0 c #ceb7a1",
"eR c #ceb7a2",
"e6 c #ceb8a1",
"aC c #ceb8a2",
"et c #ceb8a3",
"eD c #ceb9a2",
"aM c #ceb9a3",
"#t c #ceb9a4",
"bk c #cebaa4",
"bs c #cebba5",
"bF c #cebca5",
"al c #cfb6a2",
"a. c #cfb7a2",
"aF c #cfb8a3",
"cs c #cfb9a3",
"bc c #cfb9a4",
"#n c #cfbaa4",
"aG c #cfbaa5",
"bh c #cfbba5",
"cz c #d0b8a1",
"by c #d0b9a3",
"fM c #d0b9a4",
"ah c #d0baa4",
"fs c #d0baa5",
"#c c #d0bba5",
"av c #d0bba6",
"e0 c #d0bca5",
"eY c #d0bca6",
"e9 c #d0bda7",
"f# c #d1baa4",
"#b c #d1bca6",
"e8 c #d1bca7",
"eE c #d1bda6",
"e5 c #d1bda7",
"br c #d2bca4",
"fx c #d2bca6",
"#R c #d2bda6",
"#C c #d2bda7",
"cl c #d3baa3",
"aa c #d3bda7",
"fe c #d3bea8",
"fa c #d4bfa9",
"b9 c #d5bca5",
"bE c #d5bfa7",
"fC c #d5bfa9",
"fb c #d5c0a8",
"#B c #d5c0a9",
"b4 c #d6bfa8",
"fi c #d6bfa9",
"bQ c #d6c0a8",
"a# c #d6c1aa",
"fh c #d7c0a9",
"#2 c #d9c2aa",
"fj c #dac3ac",
"ft c #ddc6af",
"Qt.#.#.a.a.#.a.a.a.a.a.a.a.a.a.a.a.a.b.c.c.d.d.e.f.e.e.e.c.c.f.e.c.e.f.e.c.f.f.e.e.b.b.e.f.b.e.e.b.f.e.f.g.f.f.b.g.f.f.g.f.f.b.g",
".#.#.#.#.#.#.#.#.#.#.#.#.#.#.#.#.#.#.#.#.#.#.#.#.#.#.#.#.#.#.#.#.#.#.#.#.#.#.#.#.#.#.#.#.#.#.#.#.#.#.#.#.#.#.#.#.#.#.#.#.#.#.#.#",
".#.#.#.#.#.#.#.#.#.#.#.#.#.#.#.#.#.#.#.#.#.#.#.#.#.#.#.#.#.#.#.#.#.#.#.#.#.#.#.#.#.#.#.#.#.a.#.#.#.g.f.f.b.f.f.b.f.g.#.#.#.#.#.#",
".h.i.j.k.l.m.n.k.o.p.q.#.#.#.#.p.r.s.t.i.u.#.#.#.#.v.o.o.p.q.#.#.#.#.#.w.j.x.p.p.p.p.#.#.#.#.o.k.y.z.A.B.C.D.E.F.g.a.#.p.p.p.p.G",
".H.I.I.J.I.I.K.L.M.N.O.P.Q.#.#.v.I.R.I.R.I.I.I.I.S.T.R.R.R.H.U.S.I.V.V.R.W.X.Y.Z.0.1.n.#.#.2.3.4.3.5.6.7.I.I.I.I.I.K.J.8.W.9#.##",
".R.R.K.R.K.I.I#a#b#b#b#c#d.#.#.k.R.R.R.R.R.R.R.R.R.R.R.R.R.R.R.R.R.R.R.R.R#e#f#b#b#c.2.#.#.k.R.R.R.R.R.R.R.R.R.R.R.R.R.R.R.R.R.R",
".R.R#g.V#h.H#g#i#b#b#b#c.#.#.#.p.I.R.R.R.R.R.R.R.R.J.7.7#j.6.I.R.R.R.R.R.R.7#k#b#b#l.#.#.#.m.I.R.R.I.K.K.R.R.R.R.R.R.R.R.R.R.R.J",
".R.R.R.R.R.R.R#m#b#b#b#n.p.#.#.p#j.R.J.R.R.R.J.R.R.J.J.R.R.K.J.R.J.K.R.R.R.5#o#b#b#n.#.#.#.n#g.R.R.R.R.R.R.R.R.R.R.R.R.R.R.R.R.R",
".R.R.R.R.R.R.R#p#c#b#b#f#q.#.#.o#r.R.I.R.R.R.R.R.R.R.R.R.R.R.R.R.J.R.R.R.I#s#o#b#b#t.2.#.##q.I.R.R.I.R.R.R.R.R.R.R.R.R.R.R.R.R.R",
"#u#v#w#x#x#y#z#A#B#C#b#D.o.#.##E#g.R#z#F#F#G#F#H#I#I#z#z#I#I#J#K#L#M#N#I#O#P#Q#R#b#C#S.#.#.##L.R.R#T#U#V#z#W.R#M#y#U#J#z#z#J#U#X",
"#Y#Z#Z#O#F#0#0#1#2#C#b#3.o.#.#.p#4#U#5#6#6#7#6#8#9#9#O#O#9#8#9#Z#K#I#9#Z#Z#Fa.a##baa.v.#.#.##T.R#V#Gab#zac#L#wad#Kae#O#Fac#Oaeaf",
"ag#v#v#X#X#w#w#Xah#b#bai.y.#.#.paj#x#x#x#x#x#xakakakakak#x#xak#x#X#Xak#x#x#xal#C#b#bam.#.#.q#V.R.R#Vak#Wanaoap#V#V#V#X#X#X#X#V#W",
"aq.R.R.R.R.R.R.Har#b#bas.o.#.#atau.R.R.R.J.J.R.R.R.R.J.J.J.R.R.R.R.R.R.R.R.Ja.av#b#baw.#.#ax.R.R.R.R.R.R.K.R.R.Rayaz.R.R.R.R.R.R",
"aA.RaB.I.R.R.R.HaC#b#baD.2.#.#.paE.R.R.R.I.I.R.R.R.R.K#g#g.R.R.R.R.R.R.R.R.RaFaG#b#baH.#.#am.I.R.R.R.R.R.K.I.R.RayaI.R.R.R.RaJ#V",
"aK.IaL.7.I.R.R.IaM#b#baN.o.#.#.paE.R.R.I.H.I.RaJ.R.J.V.7.7.I.R.RaJ.R.J.R.RaB#f#t#b#baO.#.#.n.H.R.R.R.I.I.VaP.V.H#h.H.I.I.R.RaJ#V",
"aQ.I.H.S.I.R.R.J#n#b#baR.o.#.#.pau.R.R.I.H.H.I.J.R#g.6.S.S.H#g.I.R.R.J.R.RaB#faS#b#baT.#.#aU.H.R.R.R#g.H.6aP.V.H.7.H.I.I.R.R.J.K",
"aQ.I.HaV.I.R.R.J#n#b#baW.k.#.#.yaX.R.R.IazaY.7.7.H.SaZ####.S.S.7.V.I.J#V.RaBaM#o#b#ba0.#.#a1#g.R.R.R#g.H.6.H.I.Ra2a3.I.I.R.R#h.6",
"a4aya5#g.R.R.Rap#n#c#ba6.k.#.#ataE.R#W.Ra7aY.Sa8a9##a8b.b.##b#.Sba.V.R#V.RbbbcaS#b#bbd.#.#.B.R.IaJ#Wbe.I.VaB.R.R.R.K.I.I.R.K#r.5",
"bfayaybg.R.R.Rap#nbh#cbi.o.#.##qbj.R#v#V#vaY##b.##b.b.b.b.b.b.###r.6.R#x.R.Hahbk#b#bbd.#.#bl.R.H#w#W.K.I.I.R.R.R.R.K.I.I#g.Vbmbn",
"boaybpbq.R.R.Rapbrbs#nbt.k.#.#.yaX.R#z#w#vbbbubvbwbvbxbxbxbxbxbwaZ.H.R#x.R.Hby#n#b#bbz.#.#bA.R.H#w#WbB.I.I.J#g#g.V#h.7.7.S.Sbmbn",
"bC.RanbD.R.R.R.JbEbFaSbG.k.#.##qaE.R#KbHakaBbIbJaPbJbJbJbJbJbKaP.6.I#V#V.R.Hby#c#b#bbL.#.#bl.R.I#M#Vaz.IaB.7.S.SaZ#r####b.bMbNbO",
"bP.Rak#M.R.R.RaLbQbRbSbTbU.#.#ataE.R#ObV#WaJbWbIbIbIbIbIbIbIbIbI.H.R#V#V.R.Hby#b#b#bbX.#.#.h.R.R#M#VbY.I.Ibwb.b.bZbmb0b0bnbnb1b2",
"bP.Rb3bD.R.R.Rbbb4b5bSb6.2.#.##qau.R#Oac#WaJa5b7b7b7b7b7aPaPaPaP.7.J#V#V.R.Hby#b#b#bbL.#.#bl.R.R#M#VbY.Ib7b#bMb.bZbmb0b0bnbnb1b2",
"b8.Razan.R.R.RbBb9c.#oc#ax.#.##qca.R#Jcb#W.RaPccbububububvbvbvbwaZ.V#V#V.R.Iby#b#b#bbX.#.#bl.R.R#x#xaJ#gb#cdcecfcfcfcgcgb1b1chci",
"cj.Ia5ck.R.R.R#Vclcmcnc#ax.#.#ataE.Rcocpcq.I##bMb.b.b.b.crcrcrbZ.T#j.R#V.RaBcs#b#b#bbX.#.#ct.R.I#V#x.R.7cecicucvcvb1cwcwcwcwchch",
"cx.I##aV.R.R.RcyczcAbkaRbU.#.#ataE.R#M#F#W.Ib#ceb0b0b0b0b1b1b1bO#4cB.R#V.RaBcs#b#b#bbX.#.#.s.R.I#V#x.RbwcCcDcEcwcwcwcwcwcwcwchch",
"cF.Hb.a9.R.R.RcGcHcI#ccJ.k.#.##qau.R#v#zbW.V.TcEcwcwcwcwcKcKcKcLbn.5#gcM.RcNaF#b#b#bbX.#.#.s.R.I.RakbBcOcPcDcDcQcQcQcQcQcQcQcQcQ",
"cR.HcSb#.R.R.RcTcUaD#bcVcW.#.#atbj.R#X#LbI.HbmcDcXcXcXcXcYcYcYcKcw#4cZcM.Rbbc0#b#b#bc1.#.#.s.R.I.R#WaBcwc2c2c2cQcQcQcQcQcQcQcQcQ",
"c3.Hb2.5.J.R.RcTc4c5#bc6ax.#.#.paE.R#X#vbIc7c8cPcDcDcDcDcQcQcQcXcEc9cZcM.Rbbd.#b#b#bd#.#.#da.R.I.R#Wazcwc2c2c2cQcQcQcQcQcQcQcQcQ",
"db.Hb2c9.J.R.RcTdcaM#bdd.k.#.#atde.R#X#XbIbmdfdgcPcPcPcPc2dhc2cDdidjcZcM.Rbbdk#b#b#bdl.#.#dmaJ.I.R.RaBcwc2c2c2cQcQcQcQcQcQcQcQcQ",
"dn.Hb2c9.J.R.RcGdobk#bdpcW.#.#atdq.RakakdrbndscPcDcDcDcDcQdtcQcXcEc9cZ#V.R.Idu#b#b#ba0.#.#dm.R.R.R.R.Rbndvdvdvdwdwdwdwdwdwdwdwdw",
"dx.Hb2c9.J.R.RcGdo#n#bcV#S.#.#atdy.Rakaka5b1dscPcDcDcDcDcQdtcYcKcw#4cZ#V.R.Idz#b#b#bdA.#.#.i.R.R.R.R.RbMchchchdBdBdBdBdBdBdBdBdB",
"dC.Hcr.5.J.R.RdDdEah#bdFax.#.#.pdG.R#M#L.J#4chcEcwcwcwcwcKdHdIdJb0b##g#V.R.Idz#b#b#bdA.#.#dK.R.R.R.R.R##cfcfcfcrcrcrcrcrcrcrcrcr",
"dL#gdMdN.J.R.R#xdO#c#cdF.j.#.#atdP.R#L#zap.5b1dQbnbnbnbncLdBdJdRbMa9.J.R.R.IdS#b#b#bdA.#.#dTaJ.RaJ.R.RbJdUdUdUb.b.b.b.b.b.dVb.b.",
"dW.Ha8#r.R.R.R#xdX#c#cdY.v.#.#atdZ.Raf#K#xcBb0#4#4bmbmbmdRd0d1dM##d2.R.R.Rbbd3#b#b#b#d.#.#dKaJ.RaJ.R.Rb7cccccc.S.S.S.S.S.Sd4.S.S",
"d5.HaZ.S.R.R.R#Xd6#c#cdY#S.#.#.pd7.Rad#8d8babM.5.5.T.T.TbZd9dMe.aPay.R.R.Rbbd.#b#b#b#d.#.#e#.R.RaJ.R.Ra5d2d2d2#g#g#g#g#g#geaeb#g",
"d5ec.6.S.R.R.R#Ved#b#bcJ.j.#.#atdy.R#Keeefegb#cBcB#r#r#ra8ehe.ei.Hbp#V.R.Rbbar#b#b#bej.#.#ek.R.R.R.R.RaybWbWbW.R.R.R.R.R.Relembp",
"enaP.7.S.R.R.RaJeo#b#bep#S.#.#ateq.R#K#6#Ter#r#r#r.S.S.SbwbwesecbWb3#V.R.Rbbet#b#b#baT.#.#.u.R.R.R.R.R.Rayayay.R.R.RaJ.R.Relembp",
"eubw.7a9.J.R.RaJeo#b#bevew.#.#.pex.R#z#9afer#r#r#r.S.Sbue.ehe.ecbWb3#V.R.RbbaM#b#b#be#.#.#.uaJ.Rak.R.R.R.Rayay.R.R.R#W.R.Relembp",
"ey##.Hb#.J.R.RaBar#b#bcVej.#.#.pez.R#V#K#MeA.T.T.T######dMd9dMeibWeB#WeC.RbbeDeE#b#be#.#.##E.R.Raf#W.R.R.R.IbWaBaB.R#W.R.R.ReFeG",
"eHb..Hb#.J.R.RaBar#b#bc#eI.#.#.peJ.R#V#zakeKbmbmbmb.b.b.bZd9dMeibWaz#WeC.RbbaC#b#b#beI.#.#eL.R.Raf#W.R.R.R.IbW.I.Ibbay.R.R.ReFaz",
"eMbmbWa9.J.R.R.Iar#b#bevej.#.#.pcD.RaJ#w#XcBbObmbmb.b.b.a8bweiaYbWaz.ReC.Rbbeo#b#b#beI.#.##E.R.Rakaz.R.R.R.IbW.I.I.H.7.R.R.ReFaz",
"eNbm.I.V.R.R.R.IaC#b#beveI.#.#.pcE.R.RaoaJcBbn.8bmb.b.##aP.H.I.Iaz.Raz#V.RbbeO#b#b#beI.#.#eP.R.Iaza5.R.R.R.R.I.I#gaV###g.R.R.R.R",
"eQbm.J.K.R.R.R.IeR#b#bc6eP.#.#bUbm.R#g.K.RcBbnbm.T####.S.H.I.R.R.R.R.I#V.RbbeS#b#b#beI.#.#eT.R.IeUb7.I.R.R.R.I.I#g.S.T.V.R.R.R.R",
"eV.T.J.K.R.R.R.IeR#b#bepeW.#.#.y.5.R#g#h.ReX.T#r.SaPaP.7.I.R.R.R.R.R.I#V.RbbeOeYav#baU.#.#.m.I.Ib7.S.H.R.R.R.I.I#gaPa9#g.R.R.R.R",
"eZei.K.7.I.R.R.Hc0e0#baseW.#.#.o#4.R.I#j.R#g.7.V#g.I.I.I.I.R.R.R.R.J.K.R.Rbbe1bhaG#beW.#.#.m#g.I.S#r.7.I.J.R.R.R.R.IcZ.J.J.J.K.K",
"e2#g.K.S#g.R.R.Hc0eY#baNew.#.#.pdQ.R.R#r.K.JbB.J.R.R.R.R.R.R.R.R.R.J.R.R.R.Hc0bh#t#beW.#.#.m.I.K.S#r.S.I.J.R.R.R.R.Ibp.J.J.J.K.K",
"e3.I.KaP.I.R.R.HareY#bdpam.#.#.pbn.R.R#r.K.RaJ.R.R.R.R.R.R.R.R.R.R.J.R.R.R.Hc0bh#t#beW.#.#.t.I.I.7.6.S.I.J.R.R.R.R.R.R.R.R.RbB.K",
"e4.R.R#g.R#V.R.Hare5#basew.#.#.pbn.R.K#h.R.RaJ.R.R.R.R.R.R.R.R.R.R.J.R.R.R.He6avbh#baH.#.#.m.R.K.I.I.7.R.R.R.R.R.R.R.R.R.R.R.ReC",
"e7.R.R.R.R#W.R.Heoe5#basam.#.#.p.W.R#ga2.R.R.R.R.R.R.R.R.R.R.R.R.R.R.R#V.R.Hare8e9#bew.#.#.m.RaJaJ.R#gaJ.R.R.R.H.H.R.R.R.R.RapeC",
"f.#w#x#x#xaJ#w#Xf#fafbai.v.#.#.pc2.R.RbD#Lfcfcfcfc#y#y#y#y#y#L#L#y#y#yae#yfd#c#bfea#eP.#.#.t#y#y#U#vap#VaJ.R.R.R.R.R.R.R.R.R.R.R",
"fffgac#yad#w#G#Zfhfifjfkfl.#.#.p.W.R#xfmfn#Z#Z#Z#Zfnfnfmfnfo#6#6fpfp#Afqfr#Vfs#b#Cftfu.#.#fv#I#Madaf#w#X.R.R.R.R.R.R.R.R.R.R.R.R",
"fw.R.R.R.R.R.Rd8fx#b#CfycW.#.#.yfz.R#X#I#I#z#z#zfA#J#J#NbV#U#U#yad#TeffB#M.Rah#b#bfCfD.#.#ek.R.R.RaV#ra9.V.R.R.7.6.7.7aVaZ#r.6.7",
"fE.R.R.R.R.R.R.VaC#b#bfF.#.#.#.vcg.R.J#ra9#r#r.S.S.S.S#j#j#j.6.6.6.7.7#h#r.R#n#b#bas.k.#.#.u.R.R.I#j#g.I.I#g#g#g.7.7.H.V.6.7.H.7",
"fG.R.J.K.I.I.I#get#b#bfH.#.#.#.ob#.R.R.I.I#g.V.I#g.H.V#g.7.7.H.7#j.S.7.SdQa2aM#b#bavaU.#.#am.K.R.R.T.S.6.6#j.6.6#j.6.7.7#j.7.7.7",
"#r.R.I#g.I.J.I.Ics#b#bfI.#.#.#.#.T.R.R.H.H.I.V.H.H.I.H.H#g#g.7.6#g.6.S.7.HfJ#n#b#b#cax.#.#cW.R.R.R.7.H.I.7.7#g#g.7.7.I.H.7.V.I.H",
".I.I.I.I.R.R.R.J#c#b#bfK.#.#.#.#.7.R.R.6.7.6#j.7.7.7.6.7.7.7.7.7.7.7.H.H#gfL#b#b#b#c.#.#.##q.R.R.I.7.7.7.I.7#g.I.I.7.7#g.V.7.7#g",
".R.R.R.R.R.R.R.IfM#b#bfN.#.#.#.p.K.R.JcQ.Wc2fOfzcEdvcDbncE.WcEbncEcw#4bOcgfP#c#b#b#3.p.#.#.j.R.R.R.R.R.R.R.R.R.R.R.R.R.R.R.R.R.R",
".I.R.R.R.R.R.RfQ#b#b#bc#.x.#.#.k.R.R.Kc8cg.WdQc8cwcEc8bncwfR.8cwcwbnbncEcwfS#c#b#b#cbX.#.#eP.R.R.R.R.R.R.R.R.R.R.R.R.R.R.R.R.R.R",
"bm#g.I.J.R.J.JfT#o#b#bfU.#.#.#.jcw.Rb#cEfOfVcD.WfVc2.WcDfVfOcEc2fVcDcDfVc2fOfW#b#bev#S.#.#ek.V.R.R.R.I#r.Sbn.T.S.7.V.I.K.I.I.I.7",
".v.uat.pfXfYfZf0.2.2#q#q.#.#.#.#f1f2f3f4f4f5f6f7.h.Bf8.hbl.h.iePekaOf9.i.i.v.paxcWat.#.#.#.#.pg..v.v.p.#.#.#.#.#.#.#.#.#.#.#.#.g",
".#.#.#.#.#.#.a.#.#.#.#.#.#.#.#.g.g.g.g.g.g.a.#.#.#.#.#.#.#.#.#.#.#.#.#.#.#.#.#.#.#.#.#.#.#.#.#.#.#.#.#.#.#.#.#.#.#.#.a.a.a.a.a.f",
".a.a.a.a.#.#.#.#.#.#.#.#.#.#.#.a.a.a.#.a.a.#.#.#.#.#.#.#.#.#.#.#.#.#.#.#.#.#.#.#.#.#.#.a.#.#.#.#.#.#.#.a.a.#.#.#.#.#.#.#.#.#.#.#",
".f.e.e.g.b.f.b.a.g.a.a.a.a.g.b.e.c.e.e.dg#.c.cg#.b.a.a.a.g.b.a.#.#.#.#.#.#.#.#.#.#.#.#.a.f.g.g.e.e.f.cg#.d.egaga.f.cg#g#.dgbQtgc"};
