/* XPM */
static char *dummy[]={
"64 64 517 2",
"f1 c #a78b78",
"f0 c #a88a78",
"fZ c #a98b79",
"f2 c #a78978",
"fY c #ab8d7a",
"fX c #ac8e7b",
"f4 c #ac8d7b",
"fW c #ac8e7b",
"g. c #b99985",
"f3 c #a88b79",
"fV c #ac8e7b",
"f5 c #af907e",
"f8 c #b59682",
"f9 c #b79783",
"fU c #ac8e7b",
"f6 c #b2937f",
"f7 c #b39481",
"fT c #ad8e7b",
"fS c #ae8e7b",
"fR c #ae8e7b",
"g# c #bc9a86",
"fQ c #af8e7c",
"fP c #b08f7d",
"fO c #b1907e",
"fN c #b2917f",
"fM c #b49380",
"fL c #b69581",
"fK c #b79682",
"fJ c #b89783",
"fI c #b79783",
"fH c #b79782",
"fG c #b69782",
"fF c #b59681",
"fE c #b59581",
".E c #1e1f20",
"fD c #b69682",
"fC c #b79682",
"fB c #b79783",
"fA c #b99984",
"fz c #bf9d89",
".X c #1e1f20",
".8 c #1e1f20",
"#C c #1e1f20",
"#i c #1e1f20",
"ga c #b79783",
"#c c #1e1f20",
"#s c #1e1f20",
"#V c #1e1f20",
"fy c #b99984",
".D c #1e1f20",
".F c #1e1f20",
"Qt c #1e1f20",
"fo c #212122",
"fp c #222222",
".Q c #b59682",
"gb c #b69683",
".R c #b79883",
".W c #1e1f20",
".a c #1f1f20",
"fm c #202122",
"fr c #212222",
"#z c #262525",
"#D c #282727",
"a. c #2b2929",
"#P c #2d2b2a",
"#W c #2f2c2b",
"#5 c #322f2d",
".4 c #b1927e",
".5 c #b39480",
".6 c #b59682",
"gc c #b69682",
".S c #b79682",
".7 c #b79783",
".# c #1e1f20",
"b6 c #1f1f20",
"aq c #1f2020",
".G c #1f2021",
"bo c #202021",
"ap c #202121",
"ae c #202122",
"ak c #212122",
"am c #212222",
"dY c #212223",
"fq c #222222",
"ah c #222223",
"ar c #222323",
"aP c #232323",
"aO c #232324",
"aQ c #232424",
"aN c #242323",
"aj c #242324",
"ad c #242424",
"d0 c #242425",
"b. c #242526",
"aM c #252425",
"as c #252525",
"aR c #252626",
"an c #262525",
"dX c #262625",
"a8 c #262626",
"a9 c #262627",
"aL c #272625",
"aK c #272626",
"aS c #272627",
"a7 c #272727",
"aJ c #282626",
"aI c #282726",
"ao c #282727",
"at c #282827",
"a6 c #282828",
"aH c #292727",
"aG c #292827",
"aF c #292828",
"aU c #292928",
"a5 c #292929",
"cj c #2a2827",
"aE c #2a2927",
"aD c #2a2928",
"a4 c #2a2a29",
"aC c #2b2928",
"ct c #2b2929",
"aB c #2b2a28",
"aT c #2b2a29",
"a3 c #2b2a2a",
"a2 c #2b2b2a",
"aA c #2c2a28",
"az c #2c2a29",
"aV c #2c2b2a",
"a1 c #2c2b2b",
"ay c #2d2a29",
"au c #2d2a2a",
"a0 c #2d2b2b",
"aZ c #2d2c2b",
"aY c #2d2c2c",
"aX c #2d2d2c",
"#1 c #2e2b2a",
"av c #2e2c2a",
"d# c #2e2c2b",
"aW c #2e2d2c",
"ax c #2f2c2b",
"aw c #2f2d2b",
"dF c #302d2b",
"df c #302d2c",
"di c #312e2c",
"dq c #332f2d",
"dD c #34302e",
"dv c #35312f",
"dZ c #3a3836",
"dE c #3b3533",
"dS c #967d6e",
"ai c #977e6e",
"dP c #987e6f",
"af c #987f6f",
"dO c #997f70",
"dR c #9b8171",
"dT c #9c8171",
"dU c #9c8172",
"dM c #9c8272",
"dQ c #9d8372",
"dN c #9e8373",
"b# c #a09181",
"b7 c #a28979",
"dI c #a38776",
"dK c #a48877",
"dV c #a58877",
"dJ c #a58977",
"d1 c #a59585",
"dH c #a68978",
"dG c #a68a78",
"dL c #a78a79",
"cO c #a88c79",
".Y c #a88c7a",
"cn c #a98c7a",
".H c #a98d7b",
"dd c #a98e7b",
"dW c #aa8c7a",
"cX c #aa8d79",
"#J c #aa8d7a",
"cf c #aa8d7b",
"#0 c #aa8e7b",
"cY c #ab8d79",
".q c #ab8d7a",
"#K c #ab8d7b",
"dh c #ab8e7a",
"#I c #ab8e7b",
"de c #ab8e7c",
"cB c #ab8f7c",
"cS c #ac8d7a",
".r c #ac8d7b",
"cF c #ac8e7b",
".9 c #ac8e7c",
"dg c #ac8f7b",
"#H c #ac8f7c",
"#Z c #ac907b",
"#G c #ac907c",
"cw c #ac917e",
"ep c #ac9c8b",
"cZ c #ad8e7a",
"cE c #ad8e7b",
".p c #ad8f7b",
".3 c #ad8f7c",
"#g c #ad8f7d",
".o c #ad907b",
"#x c #ad907c",
"ci c #ad907d",
"b9 c #ad917e",
"cT c #ae8e7b",
".s c #ae8f7b",
"cD c #ae8f7c",
"c4 c #ae8f7d",
".P c #ae907c",
".l c #ae907d",
"d. c #ae907e",
".O c #ae917c",
"#F c #ae917d",
"cv c #ae917e",
"cG c #af8f7c",
".n c #af907c",
".m c #af907d",
"#d c #af907e",
"#p c #af917c",
"#f c #af917d",
"cs c #af917e",
"#U c #af927d",
"et c #af9e8c",
"bp c #af9e8d",
"c0 c #b0907c",
"cH c #b0907d",
"#2 c #b0907e",
"fw c #b0917c",
".t c #b0917d",
".N c #b0917e",
"#L c #b0927d",
".2 c #b0927e",
".k c #b0927f",
"ce c #b09380",
"cU c #b1907d",
"c1 c #b1917d",
"#w c #b1917e",
".u c #b1927e",
"#k c #b1927f",
"fv c #b19280",
"#T c #b1937f",
"cu c #b19380",
"bu c #b19f8e",
"cI c #b2917e",
"c2 c #b2927e",
"c5 c #b2927f",
"dk c #b29280",
"cR c #b2937e",
".b c #b2937f",
".M c #b29380",
"do c #b29381",
"#M c #b2947f",
"#l c #b29480",
"cA c #b29481",
"cJ c #b3927f",
"cP c #b3937e",
"#S c #b3937f",
"#a c #b39380",
"c8 c #b3947f",
".v c #b39480",
"#b c #b39481",
"dn c #b39482",
"dp c #b39580",
"#h c #b39581",
"dl c #b39582",
"fd c #b39784",
"cV c #b4937f",
"cK c #b49380",
"#3 c #b4947f",
"#r c #b49480",
".j c #b49481",
"#Y c #b49580",
".B c #b49581",
".L c #b49582",
"dm c #b49583",
"ag c #b49680",
"#N c #b49681",
"#m c #b49682",
"fl c #b49985",
"eo c #b4a18f",
"bC c #b4a390",
"cQ c #b5947f",
"cL c #b59480",
"cM c #b59481",
"cC c #b59580",
".C c #b59581",
".1 c #b59582",
"#o c #b59583",
"dt c #b59680",
"#4 c #b59681",
".w c #b59682",
"#8 c #b59683",
"#v c #b59783",
"eq c #b5a491",
"#q c #b69581",
"ff c #b69582",
"#O c #b69681",
".V c #b69682",
".i c #b69683",
"#j c #b69782",
".d c #b69783",
"fu c #b69882",
"fs c #b69883",
"c# c #b79582",
"#y c #b79682",
".T c #b79683",
"#n c #b79781",
".z c #b79782",
".c c #b79783",
".A c #b79784",
".y c #b79882",
".x c #b79883",
".U c #b79884",
"ft c #b79984",
"d9 c #b7a692",
"#9 c #b89782",
".K c #b89783",
"#R c #b89784",
"cy c #b89882",
".g c #b89883",
".h c #b89884",
"ck c #b89885",
"cx c #b89983",
"#X c #b89984",
"fg c #b89985",
"cd c #b89d89",
"dr c #b99883",
".e c #b99884",
"ds c #b99983",
"#7 c #b99984",
"ab c #b99985",
"dA c #b99a85",
"fj c #b99a86",
"fh c #b99a87",
"es c #b9a795",
"ca c #ba9884",
"ac c #ba9984",
"#E c #ba9985",
"#A c #ba9a85",
"du c #ba9a86",
"f# c #ba9b87",
"fi c #ba9b88",
"cb c #ba9c88",
"b8 c #ba9c89",
"da c #bb9985",
"#Q c #bb9a85",
"#t c #bb9a86",
"dC c #bb9b85",
".f c #bb9b86",
"cr c #bb9b87",
"d8 c #bba996",
"dw c #bc9a85",
".I c #bc9a86",
"db c #bc9b85",
"#. c #bc9b86",
"a# c #bc9b87",
"co c #bc9c86",
"dc c #bc9c87",
"e. c #bca996",
"ey c #bcaa96",
"c7 c #bd9b86",
"#B c #bd9b87",
".Z c #bd9c86",
"al c #bd9c87",
".J c #bd9c88",
"c. c #bd9e89",
"fa c #bda08c",
"fc c #bda18c",
"eb c #bdaa97",
"d7 c #bdaa98",
"#u c #be9c87",
"aa c #be9c88",
"## c #be9d87",
"#e c #be9d88",
"fx c #be9d89",
"ch c #be9e88",
"cm c #be9e8a",
"fk c #bea18d",
"ea c #beab98",
"#6 c #bf9c88",
".0 c #bf9d88",
"dx c #bf9e87",
"cW c #bf9e88",
"fb c #bfa48f",
"d6 c #bfad99",
"dB c #c09d89",
"cp c #c09e88",
"cg c #c09e89",
"fn c #c09e8a",
"dy c #c09f88",
"dz c #c09f89",
"fe c #c09f8a",
"cc c #c0a490",
"en c #c0ac99",
"eg c #c0ad99",
"e# c #c0ad9a",
"dj c #c19e89",
"c3 c #c19e8a",
"cN c #c19f89",
"c9 c #c19f8a",
"cq c #c1a08a",
"er c #c1ae9a",
"c6 c #c29f8a",
"cz c #c2a08a",
"ed c #c2ae9a",
"ei c #c2af9b",
"ec c #c3b09b",
"cl c #c4a38e",
"eM c #c4b09b",
"ef c #c4b09c",
"eh c #c4b19d",
"ee c #c5b29d",
"ej c #c6b29e",
"ek c #c6b39e",
"b5 c #c7b29e",
"bn c #c7b39f",
"d3 c #c7b49f",
"e0 c #c8b39d",
"e1 c #c8b39e",
"eZ c #c8b49d",
"d5 c #c8b49f",
"eY c #c8b59e",
"eF c #c8b5a1",
"bS c #c9b19c",
"e2 c #c9b39e",
"bk c #c9b5a0",
"eE c #c9b5a1",
"eX c #c9b69f",
"bT c #cab19c",
"bR c #cab29d",
"e3 c #cab49f",
"bE c #cab5a1",
"eG c #cab6a1",
"eD c #cab7a2",
"bQ c #cbb39e",
"b1 c #cbb49f",
"e4 c #cbb5a0",
"bF c #cbb6a0",
"bm c #cbb6a1",
"d4 c #cbb7a2",
"bU c #ccb39e",
"b0 c #ccb4a0",
"em c #ccb5a1",
"e5 c #ccb6a0",
"eW c #ccb7a0",
"d2 c #ccb7a2",
"bb c #ccb8a2",
"eu c #ccb8a3",
"eC c #ccbaa5",
"bP c #cdb5a0",
"b2 c #cdb6a0",
"bZ c #cdb6a1",
"bV c #cdb7a1",
"eH c #cdb8a2",
"bD c #cdb8a3",
"el c #cdb9a2",
"bx c #cdb9a3",
"bw c #cdb9a4",
"ev c #cdbaa4",
"eB c #cdbba5",
"bO c #ceb7a1",
"e6 c #ceb7a2",
"b3 c #ceb8a1",
"bY c #ceb8a2",
"bW c #ceb8a3",
"bX c #ceb9a2",
"bJ c #ceb9a3",
"bd c #ceb9a4",
"by c #cebaa4",
"ez c #cebba5",
"eA c #cebca5",
"bH c #cfb6a2",
"bG c #cfb7a2",
"bI c #cfb8a3",
"bN c #cfb9a3",
"bK c #cfb9a4",
"bc c #cfbaa4",
"bq c #cfbaa5",
"br c #cfbba5",
"eV c #d0b8a1",
"bM c #d0b9a3",
"f. c #d0b9a4",
"bL c #d0baa4",
"b4 c #d0baa5",
"ba c #d0bba5",
"bl c #d0bba6",
"eI c #d0bca5",
"bA c #d0bca6",
"bs c #d0bda7",
"e7 c #d1baa4",
"bg c #d1bca6",
"bB c #d1bca7",
"bz c #d1bda6",
"eJ c #d1bda7",
"eP c #d2bca4",
"e9 c #d2bca6",
"bv c #d2bda6",
"be c #d2bda7",
"eU c #d3baa3",
"bf c #d3bda7",
"bt c #d3bea8",
"eK c #d4bfa9",
"eT c #d5bca5",
"eQ c #d5bfa7",
"bj c #d5bfa9",
"ew c #d5c0a8",
"eN c #d5c0a9",
"eS c #d6bfa8",
"eL c #d6bfa9",
"eR c #d6c0a8",
"bh c #d6c1aa",
"e8 c #d7c0a9",
"eO c #d9c2aa",
"ex c #dac3ac",
"bi c #ddc6af",
"Qt.#.#.a.b.c.d.c.c.e.f.g.c.h.h.i.j.k.l.l.m.n.n.o.p.p.q.q.q.q.r.s.t.u.v.w.x.x.x.y.z.z.c.c.c.i.i.i.A.A.c.c.B.B.B.C.w.c.c.BQt.D.#.E",
".F.#.#.G.H.c.c.c.c.I.J.h.c.K.K.d.L.M.N.N.O.P.P.p.p.p.q.q.q.q.r.s.t.u.v.Q.R.R.R.S.S.S.c.c.c.i.i.T.c.U.c.c.j.C.B.V.B.c.c.V.#.W.#.X",
".D.#.#.G.Y.c.c.c.c.Z.0.e.c.c.c.c.c.i.1.v.2.l.l.P.3.3.q.q.q.q.r.s.t.4.5.6.7.7.7.c.c.c.c.c.c.d.d.c.c.c.c.c.M.B.B.1.B.c.c.V.#.W.#.8",
".D.#.#.G.9.c.c.c.c#.##.e.c.c.c.c.c.c.w.v.u.l.l.P.3.3.q.q.q.q.r.s.t.u.v.w.c.c.c.c.c.c.c.c.c.d.d.c.c.c.c.c#a.j#b.B.1.c.c.V.#.W.##c",
"Qt.#.#.G#d.c.c.c.c#.#e.e.c.c.V.V.V.V.V.B.b#f#f#g.3.3.q.q.q.q.r.s.t.u.v.w.c.c.c.c.c.c.w.1.w.d.d.c.c.c.c.c#h.1.B.C.w.c.c.i.#.W.##i",
".D.#.#.#.d.c.c.c.c.Z.0.e.c.c.V.V.V.V.V.B.b#f#f#g.3.3.q.q.q.q.r.s.t.u.v.w.c.K.g.g#j.B.b#k#l#m.x.c.c.c.c.c.B.C.B.V.B.c.c.V.#.W.##i",
".D.#Qt.W.i.c.c.c.c.I.J.h.z#n.C.C#o.i.i.L.M.N.N#p.P.3.q.q.q.q.r.s.t.u.v.w.c.c.c.c#q.C#h.v#r.V.V.c.c.c.c.c.B.B.j.B.B.c.c.1.#.#.##s",
"Qt.#.DQt.V.c.c.c.c#t#u.h#j#j.L.B#v.c.c.1#a#w#w#p#x.3.q.q.q.q.r.s.t.u.v.w.c.c.c#y.V.V.w.w.w.c.c.c.c.C.c.c.j.B#b.B.V.c.c.B.#.#.#.D",
".F.#.F#z.V.c.c.c.c#A#B.h.c.c.C.C.c.c.c.w.v.u.u#p#x.3.q.q.q.q.r.s.t.u.v.w.c.c.c#y.V.V.V.V.V.c.c.c.c.C.c.c.B.w.j.w.V.c.c.v.#.#.##C",
".D.#.D#D.V.c.c.c.c.c#E.U.c.c.1.1.V.c.c.w.v.u.2#F#G#H#I#J#J#J#K.p#p#L#M#N#O#j#j#O#O#O.V.V.V.c.c.c.c.c.c.c.c.w.j.w.w.c.c#k.#.#.##C",
".D.#.D#P.V.c.c.c.c.g#Q#R.c.V#r#r.C#y.c.d.B#S#T#U.o#I#I#J#J#J#K.p#p#L#M#N#O#j#j.V.V.V.c.c.c.c.c.c.c.c.c.c.c.w#b.B.B.c.c.l.#.#.##V",
"Qt.#.F#W.V.c.c.c.c#.###X.i.i.1.j.j.1.V.V#y.V#Y#T#F#Z#0#J#J#J#K.p#p#L#M#N#O#j.c.c.c.c.c.c.c.d.d.d.c.c.K.c.1.V.j.B.V.c.c.v.#.#.W#c",
".D.#.D#1.B.c.i.c.c.h#..g.c.c.V.C.C.V.V.V.V.V.V.w.B#S#2.3.3.3.l.2.b#3#Y#4#j.c.c.c.c.c.c.c.c.V.V.V.c.K.h.e#l.V.j.V.B.c.c.M.#.#.W#i",
"#V.#.D#5.j.c.i.c.c.I#6#7.c.c.V.w.w#8.i.T.z#9#9.K.c.c.T#y.z#y.c.c.c.c.c.c.c.c.c.c.c.c.c.V.C.B.v.v.B.w.U#E.M.w.v.C.B.c.c.V.G.#.##s",
".D.#Qta..k.c.V.c.Va#aa.h.c.c.c.c.c.g.g.g.h.h.hababab#7.g.g.c.c.c.c.c.c.c.c.c.c.g.g.z#4#Y.v.M.M.j.V.cac.f#h#b#k.B.B.c.c.cad.#.#.D",
".F.#.#aeaf.c.c.c.c.c.h.c.c.c.c.c.c.K#E#E#A#A#Aab.h.h.c.c.c.c.c.c.c.K.K.K.c.c#7.f.f#7.zag#Y.v.v.B.V.K.I#B.c.V.c.c.V.c.c.cad.#.##V",
"#V.#.#ahai.c.c.c.c.c.c.c.c.c.c.c.c.V.C.C.V.c.c.c.V.V.V.V.V.V.c.c.c.c.c.c.c.c.c.c.c.c.V.V.V.V.i.V.i.K#t#A.c.c.c.c.c.c.c.caj.#.##V",
"#V.#.#akaf.c.V.w.V#Qa#.h.c.V.C.C.w.c.c.c.c.c.c.c.c.c.c.c.c.K.c.c.c.K.K.c.c.c.K.c.c.c.c.c.V.w.V.V.c.c#tal.c.c.i.c.c.c.c.1.G.#.#Qt",
".F.#.W.#amahanaoap.#.#aqarasaoatau#1avawavaxavavayazazazaAaBaBaCaDaEaDaFaGaHaHaIaJaIaKaLanananaMananaMaNaGaHasaOapaPaKaG.#.#.#Qt",
".D.#.#.#.#.#.#.#.#.#.#.#.#.#.#.#.#.#.#.#.#.#.#.#.#.#.#.#.#.#.#.#.#.#.#.#.#.#.#.#.#.#.#.#.#.#.#.#.#.#.#.#.#.#.#.#.#.#.#.#.#.#.#.D",
"#V.#.#.#.#.#.#.#.#.#.#.#.#.#.#.#.#.#.#.#.#.#.#.#.#.#.#.#.#.#.#.#.#.#.#.#.#.#.#.#.#.#.#.#.#.#.#.#.#.#.#.#.#.#.#.#.#.#.#.#.#.#.W.W",
".F.#.#.#aoam.#.#amaQadasaRaSaTaUaVaWaWaXaYaZaYaZaZaZaZa0a1a2aVa3a3a3a4a4a5aUaFaFa6a6a6a6ata7a7a7aSa8aKa9b.ahatar.#.GaZaQ.#.#.#.#",
".F.#.#.Gb#babbbcbdbebfbgbgbgbgbgbgbgbgbgbgbgbgbgbgbgbgbgbgbgbgbgbgbgbgbgbgbgbgbgbgbgbgbgbgbgbgbgbgbgbhbibjbkblbababmbabnbo.#.#.#",
"#V.#.#.GbpbgbgbgbgbgbgbgbgbgbgbgbgbgbgbgbgbgbgbgbgbgbgbgbgbgbgbgbgbgbgbgbgbgbgbgbgbgbgbgblbqbdbdbrbsbtbebgbgbgbgbgbgbgbgaO.#.#.#",
"#V.#.#.GbubgbgbgbgbvbhbeblbqbdbwbxbwbybcbabgbgbgbgbgbgbgbgbgbgbgbgbgbgbgbgbgbgbzbgbgbgbgbAbrbrbrblbBbgbgbgbgbgbgbgbgbgbgar.#.#.#",
".D.#.#.GbCbDbEbxbxbFbGbHbGbIbDbDbJbKbLbMbMbMbMbMbNbNbIbObPbQbRbSbSbTbUbPbVbWbJbXbYbZb0b1b0b2bObOb3bVbab4bLbcbJbcbgbabab5.G.#.#.#",
".D.#.#b6b7b8.B.kb9c.#eab.d.c#y#y#y#q.C.C.C.C.C.V#y#yc##q#q#q.V.V.V.V#q#q#q#q#q#q#q#q#q#q#q#q.C.C.C.Cca.h.c.c#vcbcccdcecfad.#.#.#",
"#s.#.#aP.9.c.c.c.V.0cgab.c.c.c.c.c.c.c.c.c.c.c.c.c.c.c.c.c.c.c.c.c.c.c.c.c.c.c.c.c.c.c.c.c.c.c.c.c.c#tch#A.Mci.C.w#g.3#JaC.#.#.#",
"#V.#.#cj.c.c.c.c.calcgab.c.c.c.c.h.habab.h.h.h.h.h.hckckckck.h.h.h.c.c.c.c.c.c.A.A.A.h.h.h.c.c.c.c.h.Jclcm.L.v.B.C.m#HcnaC.#.#.#",
".D.#.#.#.1.c.c.c.ccocp#7.c.c.d.d.d.c.c.c.h.h.h.h.c.c.w#m#m#m#m#m.w.d.c.c.h.h.h.g.g.c.z.V.V.i.c.c.c.c#tcqcr.B.B.v.Ccs.l#Ict.#.#.#",
"#V.#.#.#.1.c.c.i.c#Aal.e.c.c.c.c.V.1.j.C.V.c.d.1#bcu.kcscvcwcvcs#T#l#N#j.xcxcxcy.z.z.c.c.c.d.d.d.d.c#tcza#.B.v.j.B.3.l#IaT.#.#.#",
"#s.#.#.#.V.c.c.d.d#Q#u.e.c.c.K.c.1cA.M#a.j.C.B#a#kcs.l.3#HcB#H.3#f.2.b#r.C#O#O#O#O#O.z.c.c.c.c.c.c.c#tcz#B.j#b.w.B#H.3cnaG.#.#.#",
"#V.#.#.#.v.c.c.c.c#ucgab.c.c.c.V.B.v.b#S#rcC#r#S#w.mcDcEcF#IcFcEcGcHcIcJcKcLcLcKcKcM.V.c.c.c.c.c.c.c#QcN#t.j.B.j.B.l.3#JaK.#.#.#",
".D.#.#.#cO.c.V.d.c.Zcp#7.c.c.c.w.v#T.ucPcQcC#rcR.t.PcEcS.q#J.qcScTcGcUcIcJcVcJcIcIcK.V.c.c.c.c.c.c.c#QcN.I.j.C.B.B#H#d#HaC.#.#.W",
"#s.#.#aq.C.c.j.i.calcWab.c.c.V.C.v.b.ucP#3cC#rcR.t.PcEcS.qcXcYcYcZ.sc0c1c2#Sc2c1c1#S.C.V.c.c.c.c.c.c#tc3.I#b.B.w.B.9c4cfax.#.#.F",
"#s.#.#.G.c.c#b.c.calcpab.d.w.B.v.b.u.ucP#3cC#rcR.t.PcEcS.q#J.q.qcEcDcH#wc5#ScJcI#wc5#r.C.V.V.c.c.c.c#tc6c7#b.B.w.B#H.3cnav.#.#Qt",
"#V.#.#ak.c.c.B.c.c#..0#7.d.w.B.v.b.u.ucP#3cC#Yc8.u#f.3cF#I#0#I#I.3.l.N#k.M.vc8.b.u.u.b.v.B.V.c.c.c.c#tc9co#b.w.C.B.l.l#Iax.#.#.W",
"#V.#.#ak.c.c.B.d.c#..0#7.d.i.1.j#ac5.ucP#3cC#Yc8.u#f.3cF#I#0#I#I.3.l.N#k.M.v.v.b.u.u.u.b#r.V.c.c.c.c#tc6.Z.v.1.C.j#Id..9d#.#.#.W",
"#V.#.#ad#k.c.d.d.calcp#7.c.c.d.w.v.b.ucR#3cC#Yc8.u#f.3cF#I#0#I#I.3.l.N#k.M.v.v.b.u.u.u.b#r.V.c.c.c.c#tc6.Z.v.C.V.B#K#H#J#1.#.#.W",
".D.#.#.#.v.c.c.c.calcp#7.c.c.c.c.C#l.b#S#rcC#Yc8.u#f.3cF#I#0#I#I.3.lcs.kcu.M.M#k.N.N.N#k.v.w.c.c.c.cdacgdb.v.w.C.B#H.3cnax.#.#.F",
"#V.#.#.#.V.c.c.c.cdccW#7.c.c.K.d.Bc5.ucR#3cC#Y#M.2#F#H#I#0dd#0#0#Hcics.kcu.M.M#k.N.N#d.N.M.1.d.c.c.cdacg#..v.V.C.Bded..9df.#.##i",
"#c.#.#.#.V.c.c.d.c#ecNab.c.c.c.V.B.v.bc8cC#O#4#r.b#T#k.Nd.dgdhdh.p.P#f.2#T.M.M#k.N.m.l.l#k.B.T.K.K.cdacg#..M.1.1#bcfci#Idi.#.##s",
"#c.#.#.#.V.c.c.c.caadjab.d.V.V.CcMcMcM#q#y.K.K.c.V.V.1.Cdk.N.l.Pcs.kcucAdldmdmdndocucucudp.w.d.c.c.cdacg#..M.w.V.j#J.9cndq.W.##s",
"#s.#.#aH.V.c.c.c.c#ecNab.d.V.C.C.zdracac#7.g.g.gds.g#OcCcCcCdt#4.d.Uabducra#.f#A#7.e.K.c.c.c.i.i.c.c#Qc6al#l.V.C.B.9#gcfdvQt.W#i",
"#s.#.#aC.c.c.c.c.c#ecNab.c.c.V.V.V.c.h#Edwc7##dxdy#e#.#Qac.e#7#7#Q#.#ucWdzcNcp#u#.#E#R.i.L#b.M.M.L#vdAc9al.M.V.C.j.qd.#HdvQt.W#c",
".F.#.#aM.V.c.c.d.V#.dBab.c.c.c.c.c.gac#.#u.0.0.ZdC#Aac.e.e.e#7#7#A#Q.f#B#u#u#..h.h.K.c.w.w.V.c.c.i.w.cab.e.d.c.c.c.d.i#TdDQt.##V",
".W.#.#az.c.c.c.c.c.c.Iab.c.c.c.c.c.c.c.c.c.c.c.c.c.c.c.c.c.c.c.c.c.c.c.c.c.c.c.c.c.c.c.c.c.c.c.c.c.c.c.c.c.c.c.c.c.c.c.cdEQt.W#V",
".W.#.#dF.V.c.V#b.M.wcsdGdHdIdIdHdJdIdKdJdIdIdHdLdIdIdHdKdIdMdNdOdPdQdRdSdOdTdUdVdW#I#H.N.kcsci.l.l.9#J.9de#g#T#k.B.i.c.3dXQt.W#s",
".W.#.#.Gadah.G.GakaI.G.Gbo.G.G.Gaeboapaeapboapapboboapbo.Gbobobo.Gbobo.Gbobo.G.G.G.G.GdYaeak.G.G.G.G.G.Gaeadak.#.#.GahaP.#Qt.W#V",
".W.#.#.#.#.#.#.#.#.#.#.#.#.#.#.#.#.#.#.#.#.#.#.#.#.#.#.#.#.#.#.#.#.#.#.#.#.#.#.#.#.#.#.#.#.#.#.#.#.#.#.#.#.#.#.#.#.#.#.#.#.#.#.F",
".W.#.#.#.#.#.#.#.#.#.#.#.#.#.#.#.#.#.#.#.#.#.#.#.#.#.#.#.#.#.#.#.#.#.#.#.#.#.#.#.#.#.#.#.#.#.#.#.#.#.#.#.#.#.#.#.#.#.#.#.#.#.#Qt",
".W.#.#.#dZa4.#.GapakakaeakamakakahahakahahdYamarardYahaOarahaOaQaraPadaQaPaQa8a5a6a5a6aKa7a7a8asa8asadd0aO.#.#.#.#.#b6.#.#.#.#.W",
".W.#.#.#d1bababcbDd2bmd3bkd4d5d6d7d8d9e.e#eaebececd6edeeefegeheeeieiejejedekbneeecbnbnefekbkd5ehbkbkd3elemeneoepeqerecesap.#.#.W",
".W.#.#aqetbgbgbgbgbgbgbgbgbgbgbgbgbgbabcbweueubxevbybabgbgbgbgbgbgbabababgbgbgbgbgbgbgbgbgbgbgbgbgbgewexbebgbgbgbgbgbgbgap.#.#.W",
".W.#.#.GeybgbgbgbgbebebgbgbgbgbgbgbabrezeAeBeCeDeEeFeGd4eHbJbybcbLbabababgbgbgbgbgbgbgbgbgeIbAbAeJeJeKeLbgbgbgbgbgbgbgbgam.#.#.W",
".W.#.#akeMbgbgbgbaeNeObLbVbYbJbcbcbcbcePeQeReSeTeUeVeWeXeYeZe0e0e1e2e3e4e5bZbZbVbVbVbYe6e6bObObVbVbZe7e8e9bYbWbNbaf.bgbxam.#.#Qt",
".W.#.#ahf#fafbfcfdcqfe.e.C.C.V.d.d.U.U.U.dff#q.T.hfgfhfifififhfhfjabab.e.h.K.K#y#y.V.V.V.V.C.C.C.C.C.ecgdu.1.w.V.d.Vfkflfm.#.#.W",
".W.#.#ao.i.V.w.c.c#.fn#E.c.c.c.c.c.c.c.c.c.c.c.c.c.c.c.c.c.c.c.c.c.c.c.c.c.c.c.c.c.c.c.c.c.c.c.c.c.c#Eaa.c.c.V.V.c.c.c.dfo.W.#.F",
".#.#.#an.V.V.C.c.c#tfn#E.c.c.c.c.c.c.c.c.c.c.c.c.c.c.c.c.c.c.c.c.c.c.c.c.c.c.c.c.c.c.c.c.c.c.c.c.h.g.K#E.c.c.V.d.c.c.c.dfp.#.#.D",
".W.#.#fq.V.i.L.c.cab#e.e.c.c.V.V.V.c.c.c.c.c.c.c.c.c.c.c.d.d.d.d.d.d.c.c.c.c.d.d.d.d.c.c.c.V.w.V.c.cab#B.c.c.V.V.c.c.c.cfr.#.#.F",
".W.#.#ah.d.c.1.c.cab.0.e.c.V.B.v#h.wfsftdA#AdA#Xfu#h#l#T.kcvcvcv.kfv.M.v.v.v#l#T#T#l.1.i.i.B.v#r.w.cab#t.c.c.i.w.V.c.c.d.G.#.WQt",
".#.#.#aP.V.i.w.c.c#Ecgac.c#yff.C.C#4#j.x#X#7cx.z#4.b.ufw.n.n.n.n.tcIc5#a.j.B.B.C.C#O.V.d.d.i.i.i.c.cab##.c.c.d.V.V.c.c.Vbo.#.W#V",
".#.#.#aC.V.c.c.c.caccgac.c.c.V.V.V#j#j#j.c.c.c.c.V.V.C.C.C.C.C.C.C.w.C.CcL#r#S.b.u.N.N.N#kcK.w.V.c.c#Efx.c.c.c.c.V.c.c.waH.#.W#V",
".X.#.#ax.C.c.c.c.cfyfzfAfBfCfDfEfEfFfGfHfIfJfJfKfLfMfNfOfPfQfRfSfTfUfVfWfWfXfYfZf0f1f2f3f4f5f6f7f8f9g.g#gagbgc.M.V.c.V.Nad.#.W.D"};
