/* XPM */
static char *dummy[]={
"64 64 452 2",
"e9 c #6e5967",
"eZ c #6e5967",
"e8 c #6e5967",
"f# c #6e5967",
"f. c #6e5967",
"eT c #725b69",
"fb c #6e5967",
"e7 c #6e5967",
"e5 c #6e5967",
"fa c #6e5967",
"e6 c #6e5967",
"eY c #6e5967",
"e4 c #6e5967",
"e3 c #6e5967",
"e2 c #6e5967",
"eU c #6f5a67",
"e0 c #6e5967",
"e1 c #6e5967",
"eS c #765e6b",
"eV c #6e5967",
"eW c #6e5967",
"eX c #6e5967",
"aQ c #1758a3",
"#K c #1758a4",
"#L c #1759a5",
"#H c #1859a5",
"#6 c #1859a6",
"aa c #185aa6",
"ci c #1957a1",
"#B c #195aa6",
"aD c #195aa7",
"dZ c #195ba6",
"dy c #195ba7",
"a. c #1a58a2",
"#R c #1a5ba6",
"#7 c #1a5ba7",
"b# c #1a5ba8",
"bO c #1a5ca8",
"#0 c #1b59a3",
"d6 c #1b5aa4",
"cc c #1b5ca7",
"b. c #1b5ca9",
"c8 c #1b5da9",
"dP c #1b5daa",
"aj c #1c5ba6",
"el c #1c5ca7",
"d7 c #1c5da8",
"eg c #1c5da9",
"ak c #1c5daa",
"b8 c #1c5ea9",
"#U c #1c5eaa",
"d# c #1c5eab",
"dY c #1d5ca7",
"b0 c #1d5eab",
"aR c #1d5fab",
"ab c #1d5fac",
"dF c #1e5191",
"#3 c #1e5da8",
"bW c #1e5fac",
"db c #1e60ad",
"#J c #1f5da8",
"a9 c #1f5faa",
"#A c #1f60ac",
"b6 c #1f60ad",
"dp c #1f61ae",
"d4 c #1f62af",
"#T c #205ba3",
"au c #2062af",
"cj c #2063af",
"d8 c #2162b0",
"#y c #2163b0",
"a# c #2164b1",
"#i c #225493",
"#t c #225697",
"cq c #2264b1",
"cy c #2264b2",
"cg c #2265b2",
"dz c #2366b3",
"#h c #245a9c",
"cH c #2464ae",
"da c #2467b4",
"#r c #25599c",
"#s c #255b9e",
"cs c #2567b3",
"cw c #2567b5",
"bM c #2568b6",
"dG c #265795",
"cd c #2667b3",
"bp c #2668b6",
"ac c #2669b7",
"d9 c #2765af",
"dh c #2769b7",
"#5 c #276ab8",
"cY c #276bb9",
"eb c #28599a",
"dQ c #285a99",
".6 c #285b9d",
"bv c #285d9f",
"bg c #2860a5",
"#x c #286ab8",
"an c #286bb9",
"am c #286bba",
"bj c #295998",
"cE c #296cba",
"a5 c #2a5b9b",
"bi c #2a63a8",
"d0 c #2a6ab5",
"bN c #2a6dbc",
"#u c #2b5996",
"#w c #2b6cb7",
"dg c #2b6ebc",
"al c #2b6ebd",
"#4 c #2b6fbd",
"bo c #2b6fbe",
"#1 c #2c6fbb",
"bT c #2c6fbe",
"bn c #2c70be",
"ao c #2c70bf",
"dH c #2d5894",
"bX c #2d70bf",
"#z c #2d71bf",
"ad c #2d71c0",
"#E c #2e5e9d",
"#I c #2e61a2",
"ef c #2e63a7",
"aS c #2e72c1",
"d. c #2f62a5",
"#o c #2f64a5",
"cU c #2f64a8",
"bf c #2f66a9",
"#m c #2f71be",
".P c #2f72bf",
".T c #2f72c0",
".S c #2f72c1",
"## c #2f73c1",
"#. c #2f73c2",
"eh c #3067a9",
".O c #306bb0",
"aL c #306bb2",
".U c #306fb9",
".R c #306fbb",
".Q c #3071be",
"b9 c #3073c1",
"aX c #3074c3",
"co c #3167aa",
"#n c #3169ad",
"aE c #316aaf",
"aq c #316bb1",
".V c #316bb2",
"#a c #316cb3",
"ap c #316cb4",
"cC c #3171bb",
"bd c #3175c4",
"#q c #325c94",
".7 c #32619e",
".z c #3266a8",
"av c #3269ad",
"bH c #3276c5",
".5 c #3368aa",
"#O c #3371bc",
"a4 c #3372bb",
"cn c #3373bf",
"#P c #3374c0",
"df c #3374c1",
"aW c #3377c6",
"#2 c #346fb8",
"bm c #3474c0",
"cP c #3477c5",
"dR c #3478c6",
"bP c #3478c7",
"b5 c #3562a1",
"ae c #3569aa",
"aw c #356aad",
"dl c #3574c0",
"aY c #3579c8",
"bC c #3668a9",
"aT c #367ac9",
"di c #3764a1",
"ek c #3765a2",
"#l c #376bad",
"#Q c #376db2",
".L c #376eb1",
"bh c #3777c2",
"d2 c #377ac8",
"ba c #377bca",
"cv c #387ac7",
"bs c #387ccb",
"bS c #3965a1",
"d1 c #3972ba",
"dI c #3975bc",
"c0 c #397ac6",
"aV c #397dcc",
"em c #3a649f",
"e. c #3a7ac7",
"bt c #3a7ecd",
"bG c #3b6cab",
"bz c #3b7fce",
"#b c #3c6299",
".K c #3c79c1",
"br c #3c80cf",
"cD c #3d66a1",
".W c #3d6cac",
"cm c #3d7fcd",
"a3 c #3d80cd",
"bc c #3d81d0",
"ec c #3e5887",
"#S c #3e66a0",
"c. c #3e7ac2",
"dJ c #3e80cd",
"aU c #3e82d1",
"dm c #3f77be",
"a1 c #3f79bf",
"#d c #3f7ac1",
"a2 c #3f82d1",
"cf c #3f83d1",
"bq c #3f83d2",
"bw c #405f92",
"#N c #4076bb",
"aK c #4083d2",
"as c #4084d3",
"bI c #4184d3",
"aA c #4185d4",
"cK c #4284d1",
".Z c #4284d2",
".0 c #4285d3",
"bb c #4286d5",
".A c #4369a0",
"aZ c #436ba4",
"cx c #4376ba",
"dD c #4383cf",
"cW c #4385d3",
".k c #4386d4",
"cF c #4478bc",
"ce c #4484ce",
".E c #4485d2",
"aH c #4485d3",
"dS c #4586d2",
"aP c #466394",
"cb c #46679b",
"#G c #46689d",
".H c #4686d1",
"cB c #4687d3",
"aI c #4688d4",
"cN c #47689c",
"cp c #47689d",
"dN c #4786d1",
"cS c #48699c",
".D c #487ec2",
".u c #4886d1",
"dM c #4888d1",
"dv c #49679d",
"c4 c #4972ab",
"c3 c #4981c8",
"d3 c #4986d0",
".r c #4987d2",
".e c #4a88d2",
"dV c #4b85cd",
"aJ c #4b8ad4",
"cO c #4c6a9d",
"dw c #4c6ea2",
"dC c #4c7ab7",
"b7 c #4c85cb",
".1 c #4c8ad4",
"#Z c #4d6c9b",
"ag c #4d89d1",
"ea c #4e6ca0",
"#F c #4e6d9f",
"ar c #4e89d1",
"#c c #4f6897",
"d5 c #4f6ea1",
"#D c #506896",
"do c #516a9a",
"#e c #5189ca",
"dW c #5287cb",
"c7 c #536a98",
"ee c #536fa0",
"bU c #537ebb",
"ck c #538aca",
"cV c #538bce",
"bD c #5475ae",
"a8 c #5570a0",
".f c #558dd0",
"ah c #558fd2",
"ej c #566e9c",
"bl c #5771a0",
".I c #5790d3",
"en c #586c97",
"dE c #586f9d",
"b2 c #5888c9",
"cR c #5891d3",
".v c #598dcc",
".M c #5a79aa",
".n c #5a8ece",
"#g c #5a91d0",
".m c #5a92d3",
"cu c #5b91d1",
"#8 c #5c5a73",
"bA c #5c78a7",
".9 c #5d5872",
"dn c #5e75a2",
"c9 c #5e76a3",
"c1 c #5e7fbc",
"ax c #5f688b",
"cr c #5f75a2",
".s c #5f94d3",
"at c #604f5c",
".2 c #6094d2",
"ay c #6095d3",
"b1 c #617cab",
"bV c #625567",
"cG c #62566a",
"ai c #6289c3",
"cl c #6293ce",
"cz c #6295d1",
".J c #6296d3",
"dA c #63586d",
"#j c #63596e",
"dB c #635f79",
"cL c #636481",
"cA c #6396d2",
"dx c #645362",
"dU c #6497d3",
"du c #65596d",
".3 c #6597d0",
"ct c #6597d1",
".l c #6597d2",
"az c #6697d2",
"dL c #6698d2",
"cM c #67505b",
"bY c #67515c",
"e# c #6789c0",
"cJ c #6798d2",
"cX c #6889c0",
"#f c #6899d2",
".t c #6999d2",
"dq c #6a8abe",
"cQ c #6a9ad1",
".4 c #6a9ad2",
"dr c #6b8abe",
"cI c #6b9bd2",
"#k c #6c5b6d",
"dO c #6c92c6",
"dT c #6c9bd2",
"a0 c #6d7ca3",
"dK c #6d9cd2",
".b c #6e5967",
"b3 c #6e8bbe",
"eO c #6f5967",
"eQ c #6f5a67",
"eP c #6f5a68",
"eR c #705b68",
"eN c #715b69",
"dc c #737694",
"ds c #748bb9",
".y c #7b7791",
".w c #7f83a4",
"bK c #806986",
".j c #828db4",
"bB c #857d93",
".F c #868db0",
".G c #878daf",
"c5 c #898dae",
"dt c #8b8ead",
"#M c #8f6b81",
"aO c #8f7985",
"a7 c #8f7f90",
"#Y c #917984",
"#V c #927780",
".8 c #938190",
".B c #948393",
"bx c #968290",
"eo c #968f99",
"be c #997373",
"aG c #9a8fa5",
"dk c #9c706a",
"c# c #9c818b",
"ei c #9c8591",
".q c #9c90a5",
"by c #9d706a",
"de c #9d706b",
"aC c #9d7f86",
".g c #9d98ad",
"ed c #9e8590",
"c2 c #9f7d80",
"#9 c #a07c7b",
"ca c #a16d7c",
".Y c #a17285",
"af c #a290a1",
"ch c #a398a0",
"dd c #a4877e",
"cT c #a49ca6",
"eD c #a66e79",
"bR c #a8888e",
".x c #a9868a",
"ep c #a9878b",
"ex c #aa8284",
"aN c #aa8688",
"dj c #aa868a",
"dX c #aa898e",
".d c #aa919d",
"ey c #ab8384",
"#W c #ab8688",
"c6 c #aba5b1",
"bZ c #ac8382",
"#X c #ac8484",
"er c #ac8485",
".X c #ac898e",
"bk c #ac8b90",
"aF c #ac8b91",
"Qt c #ad707b",
"ez c #ad8485",
"bQ c #ae898b",
"bL c #ae8a8e",
"b4 c #ae8c92",
"eA c #b18887",
"ew c #b28888",
"es c #b38988",
"aM c #b38e90",
"eK c #b48989",
"eM c #b48a89",
"et c #b58a89",
"a6 c #b58e8e",
"cZ c #b58e90",
".N c #b59297",
"eB c #b68b8a",
"#C c #b68f90",
".h c #b77f83",
"bu c #b78883",
"bJ c #b79396",
"eE c #b88d8b",
".C c #b89396",
"ev c #b98d8b",
"eL c #ba8e8c",
".o c #ba9395",
"eF c #bb8e8c",
"eI c #bb8f8c",
"#p c #bb9190",
"eJ c #bc8f8c",
"eH c #bc8f8d",
"#v c #be9393",
"eu c #c0928f",
"eC c #c1928f",
"eG c #c1938f",
".p c #c19491",
"eq c #c2938f",
".c c #c29490",
".i c #c29491",
".# c #c39490",
"bF c #c3ada9",
"bE c #c5ada9",
".a c #d1b1a5",
"aB c #dccabe",
"Qt.#.#.#.#.a.a.a.a.a.#.#.a.#.#.#.#.#.#.#.#.#.#.#.#.#.#.#.#.#Qt.bQt.#.#.#.#.a.a.a.a.a.#.#.a.#.#.#.#.#.#.#.#.#.#.#.#.#.#.#.#.#Qt.b",
".#.#.#.#.#.#.#.#.#.#.#.#.#.#.#.#.#.#.#.#.#.#.#.#.#.#.#.#.#.#.#.b.#.#.#.#.#.#.#.#.#.#.#.#.#.#.#.#.#.#.#.#.#.#.#.#.#.#.#.#.#.#.#.b",
".#.#.#.#.#.#.#.#.#.#.#.#.#.#.#.#.#.#.#.#Qt.#QtQtQtQtQt.#.#.b.b.b.#.#.#.#.c.d.e.f.g.#.#.#.#.#.#.#.#.#.#.#Qt.#QtQtQtQtQt.#.#.b.b.b",
".#.#.#.#.#.#.#.#.#.#.#.#.#.#.#.#.#.#.#.#.#.a.#.a.a.a.#.#.#.#.h.b.#.c.#.i.j.k.l.m.n.o.#.#.#.#.#.#.#.#.#.#.#.a.#.a.a.a.#.#.#.#.h.b",
".#.#.#.#.#.#.#.#.#.#.#.#.#.#.#.#.#.#.#.#.#.#.#.#.#.#.#.#.#.#.#.b.#.i.p.q.r.s.t.u.v.w.#.#.#.#.#.#.#.#.#.#.#.#.#.#.#.#.#.#.#.#.#.b",
".#.#.#.#.#.#.#.#.#.#.#.#.#.#.#.#.#.#.#.#.x.y.z.A.B.#.#.#.#.#.C.D.E.F.G.H.I.J.K.L.M.N.#.#.#.#.#.#.#.#.#.#.#.#.#.#.#.#.#.#.#.#.#.b",
"Qt.#.#.#.#.#.#.#.#.#.#.#.#.#.#.#.#.#.O.P.Q.R.S.T.U.V.W.X.#.#.Y.Z.0.1.2.3.4.5.6.7.8.#.#.#.#.#.#.#.#.#.#.#.#.#.#.#.#.#.#.#.#.#Qt.b",
".b.b.b.b.b.b.b.b.b.b.b.b.b.b.b.b.b.9#.#.#.#.##.S##.P.U#a#b.b.b#c#d#e#f#g#h#i#j#k.b.b.b.b.b.b.b.b.b.b.b.b.b.b.b.b.b.b.b.b.b.b.b.b",
".a.a.a.#.#.#.#.#.#.#.#.#.#.#Qt.bQt#l#.#.#.#.#.#.#.##.S#m#n#o.##p#q#r#s#t#u#v.#.#.#.#.#.#.#.#Qt.bQt.#.#.#.a.#.a.a.a.a.a.#.#.#.#.#",
".#.#.#.#.#.#.#.#.#.#.#.#.#.#.#.b.##w#x#y#z#.#.#####.#.#.#.#A#B.##C#D#E#F#C.#.#.#.#.#.#.#.#.#.#.b.#.#.#.#.#.#.#.#.#.#.#.#.#.#.#.#",
".#.#.#.#.#.#.#QtQt.#Qt.#.#.b.b.b.##G#H#I#J#z#.#.#.#.#.#.#.#y#K#L.#.#.#.#.#.#.#Qt#M#N#O###P#Q.b.b.#.#.#.#.#.#.#.#.#.#.#.#.#.#.#.#",
".#.#.#.#.#.#.a.#.a.a.#.#.#.#.h.b.#.##R#S#T#U#.#.#.#.#.#.#.#.#B#K#B#V#W.##X#Y#Z#0#1##.S#.#.###2.b.#.#.#.#.#.#.#.#.#.#.#.#.#.#.#.#",
".#.#.#.#.#.#.#.#.#.#.#.#.#.#.#.b.#.#.##3#H#K#4#.#.#.#.#.#.#.#5#6#K#L#H#H#K#K#H#7#z#.##.S#.#..S#8.#.#.#.#.#.#.#.#.#.#.#.#.#.#.#.#",
".#.#.#.#.#.#.#.#.#.#.#.#.#.#.#.b.#.#.##9a.#Ka##.#.#.#.#.#.#.#.#yaa#H#H#H#Babacad#.#.#..T###.#mae.#.#afagahai.#.#.#.#.#.#.#.#.#.#",
".#.#.#.#.#.#.#.#.#.#.#.#.#.#Qt.bQt.#.#.#aj#Kak#.#.#.#.#.#.#.#.#.alamanao#.#.#.#.#.#.#.#.#.#.apaqQt.#ar#f.2as.#.#.#.#.#.#.#.#.#.#",
".b.b.b.b.b.b.b.b.b.b.b.b.b.b.b.b.b.b.bat#B#Kau#.#.#.#.#.#.#.#.#.#.#.#.#.#.#.#.#.#.#.#.#.#..Qavaw.baxayazaAaA.b.b.b.b.b.b.b.b.b.b",
"Qt.#.#.#.a.#.a.aaBaBaB.a.#.a.a.#.#.#aC#H#KaDad#.#.#.#.#.#.#.#.#.#.#.#.#.#.#.#.#.#.#.#.#.#.#maEaFaGaHaIaJaKaLaM.#.#.#.#.#.#.#Qt.b",
".#.#.#.#.#.#.#.#.#.#.#.#.#.#aNaOaPaQ#K#KaRaS#.#.#.aTaUaUaVaW#.#.#.#.#.#.#.aXaYaYaX#.#.#.#.##aZ.#a0a1a2a3a4a5.#.#.#.#.#.#.#.#.#.b",
".#.#.#.#.#.#.#.#.#a6a7a8a9b.akb##K#Hau#4#.#.#.#.baasaAaAbbaAbcbd#.#.#.#.baaAaAasaT#.#.#.#.#.be.#bfbgbhbibjbk.#.#.#.#.#.#.#.#.#.b",
".#.#.#.#.#.#.#blbm#.#.#.aobnaSbobp#.#.#.#.#.#.aXbqbraAaAbbbbbbasaY#.#.bsaAbbaAbqbt#.#.#.#.#.bu.#.#bvbwbx.#.#.#.#.#.#.#.#.#.#.h.b",
".#.#.#.#.#.##.#.#.#.#.#.#.#.#.#.#.#.#.#.#.#.#.baaAaAbbbbaAaAbbbbbbasaUaAbbbbaAaUbt#.#.#.#.#.by.#.#.#.#.#.#.#QtQt.#Qt.#.b.b.b.b.b",
".#.#.#.#.#.##.#.#.#.#.#.bdbaaYaX#.#.#.#.#.aXbzaAbbbbaAbbbbaAaAaAbbbbbbbbbbaAaAasaT#.#.#.#.bqbA.#.#.#.#.#.#.#.#.#.a.#.a.a.#.#.#.b",
"Qt.#.#.#.#bB#.#.#.#.#.aXaAbbbbbbaAbbbbaAasaAbbbbbbbbbbbbbbbbbbbbbbbbbbbbbbaAbbbtaX#.#.#.#.aAbq.#.#.#.#.#.#.#.#.#.#.#.#.#.#.#Qt.b",
".b.b.b.b.bbC#.#.#.#.#.aTbbbqbbbbbbbbbbbbbbbbbbbbbbbbbbbbbbbbbbbbbbbbbbbbbbaAasbd#.#.#.#.#.bcbb.b.b.b.b.b.b.b.b.b.b.b.b.b.b.b.b.b",
".#.#.#.#.##.#.#.#.#.#.aWbbbbbbbbbbbbbbbbbbbbbbbbbbbbbbbbbbbbbbbbasbbbbbbbbaAasaT#.#.#.#.#.bdbbbbbD.#.#.#.a.#.abEbFaBaBaB.a.a.#.#",
".#.#.#.#.#bG#.#.#.#.#.#.aVaAbbbbaAbbbbbbbbbbbbbbbbbbbbbbbbbbbbbbbbbbbbbbbbaAaAbcbH#.#.#.#.#.bzbbbbbI.#.#.#.#.#.CbJ.#.#.#.#.#.#.#",
".#.#.#.#QtbK#.#.#.#.#.#.#.bHbcbbbbbbbbbbbbbbbbbbbbbbbbbbbbbbbbbbbbbbbbbbbbbbaAbqasbtbd#.#.#.#.brbbbbaAbL.#.#.#.#.#.#.#.#.#.#.#.#",
".#.#.#.#.#.abMbN#.#.#.#.#.#.#.aXbHaTbzaAbbaAbbbbbbaAbbbbbbbbbbbbbbbbbbbbbbbbbbaAbqasbqaW#.#.#.#.aVaAbbaAaV.#.#.#.#.#.#.#.#.#.#.#",
".#.#.#.#.#.#aQ#LbOac#.#.#.#.#.#.#.#.#.aXbzbbbbbbbbaAaAbbbbbbaAbbbbbbbbbbbbbbbbbbbbbbbqbqbd#.#.#.#.bPbqbbaAbQ.#.#.#.#.#.#.#.#.#.#",
".#.#.#.#.#.#.#bR#H#K#7bM.S#.#.#.#.#.#.#.#.baaAbbbbbbbbbbbbbbbbbbbbbbbbbbbbbbbbbbbbbbaAasbs#.#.#.#.#.aXbcbbaA.#.#.#.#.#.#.#.#.#.#",
".#.#.#.#.#.#.#.#.#bS#K#KakbT#.#.#.#.#.#.#.#.bqbbaAbbbbaAaAbbbbbbbbbbbbasaAbbbbbbbbbbbbbqbr#.#.#.#.#.#.#.bqbbbU.#.#.#.#.#.#.#.#.#",
".b.b.b.b.b.b.b.b.b.bbV#H#K#KbWbX#.#.#.#.#.#.brbbaAbbbbbbasbbbbbbbbbbaAbqbrbqaAbbbbbbbbasaV#.#.#.#.#.#.#.aWbbbbbY.b.b.b.b.b.b.b.b",
"Qt.#.#.#.#.a.a.a.a.a.#bZ#K#K#Lb0#z#.#.#.#.#.btbbaAbbbbaAbbbbbbbbaAasaUbzaVbrbqbcaUasbcasbP#.#.#.#.#.#.#.#.asbbb1.#.#.#.#.#.#Qt.b",
".##mbcbbb2b3b4.#.#.#.#.#b5#K#K#Bb6#.#.#.#.#.aVbbbbbbbbbbbbbbbbasasbsaX#.#.#.aYbcbqaUbqaUaX#.#.#.#.#.#.#.#.bzbbb7.#.#.#.#.#.#.#.b",
".#b8b9brbbbbbbc..#.#.#.#c##K#H#H#K#5#.#.#.#.aVbbbbbbbbbbbbbbaAasba#.#.#.#.#.#.aXbPaVbtbH#.#.#.#.#.#.#.#.#.aWbbbbcaQtQt.#.#.b.b.b",
".#cbcccdbdcebqcf.#.#.#.#.##H#K#K#Lcg#.#.#.#.aTaAbbbbbbbbaAbqasaT#.#.#.#.#.#.#.#.#.#.#.#.#.#.#.#.#.#.#.#.#.aXaAaAch.a.#.#.#.#.h.b",
".#.#ci#Kcjckclcmcnco.#.#.#cp#K#K#Kcq#.#.#.#.bPasaAbbbbbqbqbcbP#.#.#.aXbsaUbcaVbPaX#.#.#.#.#.#.#.#.#.#.#.#.#.brascr.#.#.#.#.#.#.b",
".#.#.#a.#6csctcucv.P.#.#.#.##K#L#Kcw#.#.#.#.#.brasaUbqaUbaaX#.#.#.#.baaAasbbbbbbbbasbqaUbrbPaX#.#.#.#.#.#.#.aWascx.#.#.#.#.#.#.b",
"Qt.#.#.x#7cyczcAcBcC.#.#.#cD#K#K#KcE#.#.#.#.#.#.babsaYbd#.#.#.#.#.#.aUaAaAbbbbaAaAbbbbaAaAasbz#.#.#.#.#.#.#.bdascF.#.#.#.#.#Qt.b",
".b.b.bcG#HcHcIcJcKcL.b.bcMbO#H#K#HbX#.#.#.#.#.#.#.#.#.#.#.#.#.#.#.bHaAbqasbrbd#.aXaTbrbqbqasbr#.#.#.#.#.#.#.bdascN.b.b.b.b.b.b.b",
".a.a.acO#HcPcQcR.0.c.#.#cS#B#K#Kab#.#.#.#.#.#.#.#.#.#.#.#.#.#.#.#.#.aTbtaVaX#.#.#.#.#.bHbsbtaX#.#.#.#.#.#.#.aWaAcT.a.a.#.#.#.#.#",
".#.#.#cUcwcVcRcWcX.#.#.##Haa#K#HcY#.#.#.#.#.#.#.#.#.#.#.#.#.#.#.#.#.#.#.#.#.#.#.#.#.#.#.#.#.#.#.#.#.#.#.#.#.baascZ.#.#.#.#.#.#.#",
".#.#.#.Vc0.Z.Ec1Qt.#Qtc2#Kb##K#7aS#.#.#.#.#.#.#.#.#.#.#.#.#.#.#.#.#.#.#.#.#.#.#.#.#.#.#.#.#.#.#.#.#.#.#.#.bHaUc3.#.#.#.#.#.#.#.#",
".#.#.#.zc4c5c6.#.a.a.#c7#Hc8#Kc8#.#.#.#.#.#.#.#.#.#.#.#.#.#.#.#.#.#.#.#.#.#4bT#.#.#.#.#.#.#.#.#.#.#.#.#.bHbraUc9.#.#.#.#.#.#.#.#",
".#.#.#.#.#.#.#.#.#.#.#d.#Hd##LbO#.#.#.#.#.#.#.#.#.#.#.#.#.#.#.#.#.cEdaaoau#Hdbdcdd.adedcdf#.#.#.#.#.#.#.btbqaT.#.#.#.#.#.#.#.#.#",
".#.#.#.#.#.#.#.#.#.#.#d.#HaD#K#Bdg#.#.#.#.#.#.#.#.#.#.#.#.#.#.#.dh#6#B#Bdidj.#.#.#.#.#.#.#dkdl#.#.#.#.#.dmdn.#.#.#.#.#.#.#.#.#.#",
".#.#.#.#.#.#.#.#.#.#.#do#Kb##K#BdpaS#.#.#.#.#.#.#.#.#.#.#.#.cEb##K#Hb#bR.#.#.#dqdrdsdt.d.#.#Qtdudv#.dwcZ.#.#.#.#.#.#.#.#.#.#.#.#",
".b.b.b.b.b.b.b.b.b.b.bdx#K#K#K#Ldydz#.#.#.#.#.#.#.#.#.addac8#L#K#Kdy.b.bdAdBdCdDcKdD.ZcKdE.b.b.b.b.b.b.b.b.b.b.b.b.b.b.b.b.b.b.b",
"Qt.#.#.#.a.#.a.aaBaBaB.abS#K#K#K#H#BbM#.#.#.#.#.bMb0#H#K#H#H#K#K#H.#.#dFdGdHdIdJ#fdKdLdMdNdO.a.#.#.#.#.#.#.#.#.#.#.#.#.#.#.#Qt.b",
".#.#.#.#.#.#.#.#.#.#.#.#.#dP#K#K#K#K#Kaab.d#akb.#K#K#K#K#K#K#Kb0.#.#.#dQdydpandRdS.tdTdUdVdW.p.#.#.#.#.#.#.#.#.#.#.#.#.#.#.#.#.b",
".#.#.#.#.#.#.#.#.#.#.#.#.#.#c8#K#K#K#K#K#K#K#K#K#K#K#K#K#K#Kb#.b.#.#.#.#dXdYdZb6d0d1d2aAaAd3.#.#.#.#.#.#.#.#.#.#.#.#.#.#.#.#.#.b",
".#.#.#.#.#.#.#.#.#.#.#.#.#.#.#d4#K#K#K#K#K#K#K#K#K#K#K#K#Kdy.h.b.#.#.#.#.#.#d5dYd6d7d8d9e.e#.#.#.#.#.#.#.#.#.#.#.#.#.#.#.#.#.h.b",
".#.#.#.#.#.#.#.#.#.#.#.#.#.#.#.#ea#B#H#BaD#7#7#6#K#K#Kebec.b.b.b.#.#.#.#.#.#.#.#edeeefegeh.#.#.#.#.#.#.#.#.#QtQt.#Qt.#.b.b.b.b.b",
".#.#.#.#.#.#.#.#.#.#.#.#.#.#.#.#.#.#eiejekelemeneoep.a.a.#.#.#.b.#.#.#.#.#.#.#.#.#.#.#.#.#.#.#.#.#.#.#.#.#.#.#.#.a.#.a.a.#.#.#.b",
"Qt.#.#.#.#.#.#.#.#.#.#.#.#.#.#.#.#.#.#.#.#.#.#.#.#.#.#.#.#.#Qt.bQt.#.#.#.#.#.#.#.#.#.#.#.#.#.#.#.#.#.#.#.#.#.#.#.#.#.#.#.#.#Qt.b",
".b.b.b.b.b.b.b.b.b.b.b.b.b.b.b.b.b.b.b.b.b.b.b.b.b.b.b.b.b.b.b.b.b.b.b.b.b.b.b.b.b.b.b.b.b.b.b.b.b.b.b.b.b.b.b.b.b.b.b.b.b.b.b.b",
".#.#.#.#.#.#.#.#.#.#.#.#.#.#Qt.bQt.#.#.#.a.#.a.a.aaBaBaB.a.a.#.#.#.#.#.#.#.#.#.#.#.#.#.#.#.#Qt.bQt.#.#.#.a.#.a.a.aaBaBaB.a.a.#.#",
".#.#.#.#.#.#.#.#.#.#.#.#.#.#.#.b.#.#.#.#.#.#.#.#.#.#.#.#.#.#.#.#.#.#.#.#.#.#.#.#.#.#.#.#.#.#.#.b.#.#.#.#.#.#.#.#.#.#.#.#.#.#.#.#",
".#.#.#.#QtQtQt.#.#Qt.#.#.b.b.b.b.#.#.#.#.#.#.#.#.#.#.#.#.#.#.#.#.#.#.#.#QtQtQt.#.#Qt.#.#.b.b.b.b.#.#.#.#.#.#.#.#.#.#.#.#.#.#.#.#",
".#.#.#.#.#.a.#.#.#.a.a.#.a.#.h.b.#.#.#.#.#.#.#.#.#.#.#.#.#.#.#.#.#.#.#.#.#.a.#.#.#.a.a.#.a.#.h.b.#.#.#.#.#.#.#.#.#.#.#.#.#.#.#.#",
".#.#.#.#.#.#.#.#.#.#.#.#.#.#.#.b.#.#.#.#.#.#.#.#.#.#.#.#.#.#.#.#.#.#.#.#.#.#.#.#.#.#.#.#.#.#.#.b.#.#.#.#.#.#.#.#.#.#.#.#.#.#.#.#",
".#.#.#.#.#.#.#.#.#.#.#.#.#.#.#.b.#.#.#.#.#.#.#.#.#.#.#.#.#.#.#.#.#.#.#.#.#.#.#.#.#.#.#.#.#.#.#.b.#.#.#.#.#.#.#.#.#.#.#.#.#.#.#.#",
".#.#.#.#.#.#.#.#.#.#.#.#.#.#Qt.bQt.#.#.#.#.#eqereseteu.#.#.#.#.#euevewexeyezeAeBeC.#.#.#.#.#Qt.beDeEeFeG.#.#.#eHeIeHeJeBeKeLeLeM",
"eNeOeOePeQeReSeTeUeVeWeXeVeVeYeZe0eW.beVe1eX.beXeXe2e1eXeWeVe1eXeXe3e0e4e5e6eYe6e7e8eZe9e2eX.b.b.beXeXeWe1f.f#fafbfbe4e1e1e1e0e0"};
