/* XPM */
static char *dummy[]={
"64 64 448 2",
"Qt c None",
"#h c None",
".o c None",
".1 c None",
".x c None",
"eU c None",
".G c None",
"e9 c None",
".u c None",
".9 c None",
"e7 c None",
".Q c None",
".H c None",
".6 c None",
"bd c #000000",
".P c #99460b",
"cJ c #b02700",
".2 c #e02909",
"e8 c #faebeb",
".y c #fbffff",
".t c #fe002c",
".e c #ffffff",
"a# c #fcffff",
".b c #fdffff",
"dO c #ffffff",
"#I c #da1606",
"#0 c #fe3317",
"eM c #000000",
"bw c #ff1e12",
"el c #2f2c18",
"bU c #e32315",
"#o c #f00a12",
"dB c #4d472c",
".M c #e32815",
"dm c #4b300a",
"ea c #644215",
".7 c #6a3013",
"#Z c #a84420",
".l c #e22811",
".E c #e22815",
"#. c #e33516",
"bv c #e33b1e",
".U c #e52d13",
"b9 c #e62b1d",
"bI c #eb9389",
"#M c #000000",
"ak c #c80018",
"al c #e31e0e",
"cI c #3f1e03",
".n c #752f12",
"ap c #d33115",
".8 c #e02a16",
"bJ c #e32915",
"aa c #e33217",
".N c #e42b1b",
".5 c #f3641a",
".4 c #e22614",
".T c #e32714",
".s c #e32915",
"ao c #e43316",
".A c #7c2b12",
"ab c #e33416",
".K c #e51d09",
"eC c #ffffff",
"#l c #9b0c10",
"bS c #dd0300",
"aF c #e12415",
"#m c #df601a",
"cL c #fafdfd",
"c5 c #b84336",
"cK c #b42e14",
".B c #ffffff",
".# c #fafcfc",
"eT c #faf5f5",
".O c #fafdfd",
"c4 c #d5c8c5",
".I c #fbf9fb",
"bx c #fafcfc",
".v c #fafdfd",
".V c #fbf9fa",
"eB c #f7f5f4",
"#s c #faf2f1",
"a1 c #fafcfd",
".d c #f4cbc7",
"bH c #fbf0ef",
"e6 c #6a3212",
"c. c #fafdfd",
"cq c #f3f4f4",
".h c #f9fefd",
".i c #fafbfc",
"aK c #fafcfc",
"a0 c #faf5f3",
"dN c #fef6f5",
"a. c #faf6f5",
"e5 c #821711",
"eV c #732f13",
"eW c #832813",
"e4 c #ea721f",
"c6 c #782d12",
"bT c #e33417",
"d2 c #7a3815",
"e# c #833415",
"#N c #b03115",
"ar c #e03717",
".f c #e32816",
"bg c #e33417",
"bV c #e52716",
"eX c #e86e1e",
".D c #e32815",
"bu c #e3381e",
"dl c #822710",
"#Y c #b33720",
"aI c #e13d22",
"b8 c #e52e1f",
".Z c #e32816",
"bf c #8e2a13",
".k c #e32512",
"#b c #e32d1c",
"e3 c #fbdb16",
"#n c #742e12",
"#p c #e33417",
"## c #e33417",
"#c c #722f13",
"a3 c #8b2913",
".X c #e32816",
".Y c #e33417",
"eY c #fbd914",
"b1 c #e79921",
"bX c #e79921",
"#A c #e32816",
"#g c #5e3913",
".0 c #b32f15",
"ag c #ee2f17",
"d4 c #f09820",
"d8 c #f09920",
"bM c #f09e22",
"bL c #f19f22",
"dQ c #f1d612",
"dY c #f2d611",
"cR c #f2d612",
"dh c #e99b21",
"cu c #ed9b21",
"dx c #f09b21",
"dK c #f09e21",
"cD c #f09f21",
"cX c #f2da13",
"cU c #f3d813",
"cC c #f3da13",
".R c #e32a18",
"cc c #e79722",
"ce c #e79821",
"bY c #e79822",
"bZ c #e79921",
"cl c #e89822",
"dZ c #e89a21",
"cz c #e89c20",
"ep c #f09820",
"eh c #f09920",
"dn c #f19820",
"c9 c #f19920",
"dg c #f19a21",
"dC c #f2d612",
"dD c #f2d713",
"cv c #f3d713",
"cO c #f3d813",
"do c #e59622",
"ci c #e89b21",
"ch c #e99d21",
"cP c #efd410",
"ex c #f19e21",
"d7 c #f2d612",
"dJ c #f3db1b",
"dd c #f4d813",
"cB c #f4d913",
"cj c #e3c906",
"b0 c #e9a122",
"#3 c #ee2f17",
"cW c #f0d410",
"cd c #e3c806",
"d. c #e3c906",
"de c #e4ca07",
"ec c #e7cb08",
"eg c #e8cb09",
"d# c #f5dd35",
"eZ c #fbd914",
"eL c #782d12",
"#J c #e43417",
"e2 c #fbd914",
".3 c #e32816",
"be c #e52311",
".p c #de2d16",
"#j c #e32916",
".L c #e32816",
"e1 c #f4d814",
"#L c #743013",
"#K c #d34118",
"a2 c #e12e1c",
"eS c #e32311",
"ek c #783118",
"eK c #db331c",
"dA c #803d1f",
".C c #e32d1d",
"ah c #f76b1c",
"cT c #fbe319",
".j c #e32f20",
"aJ c #d43416",
"aG c #e32816",
"az c #fa9b21",
"eR c #e23416",
".c c #e33215",
"am c #e33317",
"dT c #f1d613",
"bN c #f29f20",
"dc c #f3d914",
"dH c #f4d914",
"du c #f8de18",
"d6 c #fae119",
"#B c #e22a15",
".W c #e32d1c",
"eQ c #fad813",
"d1 c #7e3515",
"#H c #e22a15",
"bm c #e32816",
"bc c #e33317",
"an c #e33417",
"bK c #f29f20",
"b2 c #f2a120",
"dt c #fae219",
"cE c #a75016",
"di c #dd5f1a",
"ay c #df2b16",
"ax c #e22916",
"aQ c #e32816",
".r c #e32916",
"c0 c #e52f16",
".J c #e62b1c",
"dL c #ec2a16",
"d9 c #ed2616",
"d0 c #ed2a16",
"cm c #ed661a",
"#i c #ee2f17",
"#S c #ef2f17",
"dy c #ef3718",
"e0 c #f0d612",
"cx c #f19e21",
"bO c #f1a021",
"b4 c #f1a120",
"bl c #f29f20",
"bD c #f29f21",
"ck c #f3a51e",
"cV c #f4da14",
"cZ c #f5681c",
"df c #f9a41d",
"a7 c #f9a51d",
"db c #fae219",
"eP c #fee706",
"dR c #070707",
"dX c #151515",
"#x c #6e3213",
"#t c #732f13",
".w c #752e12",
"#F c #7a2f13",
"cr c #7a3815",
"dP c #7b3815",
".z c #7d2b13",
"cH c #813515",
"#y c #873714",
"cN c #8b3916",
"#D c #8e3915",
"cM c #8f3c16",
"c2 c #8f3d17",
"au c #8f3e15",
"aC c #924115",
"c3 c #943b14",
"eA c #a1300f",
"em c #a13514",
"#Q c #a43814",
"ct c #a44c15",
"cp c #a74011",
"#T c #a83d15",
"c# c #a84317",
"cs c #c65618",
"c1 c #c95417",
"#u c #d03f18",
"aq c #d43316",
"eD c #d93516",
"c8 c #dc5b19",
"ac c #dd2f17",
"es c #dd3e17",
"aj c #de3117",
"et c #de3e17",
"eO c #de3f17",
".m c #df2d16",
"a5 c #df9224",
"b3 c #df9424",
"a9 c #df9524",
"#r c #e02912",
"#f c #e02b16",
"b7 c #e03817",
"eH c #e03d18",
"ad c #e12a16",
"bW c #e13617",
"#9 c #e2240f",
"bG c #e22612",
"e. c #e22816",
"bh c #e22916",
"ai c #e22d16",
"cG c #e23717",
"av c #e23d17",
"#a c #e32612",
"ej c #e32716",
".S c #e32815",
".g c #e32816",
".q c #e32915",
"#v c #e32916",
"aY c #e32a16",
"#8 c #e32b16",
"b6 c #e33317",
".a c #e33417",
"#q c #e33517",
"aB c #e33e17",
"#X c #e42715",
"#7 c #e42716",
".F c #e42816",
"bs c #e42916",
"aX c #e42a16",
"bb c #e42b16",
"dM c #e42e11",
"eJ c #e43216",
"#C c #e52616",
"aE c #e52a15",
"by c #e52a16",
"aU c #e52b16",
"co c #e53217",
"dj c #e53317",
"#O c #e62715",
"bF c #e62b15",
"aH c #e72f17",
"as c #e73017",
"#U c #e92115",
"en c #e92615",
"#G c #ea2115",
"ez c #ea2616",
"c7 c #ea3018",
"#k c #eb2115",
"#e c #eb2215",
"aZ c #eb2a11",
"dk c #eb3118",
"#6 c #ec2015",
"#w c #ec2215",
"#5 c #ec2716",
"cF c #ec2a16",
"cn c #ec2d16",
"aL c #ec3218",
"d3 c #ed2416",
"eb c #ed2c16",
"ei c #ed2e16",
"#W c #ee2416",
"ca c #ee2d17",
"bj c #ee3217",
"br c #ee3317",
"#2 c #ef2f17",
"#z c #ef3017",
"#R c #ef3117",
"dz c #ef3318",
"aA c #ef3c19",
"cb c #ef621a",
"#P c #f05119",
"ey c #f15318",
"eo c #f15319",
"bt c #f15419",
"bi c #f15519",
"aO c #f1641a",
"aS c #f16d1d",
"#E c #f2611a",
"a6 c #f29f21",
"#V c #f34f19",
"#1 c #f3631a",
"ba c #f3631b",
"#d c #f3641b",
"bC c #f39f21",
"a8 c #f3a021",
"bn c #f3a121",
"ds c #f3d914",
"#4 c #f4651b",
"bB c #f4711d",
"bE c #f4741e",
"da c #f4d914",
"dw c #f4d915",
"dv c #f4da15",
"cQ c #f5da14",
"aN c #f6641b",
"aT c #f6661c",
"aD c #f6681c",
"b. c #f66a1d",
"af c #f7671c",
"bo c #f7691d",
"at c #f8681c",
"eE c #f8b909",
"dG c #f8df19",
"dU c #f8e019",
"dS c #f8e01a",
"bz c #f9681b",
"a4 c #f9681c",
"bQ c #f96d1c",
"aw c #f99a21",
"aR c #f9a51d",
"aP c #f9a61d",
"eI c #f9bb08",
"cS c #f9e01a",
"ae c #fa681b",
"bR c #fa6b1b",
"b5 c #fa6c1b",
"bA c #faa11e",
"bP c #faa21d",
"ee c #fadd18",
"d5 c #fadf19",
"eF c #fae019",
"cA c #fae119",
"dr c #fae219",
"aV c #fb671b",
"aM c #fb681b",
"aW c #fb691b",
"b# c #fb6b1b",
"bq c #fb6c1b",
"cY c #fb701a",
"bp c #fb9c1f",
"bk c #fb9c20",
"eG c #fbd714",
"eN c #fbd813",
"eq c #fbd914",
"ew c #fbdb16",
"er c #fbdb17",
"ed c #fbdc17",
"ef c #fbdd18",
"cf c #fbe219",
"cw c #fbe319",
"cy c #fbe419",
"dV c #fce419",
"cg c #fce51a",
"dW c #fefbe9",
"dF c #fefefe",
"eu c #ffe900",
"ev c #ffea00",
"dp c #ffea01",
"dq c #ffea04",
"dI c #fffffd",
"dE c #fffffe",
"QtQtQtQtQtQtQtQtQtQtQtQtQtQtQtQtQtQtQtQtQtQtQtQtQtQtQtQtQtQtQtQtQtQtQtQtQtQtQtQtQtQtQtQtQtQtQtQtQtQtQtQtQtQtQtQtQtQtQtQtQtQtQtQt",
"QtQtQtQtQtQtQtQtQtQtQtQtQtQtQtQtQtQtQtQtQtQtQtQtQtQtQtQtQtQtQtQtQtQtQtQtQtQtQtQtQtQtQtQtQtQtQtQtQtQtQtQtQtQtQtQtQtQtQtQtQtQtQtQt",
"QtQtQtQtQtQtQtQtQtQtQtQtQtQtQtQtQtQtQtQtQtQtQtQtQtQtQtQtQtQtQtQtQtQtQtQtQtQtQtQtQtQtQtQtQtQtQtQtQtQtQtQtQtQtQtQtQtQtQtQtQtQtQtQt",
"QtQtQtQtQtQtQtQtQtQtQtQtQtQtQtQtQtQtQtQtQtQtQtQtQtQtQtQtQtQtQtQtQtQtQtQtQtQtQtQtQtQtQtQtQtQtQtQtQtQtQtQtQtQtQtQtQtQtQtQtQtQtQtQt",
"QtQtQtQtQtQtQtQtQtQtQtQtQtQtQtQtQtQtQtQtQtQtQtQtQtQtQtQtQtQtQtQtQtQtQtQtQtQtQtQtQtQtQtQtQtQtQtQtQtQtQtQtQtQtQtQtQtQtQtQtQtQtQtQt",
"QtQtQtQtQtQtQtQtQtQtQtQtQtQtQtQtQtQtQtQtQtQtQtQtQtQtQtQtQtQtQtQtQtQtQtQtQtQtQtQtQtQtQtQtQtQtQtQtQtQtQtQtQtQtQtQtQtQtQtQtQtQtQtQt",
"QtQtQtQtQtQtQtQtQtQtQtQtQtQtQtQtQtQtQtQtQtQtQtQtQtQtQtQtQtQtQtQtQtQtQtQtQtQtQtQtQtQtQtQtQtQtQtQtQtQtQtQtQtQtQtQtQtQtQtQtQtQtQtQt",
"QtQtQtQtQtQtQtQtQtQtQtQtQtQtQtQtQtQtQtQtQtQtQtQtQtQtQtQtQtQtQtQtQtQtQtQtQtQtQtQtQtQtQtQtQtQtQtQtQtQtQtQtQtQtQtQtQtQtQtQtQtQtQtQt",
"QtQtQtQtQtQtQtQtQtQtQtQtQtQtQtQtQtQtQtQtQtQtQtQtQtQtQtQtQtQtQtQtQtQtQtQtQtQtQtQtQtQtQtQtQtQtQtQtQtQtQtQtQtQtQtQtQtQtQtQtQtQtQtQt",
"QtQtQtQtQtQtQtQtQtQtQtQtQtQtQtQtQtQtQtQtQtQtQtQtQtQtQtQtQtQtQtQtQtQtQtQtQtQtQtQtQtQtQtQtQtQtQtQtQtQtQtQtQtQtQtQtQtQtQtQtQtQtQtQt",
"QtQtQtQtQtQtQtQtQtQtQtQtQtQtQtQtQtQtQtQtQtQtQtQtQtQtQtQtQtQtQtQtQtQtQtQtQtQtQtQtQtQtQtQtQtQtQtQtQtQtQtQtQtQtQtQtQtQtQtQtQtQtQtQt",
"QtQtQtQtQtQtQtQtQtQtQtQtQtQtQtQtQtQtQtQtQtQtQtQtQtQtQtQtQtQtQtQtQtQtQtQtQtQtQtQtQtQtQtQtQtQtQtQtQtQtQtQtQtQtQtQtQtQtQtQtQtQtQtQt",
"QtQtQtQtQtQtQtQtQtQtQtQtQtQtQtQtQtQtQtQtQtQtQtQtQtQtQtQtQtQtQtQtQtQtQtQtQtQtQtQtQtQtQtQtQtQtQtQtQtQtQtQtQtQtQtQtQtQtQtQtQtQtQtQt",
"QtQtQtQtQtQtQtQtQtQtQtQtQtQtQtQtQtQtQtQtQtQtQtQtQtQtQtQtQtQtQtQtQtQtQtQtQtQtQtQtQtQtQtQtQtQtQtQtQtQtQtQtQtQtQtQtQtQtQtQtQtQtQtQt",
"QtQtQtQtQtQtQtQtQtQtQtQtQtQtQtQtQtQtQtQtQtQtQtQtQtQtQtQtQtQtQtQtQtQtQtQtQtQtQtQtQtQtQtQtQtQtQtQtQtQtQtQtQtQtQtQtQtQtQtQtQtQtQtQt",
"QtQtQtQtQtQtQtQtQtQtQtQtQtQtQtQtQtQtQtQtQtQtQtQtQtQtQtQtQtQtQtQtQtQtQtQtQtQtQtQtQtQtQtQtQtQtQtQtQtQtQtQtQtQtQtQtQtQtQtQtQtQtQtQt",
"QtQtQtQtQtQtQtQtQtQtQtQtQtQtQtQtQtQtQtQtQtQtQtQtQtQtQtQtQtQtQtQtQtQtQtQtQtQtQtQtQtQtQtQtQtQtQtQtQtQtQtQtQtQtQtQtQtQtQtQtQtQtQtQt",
"QtQtQtQtQtQtQtQtQtQtQtQtQtQtQtQtQtQtQtQtQtQtQtQtQtQtQtQtQtQtQtQtQtQtQtQtQtQtQtQtQtQtQtQtQtQtQtQtQtQtQtQtQtQtQtQtQtQtQtQtQtQtQtQt",
"QtQtQtQtQtQtQtQtQtQtQtQtQtQtQtQtQtQtQtQtQtQtQtQtQtQtQtQtQtQtQtQtQtQtQtQtQtQtQtQtQtQtQtQtQtQtQtQtQtQtQtQtQtQtQtQtQtQtQtQtQtQtQtQt",
"QtQtQtQtQtQtQtQtQtQtQtQtQtQtQtQtQtQtQtQtQtQtQtQtQtQtQtQtQtQtQtQtQtQtQtQtQtQtQtQtQtQtQtQtQtQtQtQtQtQtQtQtQtQtQtQtQtQtQtQtQtQtQtQt",
"QtQtQtQtQtQtQtQtQtQtQtQtQtQtQtQtQtQtQtQtQtQtQtQtQtQtQtQtQtQtQtQtQtQtQtQtQtQtQtQtQtQtQtQtQtQtQtQtQtQtQtQtQtQtQtQtQtQtQtQtQtQtQtQt",
"QtQtQtQtQtQtQtQtQtQtQtQtQtQtQtQtQtQtQtQtQtQtQtQt.#.aQtQtQtQtQtQtQtQtQtQtQtQtQt.b.c.d.eQtQtQtQtQtQtQtQtQtQtQtQtQtQtQtQtQtQtQtQtQt",
"QtQtQtQtQtQtQtQtQtQtQtQtQtQtQtQtQtQtQtQtQtQtQtQt.f.g.hQtQtQtQtQtQtQtQtQtQtQtQt.i.j.k.lQtQtQtQtQtQtQtQtQtQtQtQtQtQtQtQtQtQtQtQtQt",
"QtQtQtQtQtQtQtQtQtQtQtQtQtQtQtQtQtQtQtQtQtQtQtQt.g.g.mQtQtQtQtQtQtQtQtQt.n.oQt.p.q.r.sQt.t.uQtQtQtQtQtQtQtQtQtQtQtQtQtQtQtQtQtQt",
"QtQtQtQtQtQtQtQtQtQtQtQtQtQtQtQtQtQtQtQtQtQtQtQt.f.g.vQtQt.wQtQtQtQt.x.y.z.AQt.B.C.D.EQtQtQtQtQtQtQtQtQtQtQtQtQtQtQtQtQtQtQtQtQt",
"QtQtQtQtQtQtQtQtQtQtQtQtQtQtQtQtQtQtQtQtQtQtQtQtQt.gQtQtQt.F.vQtQt.G.H.I.J.KQtQt.L.MQtQtQt.y.NQtQtQtQtQtQtQtQtQtQtQtQtQtQtQtQtQt",
"QtQtQtQtQtQtQtQtQtQtQtQtQtQtQtQtQtQtQt.g.vQtQtQtQtQtQtQtQt.g.g.v.O.P.Q.R.S.TQtQtQtQtQtQt.U.V.WQtQtQtQtQtQtQtQtQtQtQtQtQtQtQtQtQt",
"QtQtQtQtQtQtQtQtQtQtQtQtQtQtQtQtQtQtQt.X.g.YQtQtQtQtQtQtQt.g.g.Z.0.1.2.3.g.4.5.6.7.8.9#.###a#bQtQtQtQtQtQtQtQtQtQtQtQtQtQtQtQtQt",
"QtQtQtQtQtQtQtQtQtQtQtQtQtQtQtQtQtQtQt.v.g.a.YQt.g#cQt#dQt#e.g#f#g#h#i#j#k#l#d#m#n#f#o#p#q#r#sQtQtQtQtQtQtQtQtQtQtQtQtQtQtQtQtQt",
"QtQtQtQtQtQtQtQtQtQtQtQtQtQtQtQtQtQtQtQt#t#u.aQt#v#w#x#d#y.g.g#z#A#i#i#B#C#D#E#F#G#H#I#J#K#L#MQtQtQtQtQtQtQtQtQtQtQtQtQtQtQtQtQt",
"QtQtQtQtQtQtQtQtQtQtQtQtQtQtQtQtQtQtQtQtQtQtQtQt#N.g#w#O#P#w#Q#R.X#S#i#T#U#V#O#W#X#Y#ZQt#0QtQtQtQtQtQtQtQtQtQtQtQtQtQtQtQtQtQtQt",
"QtQtQtQtQtQtQtQtQtQtQtQtQtQtQtQtQtQtQtQtQt.aQtQt.h.g.g.g#w#w#1#2#i#S#3#4#5#6#7#8#9a.a#aa.aabQtQtQtQtQtQtQtQtQtQtQtQtQtQtQtQtQtQt",
"QtQtQtQtQtQtQtQtQtQtQtQtQtQtQtQtQtQtQtQtQt.a.aQtQtac#d#w.gadaeafag#Sahaeai.g#U#4ajakalamanaoapQtQtQtQtQtQtQtQtQtQtQtQtQtQtQtQtQt",
"QtQtQtQtQtQtQtQtQtQtQtQtQtQtQtQtQtQtQtaqQtaras.gQt.Fatau#wav#zawaxayazaAaB#WaCaDaEaFaGaHaI.eaJQtQtQtQtQtQtQtQtQtQtQtQtQtQtQtQtQt",
"QtQtQtQtQtQtQtQtQtQtQtQtQtQtQtQtQtQt.g.g.vaKaL.g.g.gaMae.FaNaOaPaQaQaRaSaTaUaVaWaXaY.gaZa0a1a2QtQtQtQtQtQtQtQtQtQtQtQtQtQtQtQtQt",
"QtQtQtQtQtQtQtQtQtQtQtQtQtQtQtQtQtQtQta3.gQt.a.g#d.ga4aeaeafa5a6a7aQa8a9b.b#aea4#vbabbbcbdbebfQtQtQtQtQtQtQtQtQtQtQtQtQtQtQtQtQt",
"QtQtQtQtQtQtQtQtQtQtQtQtQtQtQtQtQtQtQtQtQtQtbgbhbi.gbjaMbkafa6a6blbma6bnbobpbqbrbsbtaYbubvQtbwQtQtQtQtQtQtQtQtQtQtQtQtQtQtQtQtQt",
"QtQtQtQtQtQtQtQtQtQtQtQtQtQtQtQtQtQtQt.gQtQtbxbhbybz.gaebAbBbCa6blblbDbnbEbAbqaXaebFbGbHbIbJ.LQtQtQtQtQtQtQtQtQtQtQtQtQtQtQtQtQt",
"QtQtQtQtQtQtQtQtQtQtQtQtQtQtQtQtQtQtQtQt.gbgQtbh.gaeaeaebAa6bKbLblblbMbNbObPbQbRaWaXbhbSbT#vbUQtQtQtQtQtQtQtQtQtQtQtQtQtQtQtQtQt",
"QtQtQtQtQtQtQtQtQtQtQtQtQtQtQtQtQtQtQtQtbVbW.a.g.gaebCa5a6bXbYbZblblb0bYb1b2b3b4b5aX.gb6b7b8b9QtQtQtQtQtQtQtQtQtQtQtQtQtQtQtQtQt",
"QtQtQtQtQtQtQtQtQtQtQtQtQtQtQtQtQtQtQtQtc.c#.aca.gcbcca6cdbZcecfblblcgchcicjckclcmaXcncocpcq.eQtQtQtQtQtQtQtQtQtQtQtQtQtQtQtQtQt",
"QtQtQtQtQtQtQtQtQtQtQtQtQtQtQtQtQtQtQtQtQtcr.acscactcucvcvcfcecwblcxcyczcAcBcCcDcEcFcscGcHcIcJQtQtQtQtQtQtQtQtQtQtQtQtQtQtQtQtQt",
"QtQtQtQtQtQtQtQtQtQtQtQtQtQtQtQtQtQtQtcKcLcMcNcs.g#daecOcPcQcRcSblcTcScUcVcWcXcYcZc0c1c2c3c4c5QtQtQtQtQtQtQtQtQtQtQtQtQtQtQtQtQt",
"QtQtQtQtQtQtQtQtQtQtQtQtQtQtQtQtQtQtQtQtc6c7.ac8clc9bAd.d#cQcQdadbdcdacQcQdddedfdgdhdidjdkdldmQtQtQtQtQtQtQtQtQtQtQtQtQtQtQtQtQt",
"QtQtQtQtQtQtQtQtQtQtQtQtQtQtQtQtQtQtQtQtQtcraL#2dnccdodpdpdqdrdsdtdudsdrdpdpdpdvdwdxdydzdAdBQtQtQtQtQtQtQtQtQtQtQtQtQtQtQtQtQtQt",
"QtQtQtQtQtQtQtQtQtQtQtQtQtQtQtQtQtQtQtQtQtaKas#wdndCdDdEdFdEdGdsdtdHdadGdIdFdEdvdJdKdLdMdNdOQtQtQtQtQtQtQtQtQtQtQtQtQtQtQtQtQtQt",
"QtQtQtQtQtQtQtQtQtQtQtQtQtQtQtQtQtQtQtQtQtQtdP#kbYdQdCdEdRdEcfdSdbdTdUdVdWdXdIdvdYdZd0d1#MQtQtQtQtQtQtQtQtQtQtQtQtQtQtQtQtQtQtQt",
"QtQtQtQtQtQtQtQtQtQtQtQtQtQtQtQtQtQtQtQtQtQtd2.gd3d4dCdCd5cfcwcwdbd6cwcwcyd5d7dCd8d9e.e#eaQtQtQtQtQtQtQtQtQtQtQtQtQtQtQtQtQtQtQt",
"QtQtQtQtQtQtQtQtQtQtQtQtQtQtQtQtQtQtQtQtQtQtQt#t.gebdnecedeecAdrdbdHdrcAeeefegeheiejekelQtQtQtQtQtQtQtQtQtQtQtQtQtQtQtQtQtQtQtQt",
"QtQtQtQtQtQtQtQtQtQtQtQtQtQtQtQtQtQtQtQtQtQtQt.vemeneoepeqereseteueueuevevewexeyezeAeBeCQtQtQtQtQtQtQtQtQtQtQtQtQtQtQtQtQtQtQtQt",
"QtQtQtQtQtQtQtQtQtQtQtQtQtQtQtQtQtQtQtQtQtQtQtQt#teD.geEeFeGeteteteteteHeucAeIeJeKeLeMQtQtQtQtQtQtQtQtQtQtQtQtQtQtQtQtQtQtQtQtQt",
"QtQtQtQtQtQtQtQtQtQtQtQtQtQtQtQtQtQtQtQtQtQtQtQtQt.v.g.geNeFcAetaeaeaeeOePeQeReSeTeUQtQtQtQtQtQtQtQtQtQtQtQtQtQtQtQtQtQtQtQtQtQt",
"QtQtQtQtQtQtQtQtQtQtQtQtQtQtQtQtQtQtQtQtQtQtQtQtQtQtQteVeWeXeYeZe0e1e2e3e4e5e6e7e8e9QtQtQtQtQtQtQtQtQtQtQtQtQtQtQtQtQtQtQtQtQtQt",
"QtQtQtQtQtQtQtQtQtQtQtQtQtQtQtQtQtQtQtQtQtQtQtQtQtQtQtQtQtQtQtQtQtQtQtQtQtQtQtQtQtQtQtQtQtQtQtQtQtQtQtQtQtQtQtQtQtQtQtQtQtQtQtQt",
"QtQtQtQtQtQtQtQtQtQtQtQtQtQtQtQtQtQtQtQtQtQtQtQtQtQtQtQtQtQtQtQtQtQtQtQtQtQtQtQtQtQtQtQtQtQtQtQtQtQtQtQtQtQtQtQtQtQtQtQtQtQtQtQt",
"QtQtQtQtQtQtQtQtQtQtQtQtQtQtQtQtQtQtQtQtQtQtQtQtQtQtQtQtQtQtQtQtQtQtQtQtQtQtQtQtQtQtQtQtQtQtQtQtQtQtQtQtQtQtQtQtQtQtQtQtQtQtQtQt",
"QtQtQtQtQtQtQtQtQtQtQtQtQtQtQtQtQtQtQtQtQtQtQtQtQtQtQtQtQtQtQtQtQtQtQtQtQtQtQtQtQtQtQtQtQtQtQtQtQtQtQtQtQtQtQtQtQtQtQtQtQtQtQtQt",
"QtQtQtQtQtQtQtQtQtQtQtQtQtQtQtQtQtQtQtQtQtQtQtQtQtQtQtQtQtQtQtQtQtQtQtQtQtQtQtQtQtQtQtQtQtQtQtQtQtQtQtQtQtQtQtQtQtQtQtQtQtQtQtQt",
"QtQtQtQtQtQtQtQtQtQtQtQtQtQtQtQtQtQtQtQtQtQtQtQtQtQtQtQtQtQtQtQtQtQtQtQtQtQtQtQtQtQtQtQtQtQtQtQtQtQtQtQtQtQtQtQtQtQtQtQtQtQtQtQt",
"QtQtQtQtQtQtQtQtQtQtQtQtQtQtQtQtQtQtQtQtQtQtQtQtQtQtQtQtQtQtQtQtQtQtQtQtQtQtQtQtQtQtQtQtQtQtQtQtQtQtQtQtQtQtQtQtQtQtQtQtQtQtQtQt",
"QtQtQtQtQtQtQtQtQtQtQtQtQtQtQtQtQtQtQtQtQtQtQtQtQtQtQtQtQtQtQtQtQtQtQtQtQtQtQtQtQtQtQtQtQtQtQtQtQtQtQtQtQtQtQtQtQtQtQtQtQtQtQtQt",
"QtQtQtQtQtQtQtQtQtQtQtQtQtQtQtQtQtQtQtQtQtQtQtQtQtQtQtQtQtQtQtQtQtQtQtQtQtQtQtQtQtQtQtQtQtQtQtQtQtQtQtQtQtQtQtQtQtQtQtQtQtQtQtQt",
"QtQtQtQtQtQtQtQtQtQtQtQtQtQtQtQtQtQtQtQtQtQtQtQtQtQtQtQtQtQtQtQtQtQtQtQtQtQtQtQtQtQtQtQtQtQtQtQtQtQtQtQtQtQtQtQtQtQtQtQtQtQtQtQt",
"QtQtQtQtQtQtQtQtQtQtQtQtQtQtQtQtQtQtQtQtQtQtQtQtQtQtQtQtQtQtQtQtQtQtQtQtQtQtQtQtQtQtQtQtQtQtQtQtQtQtQtQtQtQtQtQtQtQtQtQtQtQtQtQt"};
