/* XPM */
static char *dummy[]={
"64 64 230 2",
"Qt c None",
".i c #d12f15",
".l c #fafdfd",
"af c #fafdfd",
".U c #fafdfd",
"ae c #b42e14",
".a c #fafcfc",
"#t c #fafcfc",
".f c #fafdfd",
"#V c #fafdfd",
".d c #f9fefd",
".8 c #fafcfc",
"#s c #fafcfd",
".Z c #fafdfd",
"bm c #e4701f",
"#E c #fb8459",
"bz c #732f13",
"bJ c #ecd230",
"bb c #d54418",
"#J c #fb8459",
"bA c #832813",
"bI c #f5d814",
"a4 c #e9cb2a",
"#U c #fb8459",
"aq c #782d12",
"aY c #7a3815",
".I c #b03115",
".t c #b84b17",
".1 c #e03717",
".b c #e32816",
"#l c #e33417",
"#K c #e52716",
".n c #e62615",
"bB c #e86e1e",
"bH c #fbd914",
"#g c #fbdad3",
"aX c #edd331",
"#6 c #fb8459",
".v c #722f13",
"#h c #8b2913",
".H c #c12414",
".p c #e32816",
".q c #e33417",
"by c #ebd130",
".o c #ec2215",
"bG c #fad913",
"bC c #fbd914",
"aN c #edd431",
"ad c #f0d969",
"bF c #f9d913",
"bD c #fbd914",
"aF c #e7cd2d",
"ap c #f1da73",
"an c #0a0601",
"ab c #1e1303",
".y c #5e3913",
"a0 c #643613",
".E c #6e3213",
".A c #732f13",
".g c #752e12",
"#7 c #7a3815",
"aO c #7b3815",
".F c #873714",
"ah c #8b3916",
"ag c #8f3c16",
".4 c #8f3e15",
".u c #942e14",
".m c #9c4b16",
"bc c #a13514",
".L c #a43814",
"#9 c #a44c15",
"#W c #a84317",
".r c #b32f15",
".T c #c52715",
"#8 c #c65618",
".h c #ca5618",
".B c #d03f18",
".0 c #d43316",
"bn c #d93516",
".O c #da3416",
"as c #dc5b19",
".V c #dd2f17",
"a9 c #dd3b17",
"a1 c #dd4217",
"a2 c #de3e17",
".e c #df2d16",
"a8 c #df5f1d",
"br c #df621d",
"#j c #df9224",
".x c #e02b16",
"b# c #e04318",
"b. c #e04418",
"ba c #e04518",
".W c #e12a16",
"#L c #e13617",
"bj c #e14a19",
"#m c #e22916",
".5 c #e23d17",
"al c #e2c708",
".c c #e32816",
".C c #e32916",
".# c #e33417",
".j c #e42816",
"a6 c #e52816",
"#u c #e52a16",
"bs c #e55d1c",
"bl c #e5701f",
".J c #e62715",
"#z c #e69723",
".2 c #e73017",
"bi c #e89122",
"bd c #e92615",
".Y c #ea2616",
"ar c #ea3018",
"aP c #eb2115",
".w c #eb2215",
".S c #eb2a16",
".D c #ec2215",
".9 c #ec3218",
"aZ c #ed2416",
"aQ c #ed2616",
"a5 c #ed2c16",
"bt c #ed7220",
"aU c #edb80c",
".s c #ee2d17",
".z c #ee2f17",
"#o c #ee3217",
"aW c #eed431",
".R c #ef2f17",
".G c #ef3017",
".M c #ef3117",
"aG c #ef4419",
"#X c #ef621a",
"bk c #ef7520",
"#Q c #efa33d",
".K c #f05119",
".P c #f05219",
"#F c #f09e22",
"aT c #f0d513",
"ay c #f0d969",
"be c #f15319",
"#n c #f15519",
"#a c #f1641a",
"#r c #f19f22",
"#c c #f29f21",
"#q c #f2a120",
"a3 c #f2d00e",
"bx c #f2d114",
"aK c #f2d814",
".Q c #f3631a",
".k c #f3641b",
"#x c #f39f21",
"ai c #f3a021",
"#A c #f3b411",
"au c #f3b90a",
"#B c #f3d110",
"aj c #f3d312",
"aM c #f3d432",
"#M c #f3d914",
"aa c #f3f3f3",
"#w c #f4711d",
"aV c #f4d110",
"#I c #f4d412",
"bE c #f4d814",
"a# c #f4d914",
"#4 c #f4f3f3",
"ak c #f5da14",
"## c #f6641b",
"#Y c #f6661c",
"aE c #f6d533",
"bh c #f6db15",
"#P c #f6de39",
"av c #f6df41",
".X c #f7671c",
"ao c #f7d534",
"bw c #f7d813",
"ac c #f7db37",
"#5 c #f7dd38",
".3 c #f8681c",
"#f c #f8791e",
"bo c #f8b909",
"#G c #f8ca0c",
"#2 c #f8dd17",
"bq c #f8de17",
"aB c #f8de18",
"aJ c #f8df19",
"aS c #f8e01a",
"#v c #f9681b",
"#i c #f9681c",
".6 c #f99a21",
"#C c #f9a11f",
"#b c #f9a61d",
"aA c #f9dc16",
"am c #f9e01a",
".N c #fa681b",
"#T c #fa6a1b",
"#D c #fa6b23",
"at c #fa6c1b",
".7 c #fa9f1f",
"#d c #faa11e",
"#H c #fadd17",
"#y c #fadd18",
"#O c #fade18",
"aH c #fade19",
"aI c #fadf19",
"aR c #fae019",
"#Z c #fae119",
"#N c #fae219",
"#S c #faf7f3",
"aD c #faf8f3",
"ax c #fafdfd",
"#. c #fb681b",
"#k c #fb8459",
"#e c #fb9c1f",
"#p c #fb9c20",
"bu c #fbd813",
"bf c #fbd914",
"aL c #fbda15",
"#0 c #fbdb16",
"bg c #fbdb17",
"bv c #fbdc17",
"a7 c #fbdc18",
"#1 c #fbe219",
"a. c #fbe319",
"aw c #fbe447",
"#3 c #fbe554",
"#R c #fbe555",
"aC c #fbe654",
"az c #fcb70d",
"bp c #fcda15",
"QtQtQtQtQtQtQtQtQtQtQtQtQtQtQtQtQtQtQtQtQtQtQtQtQtQtQtQtQtQtQtQtQtQtQtQtQtQtQtQtQtQtQtQtQtQtQtQtQtQtQtQtQtQtQtQtQtQtQtQtQtQtQtQt",
"QtQtQtQtQtQtQtQtQtQtQtQtQtQtQtQtQtQtQtQtQtQtQtQtQtQtQtQtQtQtQtQtQtQtQtQtQtQtQtQtQtQtQtQtQtQtQtQtQtQtQtQtQtQtQtQtQtQtQtQtQtQtQtQt",
"QtQtQtQtQtQtQtQtQtQtQtQtQtQtQtQtQtQtQtQtQtQtQtQtQtQtQtQtQtQtQtQtQtQtQtQtQtQtQtQtQtQtQtQtQtQtQtQtQtQtQtQtQtQtQtQtQtQtQtQtQtQtQtQt",
"QtQtQtQtQtQtQtQtQtQtQtQtQtQtQtQtQtQtQtQtQtQtQtQtQtQtQtQtQtQtQtQtQtQtQtQtQtQtQtQtQtQtQtQtQtQtQtQtQtQtQtQtQtQtQtQtQtQtQtQtQtQtQtQt",
"QtQtQtQtQtQtQtQtQtQtQtQtQtQtQtQtQtQtQtQtQtQtQtQtQtQtQtQtQtQtQtQtQtQtQtQtQtQtQtQtQtQtQtQtQtQtQtQtQtQtQtQtQtQtQtQtQtQtQtQtQtQtQtQt",
"QtQtQtQtQtQtQtQtQtQtQtQtQtQtQtQtQtQtQtQtQtQtQtQtQtQtQtQtQtQtQtQtQtQtQtQtQtQtQtQtQtQtQtQtQtQtQtQtQtQtQtQtQtQtQtQtQtQtQtQtQtQtQtQt",
"QtQtQtQtQtQtQtQtQtQtQtQtQtQtQtQtQtQtQtQtQtQtQtQtQtQtQtQtQtQtQtQtQtQtQtQtQtQtQtQtQtQtQtQtQtQtQtQtQtQtQtQtQtQtQtQtQtQtQtQtQtQtQtQt",
"QtQtQtQtQtQtQtQtQtQtQtQtQtQtQtQtQtQtQtQtQtQtQtQtQtQtQtQtQtQtQtQtQtQtQtQtQtQtQtQtQtQtQtQtQtQtQtQtQtQtQtQtQtQtQtQtQtQtQtQtQtQtQtQt",
"QtQtQtQtQtQtQtQtQtQtQtQtQtQtQtQtQtQtQtQtQtQtQtQtQtQtQtQtQtQtQtQtQtQtQtQtQtQtQtQtQtQtQtQtQtQtQtQtQtQtQtQtQtQtQtQtQtQtQtQtQtQtQtQt",
"QtQtQtQtQtQtQtQtQtQtQtQtQtQtQtQtQtQtQtQtQtQtQtQtQtQtQtQtQtQtQtQtQtQtQtQtQtQtQtQtQtQtQtQtQtQtQtQtQtQtQtQtQtQtQtQtQtQtQtQtQtQtQtQt",
"QtQtQtQtQtQtQtQtQtQtQtQtQtQtQtQtQtQtQtQtQtQtQtQtQtQtQtQtQtQtQtQtQtQtQtQtQtQtQtQtQtQtQtQtQtQtQtQtQtQtQtQtQtQtQtQtQtQtQtQtQtQtQtQt",
"QtQtQtQtQtQtQtQtQtQtQtQtQtQtQtQtQtQtQtQtQtQtQtQtQtQtQtQtQtQtQtQtQtQtQtQtQtQtQtQtQtQtQtQtQtQtQtQtQtQtQtQtQtQtQtQtQtQtQtQtQtQtQtQt",
"QtQtQtQtQtQtQtQtQtQtQtQtQtQtQtQtQtQtQtQtQtQtQtQtQtQtQtQtQtQtQtQtQtQtQtQtQtQtQtQtQtQtQtQtQtQtQtQtQtQtQtQtQtQtQtQtQtQtQtQtQtQtQtQt",
"QtQtQtQtQtQtQtQtQtQtQtQtQtQtQtQtQtQtQtQtQtQtQtQtQtQtQtQtQtQtQtQtQtQtQtQtQtQtQtQtQtQtQtQtQtQtQtQtQtQtQtQtQtQtQtQtQtQtQtQtQtQtQtQt",
"QtQtQtQtQtQtQtQtQtQtQtQtQtQtQtQtQtQtQtQtQtQtQtQtQtQtQtQtQtQtQtQtQtQtQtQtQtQtQtQtQtQtQtQtQtQtQtQtQtQtQtQtQtQtQtQtQtQtQtQtQtQtQtQt",
"QtQtQtQtQtQtQtQtQtQtQtQtQtQtQtQtQtQtQtQtQtQtQtQtQtQtQtQtQtQtQtQtQtQtQtQtQtQtQtQtQtQtQtQtQtQtQtQtQtQtQtQtQtQtQtQtQtQtQtQtQtQtQtQt",
"QtQtQtQtQtQtQtQtQtQtQtQtQtQtQtQtQtQtQtQtQtQtQtQtQtQtQt.#QtQtQtQtQtQtQtQtQtQtQtQtQtQtQtQtQtQtQtQtQtQtQtQtQtQtQtQtQtQtQtQtQtQtQtQt",
"QtQtQtQtQtQtQtQtQtQtQtQtQtQtQtQtQtQtQtQtQtQtQtQtQtQt.a.#QtQtQtQtQtQtQtQtQtQtQtQtQtQtQtQtQtQtQtQtQtQtQtQtQtQtQtQtQtQtQtQtQtQtQtQt",
"QtQtQtQtQtQtQtQtQtQtQtQtQtQtQtQtQtQtQtQtQtQtQtQtQtQt.b.c.dQtQtQtQtQtQtQtQtQtQtQtQtQtQtQtQtQtQtQtQtQtQtQtQtQtQtQtQtQtQtQtQtQtQtQt",
"QtQtQtQtQtQtQtQtQtQtQtQtQtQtQtQtQtQtQtQtQtQtQtQtQtQt.c.c.eQtQtQtQtQtQtQtQtQtQtQtQtQtQtQtQtQtQtQtQtQtQtQtQtQtQtQtQtQtQtQtQtQtQtQt",
"QtQtQtQtQtQtQtQtQtQtQtQtQtQtQtQtQtQtQtQtQtQtQtQtQtQt.b.c.fQtQt.gQtQtQtQt.hQtQt.iQtQtQtQtQtQtQtQtQtQtQtQtQtQtQtQtQtQtQtQtQtQtQtQt",
"QtQtQtQtQtQtQtQtQtQtQtQtQtQtQtQtQtQtQtQtQtQtQtQtQtQtQt.cQtQtQt.j.fQtQt.f.kQtQt.c.lQtQtQtQtQtQtQtQtQtQtQtQtQtQtQtQtQtQtQtQtQtQtQt",
"QtQtQtQtQtQtQtQtQtQtQtQtQtQtQtQtQtQtQtQtQt.c.fQtQtQtQtQtQtQtQt.c.c.f.f.m.k.dQt.n.oQtQtQtQtQtQtQtQtQtQtQtQtQtQtQtQtQtQtQtQtQtQtQt",
"QtQtQtQtQtQtQtQtQtQtQtQtQtQtQtQtQtQtQtQtQt.p.c.qQtQtQtQtQtQtQt.c.c.c.r.s.k.tQtQt.uQtQtQtQtQtQtQtQtQtQtQtQtQtQtQtQtQtQtQtQtQtQtQt",
"QtQtQtQtQtQtQtQtQtQtQtQtQtQtQtQtQtQtQtQtQt.f.c.#.qQt.c.vQt.kQt.w.c.x.y.c.z.kQtQtQtQtQtQtQtQtQtQtQtQtQtQtQtQtQtQtQtQtQtQtQtQtQtQt",
"QtQtQtQtQtQtQtQtQtQtQtQtQtQtQtQtQtQtQtQtQtQt.A.B.#Qt.C.D.E.k.F.c.c.G.c.c.c.cQt.H.cQtQtQtQtQtQtQtQtQtQtQtQtQtQtQtQtQtQtQtQtQtQtQt",
"QtQtQtQtQtQtQtQtQtQtQtQtQtQtQtQtQtQtQtQtQtQtQtQtQtQt.I.c.D.J.K.D.L.M.c.c.N.c.O.c.PQtQtQtQtQtQtQtQtQtQtQtQtQtQtQtQtQtQtQtQtQtQtQt",
"QtQtQtQtQtQtQtQtQtQtQtQtQtQtQtQtQtQtQtQtQtQtQt.#QtQt.d.c.c.c.D.D.Q.R.j.S.N.T.c.j.k.UQtQtQtQtQtQtQtQtQtQtQtQtQtQtQtQtQtQtQtQtQtQt",
"QtQtQtQtQtQtQtQtQtQtQtQtQtQtQtQtQtQtQtQtQtQtQt.#.#QtQt.V.k.D.c.W.N.X.k.k.k.k.Y.Q.k.ZQtQtQtQtQtQtQtQtQtQtQtQtQtQtQtQtQtQtQtQtQtQt",
"QtQtQtQtQtQtQtQtQtQtQtQtQtQtQtQtQtQtQtQtQt.0Qt.1.2.cQt.j.3.4.D.5.G.6.k.k.k.k.N.Q.7.kQtQtQtQtQtQtQtQtQtQtQtQtQtQtQtQtQtQtQtQtQtQt",
"QtQtQtQtQtQtQtQtQtQtQtQtQtQtQtQtQtQtQtQt.c.c.f.8.9.c.c.c#..N.j###a#b.k#c.Q.X#d#e#f.N#gQtQtQtQtQtQtQtQtQtQtQtQtQtQtQtQtQtQtQtQtQt",
"QtQtQtQtQtQtQtQtQtQtQtQtQtQtQtQtQtQtQtQtQt#h.cQt.#.c.k.c#i.N.N.X#j#c#b#c#c#c#d#d.k.N#kQtQtQtQtQtQtQtQtQtQtQtQtQtQtQtQtQtQtQtQtQt",
"QtQtQtQtQtQtQtQtQtQtQtQtQtQtQtQtQtQtQtQtQtQtQtQt#l#m#n.c#o#.#p.X#c#c#c#q#r#c#d#d.k.N#k#sQtQtQtQtQtQtQtQtQtQtQtQtQtQtQtQtQtQtQtQt",
"QtQtQtQtQtQtQtQtQtQtQtQtQtQtQtQtQtQtQtQtQt.cQtQt#t#m#u#v.c.N#d#w#x#c#c#y#z#A#B#C#d.N#D#EQtQtQtQtQtQtQtQtQtQtQtQtQtQtQtQtQtQtQtQt",
"QtQtQtQtQtQtQtQtQtQtQtQtQtQtQtQtQtQtQtQtQtQt.c#lQt#m.c.N.N.N#d#c#c#y#F#y#G#H#I#c#x.k#v#JQtQtQtQtQtQtQtQtQtQtQtQtQtQtQtQtQtQtQtQt",
"QtQtQtQtQtQtQtQtQtQtQtQtQtQtQtQtQtQtQtQtQtQt#K#L.#.c.c.N#x#j#c#y#M#N#O#M#y#y#P#Q#R#S#T#UQtQtQtQtQtQtQtQtQtQtQtQtQtQtQtQtQtQtQtQt",
"QtQtQtQtQtQtQtQtQtQtQtQtQtQtQtQtQtQtQtQtQtQt#V#W.#.s.c#X#Y#c#c#Z#0#1#1#2#Z#y#P#3#4#S#5#6QtQtQtQtQtQtQtQtQtQtQtQtQtQtQtQtQtQtQtQt",
"QtQtQtQtQtQtQtQtQtQtQtQtQtQtQtQtQtQtQtQtQtQtQt#7.##8.s#9.k#c#I#1#Na.#N#N#ya##R#4aaabacadQtQtQtQtQtQtQtQtQtQtQtQtQtQtQtQtQtQtQtQt",
"QtQtQtQtQtQtQtQtQtQtQtQtQtQtQtQtQtQtQtQtQtaeafagah#8.c.k.Naiajakalama.#N#y#M#3#4aaanaoapQtQtQtQtQtQtQtQtQtQtQtQtQtQtQtQtQtQtQtQt",
"QtQtQtQtQtQtQtQtQtQtQtQtQtQtQtQtQtQtQtQtQtQtaqar.#as.cat#d#cauakaka##Ma##M#Mavawax#SaoayQtQtQtQtQtQtQtQtQtQtQtQtQtQtQtQtQtQtQtQt",
"QtQtQtQtQtQtQtQtQtQtQtQtQtQtQtQtQtQtQtQtQtQtQt#7.9.R.c.6#daz#caA#N#MaB#M#M#M#M#MaCaDaEaFQtQtQtQtQtQtQtQtQtQtQtQtQtQtQtQtQtQtQtQt",
"QtQtQtQtQtQtQtQtQtQtQtQtQtQtQtQtQtQtQtQtQtQtQt.8.2.DaG.k#daHaI#qaJ#M#M#N#M#M#MaK#MaLaMaNQtQtQtQtQtQtQtQtQtQtQtQtQtQtQtQtQtQtQtQt",
"QtQtQtQtQtQtQtQtQtQtQtQtQtQtQtQtQtQtQtQtQtQtQtQtaOaPaQ.k.N#d#1aR#1aSaT#N#M#MaU#M#MaVaWaXQtQtQtQtQtQtQtQtQtQtQtQtQtQtQtQtQtQtQtQt",
"QtQtQtQtQtQtQtQtQtQtQtQtQtQtQtQtQtQtQtQtQtQtQtQtaY.caZa0.N.3aI#1a.a.#N#M#M#Ma1a2a2a3aWa4QtQtQtQtQtQtQtQtQtQtQtQtQtQtQtQtQtQtQtQt",
"QtQtQtQtQtQtQtQtQtQtQtQtQtQtQtQtQtQtQtQtQtQtQtQtQt.A.ca5a6#va7#y#Z#Na##Z#Ma8a9b.b.b#babbQtQtQtQtQtQtQtQtQtQtQtQtQtQtQtQtQtQtQtQt",
"QtQtQtQtQtQtQtQtQtQtQtQtQtQtQtQtQtQtQtQtQtQtQtQtQt.fbcbdbe.kbfbg#y#Nbh#M#Nbia9bjbkbkblbmQtQtQtQtQtQtQtQtQtQtQtQtQtQtQtQtQtQtQtQt",
"QtQtQtQtQtQtQtQtQtQtQtQtQtQtQtQtQtQtQtQtQtQtQtQtQtQt.Abn.cboaRbf#y#1#1bpaIbqbrbsbtbkblQtQtQtQtQtQtQtQtQtQtQtQtQtQtQtQtQtQtQtQtQt",
"QtQtQtQtQtQtQtQtQtQtQtQtQtQtQtQtQtQtQtQtQtQtQtQtQtQtQt.f.c.cbuaR#Z#1aIbv#1bvbwbfbxbyQtQtQtQtQtQtQtQtQtQtQtQtQtQtQtQtQtQtQtQtQtQt",
"QtQtQtQtQtQtQtQtQtQtQtQtQtQtQtQtQtQtQtQtQtQtQtQtQtQtQtQtQtbzbAbBbCbDbEbFbGbHbIbJ.fQtQtQtQtQtQtQtQtQtQtQtQtQtQtQtQtQtQtQtQtQtQtQt",
"QtQtQtQtQtQtQtQtQtQtQtQtQtQtQtQtQtQtQtQtQtQtQtQtQtQtQtQtQtQtQtQtQtQtQtQtQtQtQtQtQtQtQtQtQtQtQtQtQtQtQtQtQtQtQtQtQtQtQtQtQtQtQtQt",
"QtQtQtQtQtQtQtQtQtQtQtQtQtQtQtQtQtQtQtQtQtQtQtQtQtQtQtQtQtQtQtQtQtQtQtQtQtQtQtQtQtQtQtQtQtQtQtQtQtQtQtQtQtQtQtQtQtQtQtQtQtQtQtQt",
"QtQtQtQtQtQtQtQtQtQtQtQtQtQtQtQtQtQtQtQtQtQtQtQtQtQtQtQtQtQtQtQtQtQtQtQtQtQtQtQtQtQtQtQtQtQtQtQtQtQtQtQtQtQtQtQtQtQtQtQtQtQtQtQt",
"QtQtQtQtQtQtQtQtQtQtQtQtQtQtQtQtQtQtQtQtQtQtQtQtQtQtQtQtQtQtQtQtQtQtQtQtQtQtQtQtQtQtQtQtQtQtQtQtQtQtQtQtQtQtQtQtQtQtQtQtQtQtQtQt",
"QtQtQtQtQtQtQtQtQtQtQtQtQtQtQtQtQtQtQtQtQtQtQtQtQtQtQtQtQtQtQtQtQtQtQtQtQtQtQtQtQtQtQtQtQtQtQtQtQtQtQtQtQtQtQtQtQtQtQtQtQtQtQtQt",
"QtQtQtQtQtQtQtQtQtQtQtQtQtQtQtQtQtQtQtQtQtQtQtQtQtQtQtQtQtQtQtQtQtQtQtQtQtQtQtQtQtQtQtQtQtQtQtQtQtQtQtQtQtQtQtQtQtQtQtQtQtQtQtQt",
"QtQtQtQtQtQtQtQtQtQtQtQtQtQtQtQtQtQtQtQtQtQtQtQtQtQtQtQtQtQtQtQtQtQtQtQtQtQtQtQtQtQtQtQtQtQtQtQtQtQtQtQtQtQtQtQtQtQtQtQtQtQtQtQt",
"QtQtQtQtQtQtQtQtQtQtQtQtQtQtQtQtQtQtQtQtQtQtQtQtQtQtQtQtQtQtQtQtQtQtQtQtQtQtQtQtQtQtQtQtQtQtQtQtQtQtQtQtQtQtQtQtQtQtQtQtQtQtQtQt",
"QtQtQtQtQtQtQtQtQtQtQtQtQtQtQtQtQtQtQtQtQtQtQtQtQtQtQtQtQtQtQtQtQtQtQtQtQtQtQtQtQtQtQtQtQtQtQtQtQtQtQtQtQtQtQtQtQtQtQtQtQtQtQtQt",
"QtQtQtQtQtQtQtQtQtQtQtQtQtQtQtQtQtQtQtQtQtQtQtQtQtQtQtQtQtQtQtQtQtQtQtQtQtQtQtQtQtQtQtQtQtQtQtQtQtQtQtQtQtQtQtQtQtQtQtQtQtQtQtQt",
"QtQtQtQtQtQtQtQtQtQtQtQtQtQtQtQtQtQtQtQtQtQtQtQtQtQtQtQtQtQtQtQtQtQtQtQtQtQtQtQtQtQtQtQtQtQtQtQtQtQtQtQtQtQtQtQtQtQtQtQtQtQtQtQt",
"QtQtQtQtQtQtQtQtQtQtQtQtQtQtQtQtQtQtQtQtQtQtQtQtQtQtQtQtQtQtQtQtQtQtQtQtQtQtQtQtQtQtQtQtQtQtQtQtQtQtQtQtQtQtQtQtQtQtQtQtQtQtQtQt",
"QtQtQtQtQtQtQtQtQtQtQtQtQtQtQtQtQtQtQtQtQtQtQtQtQtQtQtQtQtQtQtQtQtQtQtQtQtQtQtQtQtQtQtQtQtQtQtQtQtQtQtQtQtQtQtQtQtQtQtQtQtQtQtQt",
"QtQtQtQtQtQtQtQtQtQtQtQtQtQtQtQtQtQtQtQtQtQtQtQtQtQtQtQtQtQtQtQtQtQtQtQtQtQtQtQtQtQtQtQtQtQtQtQtQtQtQtQtQtQtQtQtQtQtQtQtQtQtQtQt",
"QtQtQtQtQtQtQtQtQtQtQtQtQtQtQtQtQtQtQtQtQtQtQtQtQtQtQtQtQtQtQtQtQtQtQtQtQtQtQtQtQtQtQtQtQtQtQtQtQtQtQtQtQtQtQtQtQtQtQtQtQtQtQtQt"};
